<?xml version="1.0" encoding="utf-8" standalone="no"?>
<!DOCTYPE svg PUBLIC "-//W3C//DTD SVG 1.1//EN"
  "http://www.w3.org/Graphics/SVG/1.1/DTD/svg11.dtd">
<!-- Created with matplotlib (https://matplotlib.org/) -->
<svg height="288pt" version="1.1" viewBox="0 0 432 288" width="432pt" xmlns="http://www.w3.org/2000/svg" xmlns:xlink="http://www.w3.org/1999/xlink">
 <defs>
  <style type="text/css">
*{stroke-linecap:butt;stroke-linejoin:round;}
  </style>
 </defs>
 <g id="figure_1">
  <g id="patch_1">
   <path d="M 0 288 
L 432 288 
L 432 0 
L 0 0 
z
" style="fill:#ffffff;"/>
  </g>
  <g id="axes_1">
   <g id="patch_2">
    <path d="M 54 252 
L 388.8 252 
L 388.8 34.56 
L 54 34.56 
z
" style="fill:#ffffff;"/>
   </g>
   <g id="patch_3">
    <path clip-path="url(#pb514f12831)" d="z
" style="fill:#ea96a3;"/>
   </g>
   <g id="patch_4">
    <path clip-path="url(#pb514f12831)" d="M 238.14 252 
L 239.661818 252 
L 239.661818 239.818487 
L 238.14 239.818487 
z
" style="fill:#ea96a3;"/>
   </g>
   <g id="patch_5">
    <path clip-path="url(#pb514f12831)" d="M 72.261818 252 
L 73.783636 252 
L 73.783636 191.092437 
L 72.261818 191.092437 
z
" style="fill:#ea969e;"/>
   </g>
   <g id="patch_6">
    <path clip-path="url(#pb514f12831)" d="z
" style="fill:#ea969e;"/>
   </g>
   <g id="patch_7">
    <path clip-path="url(#pb514f12831)" d="M 73.783636 252 
L 75.305455 252 
L 75.305455 203.27395 
L 73.783636 203.27395 
z
" style="fill:#ea9798;"/>
   </g>
   <g id="patch_8">
    <path clip-path="url(#pb514f12831)" d="M 241.183636 252 
L 242.705455 252 
L 242.705455 227.636975 
L 241.183636 227.636975 
z
" style="fill:#ea9798;"/>
   </g>
   <g id="patch_9">
    <path clip-path="url(#pb514f12831)" d="M 75.305455 252 
L 76.827273 252 
L 76.827273 239.818487 
L 75.305455 239.818487 
z
" style="fill:#e99790;"/>
   </g>
   <g id="patch_10">
    <path clip-path="url(#pb514f12831)" d="M 242.705455 252 
L 244.227273 252 
L 244.227273 227.636975 
L 242.705455 227.636975 
z
" style="fill:#e99790;"/>
   </g>
   <g id="patch_11">
    <path clip-path="url(#pb514f12831)" d="M 76.827273 252 
L 78.349091 252 
L 78.349091 239.818487 
L 76.827273 239.818487 
z
" style="fill:#e89687;"/>
   </g>
   <g id="patch_12">
    <path clip-path="url(#pb514f12831)" d="M 244.227273 252 
L 245.749091 252 
L 245.749091 203.27395 
L 244.227273 203.27395 
z
" style="fill:#e89687;"/>
   </g>
   <g id="patch_13">
    <path clip-path="url(#pb514f12831)" d="M 78.349091 252 
L 79.870909 252 
L 79.870909 239.818487 
L 78.349091 239.818487 
z
" style="fill:#e6957c;"/>
   </g>
   <g id="patch_14">
    <path clip-path="url(#pb514f12831)" d="M 245.749091 252 
L 247.270909 252 
L 247.270909 215.455462 
L 245.749091 215.455462 
z
" style="fill:#e6957c;"/>
   </g>
   <g id="patch_15">
    <path clip-path="url(#pb514f12831)" d="M 79.870909 252 
L 81.392727 252 
L 81.392727 215.455462 
L 79.870909 215.455462 
z
" style="fill:#e5946f;"/>
   </g>
   <g id="patch_16">
    <path clip-path="url(#pb514f12831)" d="M 247.270909 252 
L 248.792727 252 
L 248.792727 154.547899 
L 247.270909 154.547899 
z
" style="fill:#e5946f;"/>
   </g>
   <g id="patch_17">
    <path clip-path="url(#pb514f12831)" d="M 81.392727 252 
L 82.914545 252 
L 82.914545 203.27395 
L 81.392727 203.27395 
z
" style="fill:#e2925b;"/>
   </g>
   <g id="patch_18">
    <path clip-path="url(#pb514f12831)" d="M 248.792727 252 
L 250.314545 252 
L 250.314545 191.092437 
L 248.792727 191.092437 
z
" style="fill:#e2925b;"/>
   </g>
   <g id="patch_19">
    <path clip-path="url(#pb514f12831)" d="M 82.914545 252 
L 84.436364 252 
L 84.436364 239.818487 
L 82.914545 239.818487 
z
" style="fill:#dc924e;"/>
   </g>
   <g id="patch_20">
    <path clip-path="url(#pb514f12831)" d="M 250.314545 252 
L 251.836364 252 
L 251.836364 154.547899 
L 250.314545 154.547899 
z
" style="fill:#dc924e;"/>
   </g>
   <g id="patch_21">
    <path clip-path="url(#pb514f12831)" d="M 84.436364 252 
L 85.958182 252 
L 85.958182 191.092437 
L 84.436364 191.092437 
z
" style="fill:#d6944d;"/>
   </g>
   <g id="patch_22">
    <path clip-path="url(#pb514f12831)" d="M 251.836364 252 
L 253.358182 252 
L 253.358182 178.910924 
L 251.836364 178.910924 
z
" style="fill:#d6944d;"/>
   </g>
   <g id="patch_23">
    <path clip-path="url(#pb514f12831)" d="M 85.958182 252 
L 87.48 252 
L 87.48 215.455462 
L 85.958182 215.455462 
z
" style="fill:#d0964d;"/>
   </g>
   <g id="patch_24">
    <path clip-path="url(#pb514f12831)" d="M 253.358182 252 
L 254.88 252 
L 254.88 44.914286 
L 253.358182 44.914286 
z
" style="fill:#d0964d;"/>
   </g>
   <g id="patch_25">
    <path clip-path="url(#pb514f12831)" d="M 87.48 252 
L 89.001818 252 
L 89.001818 191.092437 
L 87.48 191.092437 
z
" style="fill:#ca984c;"/>
   </g>
   <g id="patch_26">
    <path clip-path="url(#pb514f12831)" d="M 254.88 252 
L 256.401818 252 
L 256.401818 154.547899 
L 254.88 154.547899 
z
" style="fill:#ca984c;"/>
   </g>
   <g id="patch_27">
    <path clip-path="url(#pb514f12831)" d="M 89.001818 252 
L 90.523636 252 
L 90.523636 239.818487 
L 89.001818 239.818487 
z
" style="fill:#c5994b;"/>
   </g>
   <g id="patch_28">
    <path clip-path="url(#pb514f12831)" d="M 256.401818 252 
L 257.923636 252 
L 257.923636 105.821849 
L 256.401818 105.821849 
z
" style="fill:#c5994b;"/>
   </g>
   <g id="patch_29">
    <path clip-path="url(#pb514f12831)" d="M 90.523636 252 
L 92.045455 252 
L 92.045455 191.092437 
L 90.523636 191.092437 
z
" style="fill:#c09a4a;"/>
   </g>
   <g id="patch_30">
    <path clip-path="url(#pb514f12831)" d="M 257.923636 252 
L 259.445455 252 
L 259.445455 81.458824 
L 257.923636 81.458824 
z
" style="fill:#c09a4a;"/>
   </g>
   <g id="patch_31">
    <path clip-path="url(#pb514f12831)" d="M 92.045455 252 
L 93.567273 252 
L 93.567273 191.092437 
L 92.045455 191.092437 
z
" style="fill:#bc9b4a;"/>
   </g>
   <g id="patch_32">
    <path clip-path="url(#pb514f12831)" d="M 259.445455 252 
L 260.967273 252 
L 260.967273 191.092437 
L 259.445455 191.092437 
z
" style="fill:#bc9b4a;"/>
   </g>
   <g id="patch_33">
    <path clip-path="url(#pb514f12831)" d="M 93.567273 252 
L 95.089091 252 
L 95.089091 239.818487 
L 93.567273 239.818487 
z
" style="fill:#b79c49;"/>
   </g>
   <g id="patch_34">
    <path clip-path="url(#pb514f12831)" d="M 260.967273 252 
L 262.489091 252 
L 262.489091 215.455462 
L 260.967273 215.455462 
z
" style="fill:#b79c49;"/>
   </g>
   <g id="patch_35">
    <path clip-path="url(#pb514f12831)" d="M 95.089091 252 
L 96.610909 252 
L 96.610909 215.455462 
L 95.089091 215.455462 
z
" style="fill:#b39d48;"/>
   </g>
   <g id="patch_36">
    <path clip-path="url(#pb514f12831)" d="M 262.489091 252 
L 264.010909 252 
L 264.010909 203.27395 
L 262.489091 203.27395 
z
" style="fill:#b39d48;"/>
   </g>
   <g id="patch_37">
    <path clip-path="url(#pb514f12831)" d="M 96.610909 252 
L 98.132727 252 
L 98.132727 166.729412 
L 96.610909 166.729412 
z
" style="fill:#ae9d48;"/>
   </g>
   <g id="patch_38">
    <path clip-path="url(#pb514f12831)" d="M 264.010909 252 
L 265.532727 252 
L 265.532727 178.910924 
L 264.010909 178.910924 
z
" style="fill:#ae9d48;"/>
   </g>
   <g id="patch_39">
    <path clip-path="url(#pb514f12831)" d="M 98.132727 252 
L 99.654545 252 
L 99.654545 239.818487 
L 98.132727 239.818487 
z
" style="fill:#aa9e47;"/>
   </g>
   <g id="patch_40">
    <path clip-path="url(#pb514f12831)" d="M 265.532727 252 
L 267.054545 252 
L 267.054545 130.184874 
L 265.532727 130.184874 
z
" style="fill:#aa9e47;"/>
   </g>
   <g id="patch_41">
    <path clip-path="url(#pb514f12831)" d="M 99.654545 252 
L 101.176364 252 
L 101.176364 178.910924 
L 99.654545 178.910924 
z
" style="fill:#a59f46;"/>
   </g>
   <g id="patch_42">
    <path clip-path="url(#pb514f12831)" d="M 267.054545 252 
L 268.576364 252 
L 268.576364 154.547899 
L 267.054545 154.547899 
z
" style="fill:#a59f46;"/>
   </g>
   <g id="patch_43">
    <path clip-path="url(#pb514f12831)" d="M 101.176364 252 
L 102.698182 252 
L 102.698182 227.636975 
L 101.176364 227.636975 
z
" style="fill:#a09f45;"/>
   </g>
   <g id="patch_44">
    <path clip-path="url(#pb514f12831)" d="M 268.576364 252 
L 270.098182 252 
L 270.098182 166.729412 
L 268.576364 166.729412 
z
" style="fill:#a09f45;"/>
   </g>
   <g id="patch_45">
    <path clip-path="url(#pb514f12831)" d="M 102.698182 252 
L 104.22 252 
L 104.22 227.636975 
L 102.698182 227.636975 
z
" style="fill:#9ca145;"/>
   </g>
   <g id="patch_46">
    <path clip-path="url(#pb514f12831)" d="M 270.098182 252 
L 271.62 252 
L 271.62 130.184874 
L 270.098182 130.184874 
z
" style="fill:#9ca145;"/>
   </g>
   <g id="patch_47">
    <path clip-path="url(#pb514f12831)" d="M 104.22 252 
L 105.741818 252 
L 105.741818 191.092437 
L 104.22 191.092437 
z
" style="fill:#98a246;"/>
   </g>
   <g id="patch_48">
    <path clip-path="url(#pb514f12831)" d="M 271.62 252 
L 273.141818 252 
L 273.141818 166.729412 
L 271.62 166.729412 
z
" style="fill:#98a246;"/>
   </g>
   <g id="patch_49">
    <path clip-path="url(#pb514f12831)" d="M 105.741818 252 
L 107.263636 252 
L 107.263636 215.455462 
L 105.741818 215.455462 
z
" style="fill:#93a446;"/>
   </g>
   <g id="patch_50">
    <path clip-path="url(#pb514f12831)" d="M 273.141818 252 
L 274.663636 252 
L 274.663636 178.910924 
L 273.141818 178.910924 
z
" style="fill:#93a446;"/>
   </g>
   <g id="patch_51">
    <path clip-path="url(#pb514f12831)" d="M 107.263636 252 
L 108.785455 252 
L 108.785455 166.729412 
L 107.263636 166.729412 
z
" style="fill:#8ea546;"/>
   </g>
   <g id="patch_52">
    <path clip-path="url(#pb514f12831)" d="M 274.663636 252 
L 276.185455 252 
L 276.185455 142.366387 
L 274.663636 142.366387 
z
" style="fill:#8ea546;"/>
   </g>
   <g id="patch_53">
    <path clip-path="url(#pb514f12831)" d="M 108.785455 252 
L 110.307273 252 
L 110.307273 142.366387 
L 108.785455 142.366387 
z
" style="fill:#89a746;"/>
   </g>
   <g id="patch_54">
    <path clip-path="url(#pb514f12831)" d="M 276.185455 252 
L 277.707273 252 
L 277.707273 154.547899 
L 276.185455 154.547899 
z
" style="fill:#89a746;"/>
   </g>
   <g id="patch_55">
    <path clip-path="url(#pb514f12831)" d="M 110.307273 252 
L 111.829091 252 
L 111.829091 191.092437 
L 110.307273 191.092437 
z
" style="fill:#82a846;"/>
   </g>
   <g id="patch_56">
    <path clip-path="url(#pb514f12831)" d="M 277.707273 252 
L 279.229091 252 
L 279.229091 215.455462 
L 277.707273 215.455462 
z
" style="fill:#82a846;"/>
   </g>
   <g id="patch_57">
    <path clip-path="url(#pb514f12831)" d="M 111.829091 252 
L 113.350909 252 
L 113.350909 215.455462 
L 111.829091 215.455462 
z
" style="fill:#7aaa47;"/>
   </g>
   <g id="patch_58">
    <path clip-path="url(#pb514f12831)" d="M 279.229091 252 
L 280.750909 252 
L 280.750909 191.092437 
L 279.229091 191.092437 
z
" style="fill:#7aaa47;"/>
   </g>
   <g id="patch_59">
    <path clip-path="url(#pb514f12831)" d="M 113.350909 252 
L 114.872727 252 
L 114.872727 166.729412 
L 113.350909 166.729412 
z
" style="fill:#71ac47;"/>
   </g>
   <g id="patch_60">
    <path clip-path="url(#pb514f12831)" d="M 280.750909 252 
L 282.272727 252 
L 282.272727 142.366387 
L 280.750909 142.366387 
z
" style="fill:#71ac47;"/>
   </g>
   <g id="patch_61">
    <path clip-path="url(#pb514f12831)" d="M 114.872727 252 
L 116.394545 252 
L 116.394545 203.27395 
L 114.872727 203.27395 
z
" style="fill:#65ae47;"/>
   </g>
   <g id="patch_62">
    <path clip-path="url(#pb514f12831)" d="M 282.272727 252 
L 283.794545 252 
L 283.794545 215.455462 
L 282.272727 215.455462 
z
" style="fill:#65ae47;"/>
   </g>
   <g id="patch_63">
    <path clip-path="url(#pb514f12831)" d="M 116.394545 252 
L 117.916364 252 
L 117.916364 154.547899 
L 116.394545 154.547899 
z
" style="fill:#53b047;"/>
   </g>
   <g id="patch_64">
    <path clip-path="url(#pb514f12831)" d="M 283.794545 252 
L 285.316364 252 
L 285.316364 227.636975 
L 283.794545 227.636975 
z
" style="fill:#53b047;"/>
   </g>
   <g id="patch_65">
    <path clip-path="url(#pb514f12831)" d="M 117.916364 252 
L 119.438182 252 
L 119.438182 215.455462 
L 117.916364 215.455462 
z
" style="fill:#48b056;"/>
   </g>
   <g id="patch_66">
    <path clip-path="url(#pb514f12831)" d="M 285.316364 252 
L 286.838182 252 
L 286.838182 130.184874 
L 285.316364 130.184874 
z
" style="fill:#48b056;"/>
   </g>
   <g id="patch_67">
    <path clip-path="url(#pb514f12831)" d="M 119.438182 252 
L 120.96 252 
L 120.96 203.27395 
L 119.438182 203.27395 
z
" style="fill:#48b067;"/>
   </g>
   <g id="patch_68">
    <path clip-path="url(#pb514f12831)" d="M 286.838182 252 
L 288.36 252 
L 288.36 191.092437 
L 286.838182 191.092437 
z
" style="fill:#48b067;"/>
   </g>
   <g id="patch_69">
    <path clip-path="url(#pb514f12831)" d="M 120.96 252 
L 122.481818 252 
L 122.481818 203.27395 
L 120.96 203.27395 
z
" style="fill:#49af72;"/>
   </g>
   <g id="patch_70">
    <path clip-path="url(#pb514f12831)" d="M 288.36 252 
L 289.881818 252 
L 289.881818 130.184874 
L 288.36 130.184874 
z
" style="fill:#49af72;"/>
   </g>
   <g id="patch_71">
    <path clip-path="url(#pb514f12831)" d="M 122.481818 252 
L 124.003636 252 
L 124.003636 191.092437 
L 122.481818 191.092437 
z
" style="fill:#49af7b;"/>
   </g>
   <g id="patch_72">
    <path clip-path="url(#pb514f12831)" d="M 289.881818 252 
L 291.403636 252 
L 291.403636 166.729412 
L 289.881818 166.729412 
z
" style="fill:#49af7b;"/>
   </g>
   <g id="patch_73">
    <path clip-path="url(#pb514f12831)" d="M 124.003636 252 
L 125.525455 252 
L 125.525455 191.092437 
L 124.003636 191.092437 
z
" style="fill:#49ae81;"/>
   </g>
   <g id="patch_74">
    <path clip-path="url(#pb514f12831)" d="M 291.403636 252 
L 292.925455 252 
L 292.925455 178.910924 
L 291.403636 178.910924 
z
" style="fill:#49ae81;"/>
   </g>
   <g id="patch_75">
    <path clip-path="url(#pb514f12831)" d="M 125.525455 252 
L 127.047273 252 
L 127.047273 178.910924 
L 125.525455 178.910924 
z
" style="fill:#49ae87;"/>
   </g>
   <g id="patch_76">
    <path clip-path="url(#pb514f12831)" d="M 292.925455 252 
L 294.447273 252 
L 294.447273 203.27395 
L 292.925455 203.27395 
z
" style="fill:#49ae87;"/>
   </g>
   <g id="patch_77">
    <path clip-path="url(#pb514f12831)" d="M 127.047273 252 
L 128.569091 252 
L 128.569091 178.910924 
L 127.047273 178.910924 
z
" style="fill:#4aad8c;"/>
   </g>
   <g id="patch_78">
    <path clip-path="url(#pb514f12831)" d="M 294.447273 252 
L 295.969091 252 
L 295.969091 154.547899 
L 294.447273 154.547899 
z
" style="fill:#4aad8c;"/>
   </g>
   <g id="patch_79">
    <path clip-path="url(#pb514f12831)" d="M 128.569091 252 
L 130.090909 252 
L 130.090909 178.910924 
L 128.569091 178.910924 
z
" style="fill:#4aad90;"/>
   </g>
   <g id="patch_80">
    <path clip-path="url(#pb514f12831)" d="M 295.969091 252 
L 297.490909 252 
L 297.490909 118.003361 
L 295.969091 118.003361 
z
" style="fill:#4aad90;"/>
   </g>
   <g id="patch_81">
    <path clip-path="url(#pb514f12831)" d="M 130.090909 252 
L 131.612727 252 
L 131.612727 191.092437 
L 130.090909 191.092437 
z
" style="fill:#4aad94;"/>
   </g>
   <g id="patch_82">
    <path clip-path="url(#pb514f12831)" d="M 297.490909 252 
L 299.012727 252 
L 299.012727 215.455462 
L 297.490909 215.455462 
z
" style="fill:#4aad94;"/>
   </g>
   <g id="patch_83">
    <path clip-path="url(#pb514f12831)" d="M 131.612727 252 
L 133.134545 252 
L 133.134545 191.092437 
L 131.612727 191.092437 
z
" style="fill:#4aac98;"/>
   </g>
   <g id="patch_84">
    <path clip-path="url(#pb514f12831)" d="M 299.012727 252 
L 300.534545 252 
L 300.534545 239.818487 
L 299.012727 239.818487 
z
" style="fill:#4aac98;"/>
   </g>
   <g id="patch_85">
    <path clip-path="url(#pb514f12831)" d="M 133.134545 252 
L 134.656364 252 
L 134.656364 191.092437 
L 133.134545 191.092437 
z
" style="fill:#4aac9b;"/>
   </g>
   <g id="patch_86">
    <path clip-path="url(#pb514f12831)" d="M 300.534545 252 
L 302.056364 252 
L 302.056364 118.003361 
L 300.534545 118.003361 
z
" style="fill:#4aac9b;"/>
   </g>
   <g id="patch_87">
    <path clip-path="url(#pb514f12831)" d="M 134.656364 252 
L 136.178182 252 
L 136.178182 239.818487 
L 134.656364 239.818487 
z
" style="fill:#4bac9e;"/>
   </g>
   <g id="patch_88">
    <path clip-path="url(#pb514f12831)" d="M 302.056364 252 
L 303.578182 252 
L 303.578182 166.729412 
L 302.056364 166.729412 
z
" style="fill:#4bac9e;"/>
   </g>
   <g id="patch_89">
    <path clip-path="url(#pb514f12831)" d="M 136.178182 252 
L 137.7 252 
L 137.7 154.547899 
L 136.178182 154.547899 
z
" style="fill:#4baba1;"/>
   </g>
   <g id="patch_90">
    <path clip-path="url(#pb514f12831)" d="M 303.578182 252 
L 305.1 252 
L 305.1 154.547899 
L 303.578182 154.547899 
z
" style="fill:#4baba1;"/>
   </g>
   <g id="patch_91">
    <path clip-path="url(#pb514f12831)" d="M 137.7 252 
L 139.221818 252 
L 139.221818 142.366387 
L 137.7 142.366387 
z
" style="fill:#4baba4;"/>
   </g>
   <g id="patch_92">
    <path clip-path="url(#pb514f12831)" d="M 305.1 252 
L 306.621818 252 
L 306.621818 130.184874 
L 305.1 130.184874 
z
" style="fill:#4baba4;"/>
   </g>
   <g id="patch_93">
    <path clip-path="url(#pb514f12831)" d="M 139.221818 252 
L 140.743636 252 
L 140.743636 154.547899 
L 139.221818 154.547899 
z
" style="fill:#4baba7;"/>
   </g>
   <g id="patch_94">
    <path clip-path="url(#pb514f12831)" d="M 306.621818 252 
L 308.143636 252 
L 308.143636 191.092437 
L 306.621818 191.092437 
z
" style="fill:#4baba7;"/>
   </g>
   <g id="patch_95">
    <path clip-path="url(#pb514f12831)" d="M 140.743636 252 
L 142.265455 252 
L 142.265455 166.729412 
L 140.743636 166.729412 
z
" style="fill:#4babaa;"/>
   </g>
   <g id="patch_96">
    <path clip-path="url(#pb514f12831)" d="M 308.143636 252 
L 309.665455 252 
L 309.665455 142.366387 
L 308.143636 142.366387 
z
" style="fill:#4babaa;"/>
   </g>
   <g id="patch_97">
    <path clip-path="url(#pb514f12831)" d="M 142.265455 252 
L 143.787273 252 
L 143.787273 191.092437 
L 142.265455 191.092437 
z
" style="fill:#4cabad;"/>
   </g>
   <g id="patch_98">
    <path clip-path="url(#pb514f12831)" d="M 309.665455 252 
L 311.187273 252 
L 311.187273 178.910924 
L 309.665455 178.910924 
z
" style="fill:#4cabad;"/>
   </g>
   <g id="patch_99">
    <path clip-path="url(#pb514f12831)" d="M 143.787273 252 
L 145.309091 252 
L 145.309091 93.640336 
L 143.787273 93.640336 
z
" style="fill:#4dabb0;"/>
   </g>
   <g id="patch_100">
    <path clip-path="url(#pb514f12831)" d="M 311.187273 252 
L 312.709091 252 
L 312.709091 130.184874 
L 311.187273 130.184874 
z
" style="fill:#4dabb0;"/>
   </g>
   <g id="patch_101">
    <path clip-path="url(#pb514f12831)" d="M 145.309091 252 
L 146.830909 252 
L 146.830909 154.547899 
L 145.309091 154.547899 
z
" style="fill:#4dabb4;"/>
   </g>
   <g id="patch_102">
    <path clip-path="url(#pb514f12831)" d="M 312.709091 252 
L 314.230909 252 
L 314.230909 130.184874 
L 312.709091 130.184874 
z
" style="fill:#4dabb4;"/>
   </g>
   <g id="patch_103">
    <path clip-path="url(#pb514f12831)" d="M 146.830909 252 
L 148.352727 252 
L 148.352727 154.547899 
L 146.830909 154.547899 
z
" style="fill:#4eabb7;"/>
   </g>
   <g id="patch_104">
    <path clip-path="url(#pb514f12831)" d="M 314.230909 252 
L 315.752727 252 
L 315.752727 203.27395 
L 314.230909 203.27395 
z
" style="fill:#4eabb7;"/>
   </g>
   <g id="patch_105">
    <path clip-path="url(#pb514f12831)" d="M 148.352727 252 
L 149.874545 252 
L 149.874545 203.27395 
L 148.352727 203.27395 
z
" style="fill:#4fabbb;"/>
   </g>
   <g id="patch_106">
    <path clip-path="url(#pb514f12831)" d="M 315.752727 252 
L 317.274545 252 
L 317.274545 81.458824 
L 315.752727 81.458824 
z
" style="fill:#4fabbb;"/>
   </g>
   <g id="patch_107">
    <path clip-path="url(#pb514f12831)" d="M 149.874545 252 
L 151.396364 252 
L 151.396364 154.547899 
L 149.874545 154.547899 
z
" style="fill:#50acbf;"/>
   </g>
   <g id="patch_108">
    <path clip-path="url(#pb514f12831)" d="M 317.274545 252 
L 318.796364 252 
L 318.796364 154.547899 
L 317.274545 154.547899 
z
" style="fill:#50acbf;"/>
   </g>
   <g id="patch_109">
    <path clip-path="url(#pb514f12831)" d="M 151.396364 252 
L 152.918182 252 
L 152.918182 191.092437 
L 151.396364 191.092437 
z
" style="fill:#51acc3;"/>
   </g>
   <g id="patch_110">
    <path clip-path="url(#pb514f12831)" d="M 318.796364 252 
L 320.318182 252 
L 320.318182 166.729412 
L 318.796364 166.729412 
z
" style="fill:#51acc3;"/>
   </g>
   <g id="patch_111">
    <path clip-path="url(#pb514f12831)" d="M 152.918182 252 
L 154.44 252 
L 154.44 178.910924 
L 152.918182 178.910924 
z
" style="fill:#52acc8;"/>
   </g>
   <g id="patch_112">
    <path clip-path="url(#pb514f12831)" d="M 320.318182 252 
L 321.84 252 
L 321.84 166.729412 
L 320.318182 166.729412 
z
" style="fill:#52acc8;"/>
   </g>
   <g id="patch_113">
    <path clip-path="url(#pb514f12831)" d="M 154.44 252 
L 155.961818 252 
L 155.961818 105.821849 
L 154.44 105.821849 
z
" style="fill:#53accd;"/>
   </g>
   <g id="patch_114">
    <path clip-path="url(#pb514f12831)" d="M 321.84 252 
L 323.361818 252 
L 323.361818 215.455462 
L 321.84 215.455462 
z
" style="fill:#53accd;"/>
   </g>
   <g id="patch_115">
    <path clip-path="url(#pb514f12831)" d="M 155.961818 252 
L 157.483636 252 
L 157.483636 178.910924 
L 155.961818 178.910924 
z
" style="fill:#54acd3;"/>
   </g>
   <g id="patch_116">
    <path clip-path="url(#pb514f12831)" d="M 323.361818 252 
L 324.883636 252 
L 324.883636 178.910924 
L 323.361818 178.910924 
z
" style="fill:#54acd3;"/>
   </g>
   <g id="patch_117">
    <path clip-path="url(#pb514f12831)" d="M 157.483636 252 
L 159.005455 252 
L 159.005455 142.366387 
L 157.483636 142.366387 
z
" style="fill:#56acda;"/>
   </g>
   <g id="patch_118">
    <path clip-path="url(#pb514f12831)" d="M 324.883636 252 
L 326.405455 252 
L 326.405455 191.092437 
L 324.883636 191.092437 
z
" style="fill:#56acda;"/>
   </g>
   <g id="patch_119">
    <path clip-path="url(#pb514f12831)" d="M 159.005455 252 
L 160.527273 252 
L 160.527273 130.184874 
L 159.005455 130.184874 
z
" style="fill:#5eade0;"/>
   </g>
   <g id="patch_120">
    <path clip-path="url(#pb514f12831)" d="M 326.405455 252 
L 327.927273 252 
L 327.927273 166.729412 
L 326.405455 166.729412 
z
" style="fill:#5eade0;"/>
   </g>
   <g id="patch_121">
    <path clip-path="url(#pb514f12831)" d="M 160.527273 252 
L 162.049091 252 
L 162.049091 166.729412 
L 160.527273 166.729412 
z
" style="fill:#73aee3;"/>
   </g>
   <g id="patch_122">
    <path clip-path="url(#pb514f12831)" d="M 327.927273 252 
L 329.449091 252 
L 329.449091 118.003361 
L 327.927273 118.003361 
z
" style="fill:#73aee3;"/>
   </g>
   <g id="patch_123">
    <path clip-path="url(#pb514f12831)" d="M 162.049091 252 
L 163.570909 252 
L 163.570909 191.092437 
L 162.049091 191.092437 
z
" style="fill:#82aee5;"/>
   </g>
   <g id="patch_124">
    <path clip-path="url(#pb514f12831)" d="M 329.449091 252 
L 330.970909 252 
L 330.970909 227.636975 
L 329.449091 227.636975 
z
" style="fill:#82aee5;"/>
   </g>
   <g id="patch_125">
    <path clip-path="url(#pb514f12831)" d="M 163.570909 252 
L 165.092727 252 
L 165.092727 142.366387 
L 163.570909 142.366387 
z
" style="fill:#8eaee7;"/>
   </g>
   <g id="patch_126">
    <path clip-path="url(#pb514f12831)" d="M 330.970909 252 
L 332.492727 252 
L 332.492727 118.003361 
L 330.970909 118.003361 
z
" style="fill:#8eaee7;"/>
   </g>
   <g id="patch_127">
    <path clip-path="url(#pb514f12831)" d="M 165.092727 252 
L 166.614545 252 
L 166.614545 178.910924 
L 165.092727 178.910924 
z
" style="fill:#98ade9;"/>
   </g>
   <g id="patch_128">
    <path clip-path="url(#pb514f12831)" d="M 332.492727 252 
L 334.014545 252 
L 334.014545 166.729412 
L 332.492727 166.729412 
z
" style="fill:#98ade9;"/>
   </g>
   <g id="patch_129">
    <path clip-path="url(#pb514f12831)" d="M 166.614545 252 
L 168.136364 252 
L 168.136364 191.092437 
L 166.614545 191.092437 
z
" style="fill:#a1adea;"/>
   </g>
   <g id="patch_130">
    <path clip-path="url(#pb514f12831)" d="M 334.014545 252 
L 335.536364 252 
L 335.536364 130.184874 
L 334.014545 130.184874 
z
" style="fill:#a1adea;"/>
   </g>
   <g id="patch_131">
    <path clip-path="url(#pb514f12831)" d="M 168.136364 252 
L 169.658182 252 
L 169.658182 118.003361 
L 168.136364 118.003361 
z
" style="fill:#a9aceb;"/>
   </g>
   <g id="patch_132">
    <path clip-path="url(#pb514f12831)" d="M 335.536364 252 
L 337.058182 252 
L 337.058182 178.910924 
L 335.536364 178.910924 
z
" style="fill:#a9aceb;"/>
   </g>
   <g id="patch_133">
    <path clip-path="url(#pb514f12831)" d="M 169.658182 252 
L 171.18 252 
L 171.18 154.547899 
L 169.658182 154.547899 
z
" style="fill:#b0aaeb;"/>
   </g>
   <g id="patch_134">
    <path clip-path="url(#pb514f12831)" d="M 337.058182 252 
L 338.58 252 
L 338.58 239.818487 
L 337.058182 239.818487 
z
" style="fill:#b0aaeb;"/>
   </g>
   <g id="patch_135">
    <path clip-path="url(#pb514f12831)" d="M 171.18 252 
L 172.701818 252 
L 172.701818 215.455462 
L 171.18 215.455462 
z
" style="fill:#b6a8eb;"/>
   </g>
   <g id="patch_136">
    <path clip-path="url(#pb514f12831)" d="M 338.58 252 
L 340.101818 252 
L 340.101818 215.455462 
L 338.58 215.455462 
z
" style="fill:#b6a8eb;"/>
   </g>
   <g id="patch_137">
    <path clip-path="url(#pb514f12831)" d="M 172.701818 252 
L 174.223636 252 
L 174.223636 81.458824 
L 172.701818 81.458824 
z
" style="fill:#bca5ea;"/>
   </g>
   <g id="patch_138">
    <path clip-path="url(#pb514f12831)" d="M 340.101818 252 
L 341.623636 252 
L 341.623636 239.818487 
L 340.101818 239.818487 
z
" style="fill:#bca5ea;"/>
   </g>
   <g id="patch_139">
    <path clip-path="url(#pb514f12831)" d="M 174.223636 252 
L 175.745455 252 
L 175.745455 118.003361 
L 174.223636 118.003361 
z
" style="fill:#c1a2ea;"/>
   </g>
   <g id="patch_140">
    <path clip-path="url(#pb514f12831)" d="M 341.623636 252 
L 343.145455 252 
L 343.145455 154.547899 
L 341.623636 154.547899 
z
" style="fill:#c1a2ea;"/>
   </g>
   <g id="patch_141">
    <path clip-path="url(#pb514f12831)" d="M 175.745455 252 
L 177.267273 252 
L 177.267273 57.095798 
L 175.745455 57.095798 
z
" style="fill:#c7a0ea;"/>
   </g>
   <g id="patch_142">
    <path clip-path="url(#pb514f12831)" d="M 343.145455 252 
L 344.667273 252 
L 344.667273 191.092437 
L 343.145455 191.092437 
z
" style="fill:#c7a0ea;"/>
   </g>
   <g id="patch_143">
    <path clip-path="url(#pb514f12831)" d="M 177.267273 252 
L 178.789091 252 
L 178.789091 191.092437 
L 177.267273 191.092437 
z
" style="fill:#cc9ce9;"/>
   </g>
   <g id="patch_144">
    <path clip-path="url(#pb514f12831)" d="M 344.667273 252 
L 346.189091 252 
L 346.189091 227.636975 
L 344.667273 227.636975 
z
" style="fill:#cc9ce9;"/>
   </g>
   <g id="patch_145">
    <path clip-path="url(#pb514f12831)" d="M 178.789091 252 
L 180.310909 252 
L 180.310909 130.184874 
L 178.789091 130.184874 
z
" style="fill:#d199e9;"/>
   </g>
   <g id="patch_146">
    <path clip-path="url(#pb514f12831)" d="M 346.189091 252 
L 347.710909 252 
L 347.710909 166.729412 
L 346.189091 166.729412 
z
" style="fill:#d199e9;"/>
   </g>
   <g id="patch_147">
    <path clip-path="url(#pb514f12831)" d="M 180.310909 252 
L 181.832727 252 
L 181.832727 191.092437 
L 180.310909 191.092437 
z
" style="fill:#d795e8;"/>
   </g>
   <g id="patch_148">
    <path clip-path="url(#pb514f12831)" d="M 347.710909 252 
L 349.232727 252 
L 349.232727 215.455462 
L 347.710909 215.455462 
z
" style="fill:#d795e8;"/>
   </g>
   <g id="patch_149">
    <path clip-path="url(#pb514f12831)" d="M 181.832727 252 
L 183.354545 252 
L 183.354545 203.27395 
L 181.832727 203.27395 
z
" style="fill:#dd91e7;"/>
   </g>
   <g id="patch_150">
    <path clip-path="url(#pb514f12831)" d="M 349.232727 252 
L 350.754545 252 
L 350.754545 215.455462 
L 349.232727 215.455462 
z
" style="fill:#dd91e7;"/>
   </g>
   <g id="patch_151">
    <path clip-path="url(#pb514f12831)" d="M 183.354545 252 
L 184.876364 252 
L 184.876364 178.910924 
L 183.354545 178.910924 
z
" style="fill:#e38ce7;"/>
   </g>
   <g id="patch_152">
    <path clip-path="url(#pb514f12831)" d="M 350.754545 252 
L 352.276364 252 
L 352.276364 166.729412 
L 350.754545 166.729412 
z
" style="fill:#e38ce7;"/>
   </g>
   <g id="patch_153">
    <path clip-path="url(#pb514f12831)" d="M 184.876364 252 
L 186.398182 252 
L 186.398182 203.27395 
L 184.876364 203.27395 
z
" style="fill:#e689e3;"/>
   </g>
   <g id="patch_154">
    <path clip-path="url(#pb514f12831)" d="M 352.276364 252 
L 353.798182 252 
L 353.798182 227.636975 
L 352.276364 227.636975 
z
" style="fill:#e689e3;"/>
   </g>
   <g id="patch_155">
    <path clip-path="url(#pb514f12831)" d="M 186.398182 252 
L 187.92 252 
L 187.92 203.27395 
L 186.398182 203.27395 
z
" style="fill:#e78bdd;"/>
   </g>
   <g id="patch_156">
    <path clip-path="url(#pb514f12831)" d="M 353.798182 252 
L 355.32 252 
L 355.32 178.910924 
L 353.798182 178.910924 
z
" style="fill:#e78bdd;"/>
   </g>
   <g id="patch_157">
    <path clip-path="url(#pb514f12831)" d="M 187.92 252 
L 189.441818 252 
L 189.441818 118.003361 
L 187.92 118.003361 
z
" style="fill:#e78cd7;"/>
   </g>
   <g id="patch_158">
    <path clip-path="url(#pb514f12831)" d="M 355.32 252 
L 356.841818 252 
L 356.841818 227.636975 
L 355.32 227.636975 
z
" style="fill:#e78cd7;"/>
   </g>
   <g id="patch_159">
    <path clip-path="url(#pb514f12831)" d="M 189.441818 252 
L 190.963636 252 
L 190.963636 130.184874 
L 189.441818 130.184874 
z
" style="fill:#e78dd2;"/>
   </g>
   <g id="patch_160">
    <path clip-path="url(#pb514f12831)" d="z
" style="fill:#e78dd2;"/>
   </g>
   <g id="patch_161">
    <path clip-path="url(#pb514f12831)" d="M 190.963636 252 
L 192.485455 252 
L 192.485455 191.092437 
L 190.963636 191.092437 
z
" style="fill:#e88fcd;"/>
   </g>
   <g id="patch_162">
    <path clip-path="url(#pb514f12831)" d="M 358.363636 252 
L 359.885455 252 
L 359.885455 215.455462 
L 358.363636 215.455462 
z
" style="fill:#e88fcd;"/>
   </g>
   <g id="patch_163">
    <path clip-path="url(#pb514f12831)" d="M 192.485455 252 
L 194.007273 252 
L 194.007273 93.640336 
L 192.485455 93.640336 
z
" style="fill:#e88fc9;"/>
   </g>
   <g id="patch_164">
    <path clip-path="url(#pb514f12831)" d="z
" style="fill:#e88fc9;"/>
   </g>
   <g id="patch_165">
    <path clip-path="url(#pb514f12831)" d="M 194.007273 252 
L 195.529091 252 
L 195.529091 178.910924 
L 194.007273 178.910924 
z
" style="fill:#e890c4;"/>
   </g>
   <g id="patch_166">
    <path clip-path="url(#pb514f12831)" d="z
" style="fill:#e890c4;"/>
   </g>
   <g id="patch_167">
    <path clip-path="url(#pb514f12831)" d="M 195.529091 252 
L 197.050909 252 
L 197.050909 178.910924 
L 195.529091 178.910924 
z
" style="fill:#e891c0;"/>
   </g>
   <g id="patch_168">
    <path clip-path="url(#pb514f12831)" d="M 362.929091 252 
L 364.450909 252 
L 364.450909 239.818487 
L 362.929091 239.818487 
z
" style="fill:#e891c0;"/>
   </g>
   <g id="patch_169">
    <path clip-path="url(#pb514f12831)" d="M 197.050909 252 
L 198.572727 252 
L 198.572727 203.27395 
L 197.050909 203.27395 
z
" style="fill:#e992bb;"/>
   </g>
   <g id="patch_170">
    <path clip-path="url(#pb514f12831)" d="z
" style="fill:#e992bb;"/>
   </g>
   <g id="patch_171">
    <path clip-path="url(#pb514f12831)" d="M 198.572727 252 
L 200.094545 252 
L 200.094545 191.092437 
L 198.572727 191.092437 
z
" style="fill:#e993b7;"/>
   </g>
   <g id="patch_172">
    <path clip-path="url(#pb514f12831)" d="M 365.972727 252 
L 367.494545 252 
L 367.494545 239.818487 
L 365.972727 239.818487 
z
" style="fill:#e993b7;"/>
   </g>
   <g id="patch_173">
    <path clip-path="url(#pb514f12831)" d="M 200.094545 252 
L 201.616364 252 
L 201.616364 227.636975 
L 200.094545 227.636975 
z
" style="fill:#e994b3;"/>
   </g>
   <g id="patch_174">
    <path clip-path="url(#pb514f12831)" d="M 367.494545 252 
L 369.016364 252 
L 369.016364 239.818487 
L 367.494545 239.818487 
z
" style="fill:#e994b3;"/>
   </g>
   <g id="patch_175">
    <path clip-path="url(#pb514f12831)" d="M 201.616364 252 
L 203.138182 252 
L 203.138182 227.636975 
L 201.616364 227.636975 
z
" style="fill:#e994ae;"/>
   </g>
   <g id="patch_176">
    <path clip-path="url(#pb514f12831)" d="z
" style="fill:#e994ae;"/>
   </g>
   <g id="patch_177">
    <path clip-path="url(#pb514f12831)" d="M 203.138182 252 
L 204.66 252 
L 204.66 191.092437 
L 203.138182 191.092437 
z
" style="fill:#e995a9;"/>
   </g>
   <g id="patch_178">
    <path clip-path="url(#pb514f12831)" d="z
" style="fill:#e995a9;"/>
   </g>
   <g id="matplotlib.axis_1">
    <g id="xtick_1">
     <g id="line2d_1">
      <defs>
       <path d="M 0 0 
L 0 3.5 
" id="m0932df91c9" style="stroke:#000000;stroke-width:0.8;"/>
      </defs>
      <g>
       <use style="stroke:#000000;stroke-width:0.8;" x="137.7" xlink:href="#m0932df91c9" y="252"/>
      </g>
     </g>
     <g id="text_1">
      <!-- 0 -->
      <defs>
       <path d="M 31.78125 66.40625 
Q 24.171875 66.40625 20.328125 58.90625 
Q 16.5 51.421875 16.5 36.375 
Q 16.5 21.390625 20.328125 13.890625 
Q 24.171875 6.390625 31.78125 6.390625 
Q 39.453125 6.390625 43.28125 13.890625 
Q 47.125 21.390625 47.125 36.375 
Q 47.125 51.421875 43.28125 58.90625 
Q 39.453125 66.40625 31.78125 66.40625 
z
M 31.78125 74.21875 
Q 44.046875 74.21875 50.515625 64.515625 
Q 56.984375 54.828125 56.984375 36.375 
Q 56.984375 17.96875 50.515625 8.265625 
Q 44.046875 -1.421875 31.78125 -1.421875 
Q 19.53125 -1.421875 13.0625 8.265625 
Q 6.59375 17.96875 6.59375 36.375 
Q 6.59375 54.828125 13.0625 64.515625 
Q 19.53125 74.21875 31.78125 74.21875 
z
" id="DejaVuSans-48"/>
      </defs>
      <g transform="translate(134.51875 266.598437)scale(0.1 -0.1)">
       <use xlink:href="#DejaVuSans-48"/>
      </g>
     </g>
    </g>
    <g id="xtick_2">
     <g id="line2d_2">
      <g>
       <use style="stroke:#000000;stroke-width:0.8;" x="305.1" xlink:href="#m0932df91c9" y="252"/>
      </g>
     </g>
     <g id="text_2">
      <!-- 1 -->
      <defs>
       <path d="M 12.40625 8.296875 
L 28.515625 8.296875 
L 28.515625 63.921875 
L 10.984375 60.40625 
L 10.984375 69.390625 
L 28.421875 72.90625 
L 38.28125 72.90625 
L 38.28125 8.296875 
L 54.390625 8.296875 
L 54.390625 0 
L 12.40625 0 
z
" id="DejaVuSans-49"/>
      </defs>
      <g transform="translate(301.91875 266.598437)scale(0.1 -0.1)">
       <use xlink:href="#DejaVuSans-49"/>
      </g>
     </g>
    </g>
    <g id="text_3">
     <!-- Not Suicide(0)/Suicide(1) -->
     <defs>
      <path d="M 9.8125 72.90625 
L 23.09375 72.90625 
L 55.421875 11.921875 
L 55.421875 72.90625 
L 64.984375 72.90625 
L 64.984375 0 
L 51.703125 0 
L 19.390625 60.984375 
L 19.390625 0 
L 9.8125 0 
z
" id="DejaVuSans-78"/>
      <path d="M 30.609375 48.390625 
Q 23.390625 48.390625 19.1875 42.75 
Q 14.984375 37.109375 14.984375 27.296875 
Q 14.984375 17.484375 19.15625 11.84375 
Q 23.34375 6.203125 30.609375 6.203125 
Q 37.796875 6.203125 41.984375 11.859375 
Q 46.1875 17.53125 46.1875 27.296875 
Q 46.1875 37.015625 41.984375 42.703125 
Q 37.796875 48.390625 30.609375 48.390625 
z
M 30.609375 56 
Q 42.328125 56 49.015625 48.375 
Q 55.71875 40.765625 55.71875 27.296875 
Q 55.71875 13.875 49.015625 6.21875 
Q 42.328125 -1.421875 30.609375 -1.421875 
Q 18.84375 -1.421875 12.171875 6.21875 
Q 5.515625 13.875 5.515625 27.296875 
Q 5.515625 40.765625 12.171875 48.375 
Q 18.84375 56 30.609375 56 
z
" id="DejaVuSans-111"/>
      <path d="M 18.3125 70.21875 
L 18.3125 54.6875 
L 36.8125 54.6875 
L 36.8125 47.703125 
L 18.3125 47.703125 
L 18.3125 18.015625 
Q 18.3125 11.328125 20.140625 9.421875 
Q 21.96875 7.515625 27.59375 7.515625 
L 36.8125 7.515625 
L 36.8125 0 
L 27.59375 0 
Q 17.1875 0 13.234375 3.875 
Q 9.28125 7.765625 9.28125 18.015625 
L 9.28125 47.703125 
L 2.6875 47.703125 
L 2.6875 54.6875 
L 9.28125 54.6875 
L 9.28125 70.21875 
z
" id="DejaVuSans-116"/>
      <path id="DejaVuSans-32"/>
      <path d="M 53.515625 70.515625 
L 53.515625 60.890625 
Q 47.90625 63.578125 42.921875 64.890625 
Q 37.9375 66.21875 33.296875 66.21875 
Q 25.25 66.21875 20.875 63.09375 
Q 16.5 59.96875 16.5 54.203125 
Q 16.5 49.359375 19.40625 46.890625 
Q 22.3125 44.4375 30.421875 42.921875 
L 36.375 41.703125 
Q 47.40625 39.59375 52.65625 34.296875 
Q 57.90625 29 57.90625 20.125 
Q 57.90625 9.515625 50.796875 4.046875 
Q 43.703125 -1.421875 29.984375 -1.421875 
Q 24.8125 -1.421875 18.96875 -0.25 
Q 13.140625 0.921875 6.890625 3.21875 
L 6.890625 13.375 
Q 12.890625 10.015625 18.65625 8.296875 
Q 24.421875 6.59375 29.984375 6.59375 
Q 38.421875 6.59375 43.015625 9.90625 
Q 47.609375 13.234375 47.609375 19.390625 
Q 47.609375 24.75 44.3125 27.78125 
Q 41.015625 30.8125 33.5 32.328125 
L 27.484375 33.5 
Q 16.453125 35.6875 11.515625 40.375 
Q 6.59375 45.0625 6.59375 53.421875 
Q 6.59375 63.09375 13.40625 68.65625 
Q 20.21875 74.21875 32.171875 74.21875 
Q 37.3125 74.21875 42.625 73.28125 
Q 47.953125 72.359375 53.515625 70.515625 
z
" id="DejaVuSans-83"/>
      <path d="M 8.5 21.578125 
L 8.5 54.6875 
L 17.484375 54.6875 
L 17.484375 21.921875 
Q 17.484375 14.15625 20.5 10.265625 
Q 23.53125 6.390625 29.59375 6.390625 
Q 36.859375 6.390625 41.078125 11.03125 
Q 45.3125 15.671875 45.3125 23.6875 
L 45.3125 54.6875 
L 54.296875 54.6875 
L 54.296875 0 
L 45.3125 0 
L 45.3125 8.40625 
Q 42.046875 3.421875 37.71875 1 
Q 33.40625 -1.421875 27.6875 -1.421875 
Q 18.265625 -1.421875 13.375 4.4375 
Q 8.5 10.296875 8.5 21.578125 
z
M 31.109375 56 
z
" id="DejaVuSans-117"/>
      <path d="M 9.421875 54.6875 
L 18.40625 54.6875 
L 18.40625 0 
L 9.421875 0 
z
M 9.421875 75.984375 
L 18.40625 75.984375 
L 18.40625 64.59375 
L 9.421875 64.59375 
z
" id="DejaVuSans-105"/>
      <path d="M 48.78125 52.59375 
L 48.78125 44.1875 
Q 44.96875 46.296875 41.140625 47.34375 
Q 37.3125 48.390625 33.40625 48.390625 
Q 24.65625 48.390625 19.8125 42.84375 
Q 14.984375 37.3125 14.984375 27.296875 
Q 14.984375 17.28125 19.8125 11.734375 
Q 24.65625 6.203125 33.40625 6.203125 
Q 37.3125 6.203125 41.140625 7.25 
Q 44.96875 8.296875 48.78125 10.40625 
L 48.78125 2.09375 
Q 45.015625 0.34375 40.984375 -0.53125 
Q 36.96875 -1.421875 32.421875 -1.421875 
Q 20.0625 -1.421875 12.78125 6.34375 
Q 5.515625 14.109375 5.515625 27.296875 
Q 5.515625 40.671875 12.859375 48.328125 
Q 20.21875 56 33.015625 56 
Q 37.15625 56 41.109375 55.140625 
Q 45.0625 54.296875 48.78125 52.59375 
z
" id="DejaVuSans-99"/>
      <path d="M 45.40625 46.390625 
L 45.40625 75.984375 
L 54.390625 75.984375 
L 54.390625 0 
L 45.40625 0 
L 45.40625 8.203125 
Q 42.578125 3.328125 38.25 0.953125 
Q 33.9375 -1.421875 27.875 -1.421875 
Q 17.96875 -1.421875 11.734375 6.484375 
Q 5.515625 14.40625 5.515625 27.296875 
Q 5.515625 40.1875 11.734375 48.09375 
Q 17.96875 56 27.875 56 
Q 33.9375 56 38.25 53.625 
Q 42.578125 51.265625 45.40625 46.390625 
z
M 14.796875 27.296875 
Q 14.796875 17.390625 18.875 11.75 
Q 22.953125 6.109375 30.078125 6.109375 
Q 37.203125 6.109375 41.296875 11.75 
Q 45.40625 17.390625 45.40625 27.296875 
Q 45.40625 37.203125 41.296875 42.84375 
Q 37.203125 48.484375 30.078125 48.484375 
Q 22.953125 48.484375 18.875 42.84375 
Q 14.796875 37.203125 14.796875 27.296875 
z
" id="DejaVuSans-100"/>
      <path d="M 56.203125 29.59375 
L 56.203125 25.203125 
L 14.890625 25.203125 
Q 15.484375 15.921875 20.484375 11.0625 
Q 25.484375 6.203125 34.421875 6.203125 
Q 39.59375 6.203125 44.453125 7.46875 
Q 49.3125 8.734375 54.109375 11.28125 
L 54.109375 2.78125 
Q 49.265625 0.734375 44.1875 -0.34375 
Q 39.109375 -1.421875 33.890625 -1.421875 
Q 20.796875 -1.421875 13.15625 6.1875 
Q 5.515625 13.8125 5.515625 26.8125 
Q 5.515625 40.234375 12.765625 48.109375 
Q 20.015625 56 32.328125 56 
Q 43.359375 56 49.78125 48.890625 
Q 56.203125 41.796875 56.203125 29.59375 
z
M 47.21875 32.234375 
Q 47.125 39.59375 43.09375 43.984375 
Q 39.0625 48.390625 32.421875 48.390625 
Q 24.90625 48.390625 20.390625 44.140625 
Q 15.875 39.890625 15.1875 32.171875 
z
" id="DejaVuSans-101"/>
      <path d="M 31 75.875 
Q 24.46875 64.65625 21.28125 53.65625 
Q 18.109375 42.671875 18.109375 31.390625 
Q 18.109375 20.125 21.3125 9.0625 
Q 24.515625 -2 31 -13.1875 
L 23.1875 -13.1875 
Q 15.875 -1.703125 12.234375 9.375 
Q 8.59375 20.453125 8.59375 31.390625 
Q 8.59375 42.28125 12.203125 53.3125 
Q 15.828125 64.359375 23.1875 75.875 
z
" id="DejaVuSans-40"/>
      <path d="M 8.015625 75.875 
L 15.828125 75.875 
Q 23.140625 64.359375 26.78125 53.3125 
Q 30.421875 42.28125 30.421875 31.390625 
Q 30.421875 20.453125 26.78125 9.375 
Q 23.140625 -1.703125 15.828125 -13.1875 
L 8.015625 -13.1875 
Q 14.5 -2 17.703125 9.0625 
Q 20.90625 20.125 20.90625 31.390625 
Q 20.90625 42.671875 17.703125 53.65625 
Q 14.5 64.65625 8.015625 75.875 
z
" id="DejaVuSans-41"/>
      <path d="M 25.390625 72.90625 
L 33.6875 72.90625 
L 8.296875 -9.28125 
L 0 -9.28125 
z
" id="DejaVuSans-47"/>
     </defs>
     <g transform="translate(158.958594 280.276563)scale(0.1 -0.1)">
      <use xlink:href="#DejaVuSans-78"/>
      <use x="74.804688" xlink:href="#DejaVuSans-111"/>
      <use x="135.986328" xlink:href="#DejaVuSans-116"/>
      <use x="175.195312" xlink:href="#DejaVuSans-32"/>
      <use x="206.982422" xlink:href="#DejaVuSans-83"/>
      <use x="270.458984" xlink:href="#DejaVuSans-117"/>
      <use x="333.837891" xlink:href="#DejaVuSans-105"/>
      <use x="361.621094" xlink:href="#DejaVuSans-99"/>
      <use x="416.601562" xlink:href="#DejaVuSans-105"/>
      <use x="444.384766" xlink:href="#DejaVuSans-100"/>
      <use x="507.861328" xlink:href="#DejaVuSans-101"/>
      <use x="569.384766" xlink:href="#DejaVuSans-40"/>
      <use x="608.398438" xlink:href="#DejaVuSans-48"/>
      <use x="672.021484" xlink:href="#DejaVuSans-41"/>
      <use x="711.035156" xlink:href="#DejaVuSans-47"/>
      <use x="744.726562" xlink:href="#DejaVuSans-83"/>
      <use x="808.203125" xlink:href="#DejaVuSans-117"/>
      <use x="871.582031" xlink:href="#DejaVuSans-105"/>
      <use x="899.365234" xlink:href="#DejaVuSans-99"/>
      <use x="954.345703" xlink:href="#DejaVuSans-105"/>
      <use x="982.128906" xlink:href="#DejaVuSans-100"/>
      <use x="1045.605469" xlink:href="#DejaVuSans-101"/>
      <use x="1107.128906" xlink:href="#DejaVuSans-40"/>
      <use x="1146.142578" xlink:href="#DejaVuSans-49"/>
      <use x="1209.765625" xlink:href="#DejaVuSans-41"/>
     </g>
    </g>
   </g>
   <g id="matplotlib.axis_2">
    <g id="ytick_1">
     <g id="line2d_3">
      <defs>
       <path d="M 0 0 
L -3.5 0 
" id="ma425a49cf8" style="stroke:#000000;stroke-width:0.8;"/>
      </defs>
      <g>
       <use style="stroke:#000000;stroke-width:0.8;" x="54" xlink:href="#ma425a49cf8" y="252"/>
      </g>
     </g>
     <g id="text_4">
      <!-- 0 -->
      <g transform="translate(40.6375 255.799219)scale(0.1 -0.1)">
       <use xlink:href="#DejaVuSans-48"/>
      </g>
     </g>
    </g>
    <g id="ytick_2">
     <g id="line2d_4">
      <g>
       <use style="stroke:#000000;stroke-width:0.8;" x="54" xlink:href="#ma425a49cf8" y="227.636975"/>
      </g>
     </g>
     <g id="text_5">
      <!-- 2 -->
      <defs>
       <path d="M 19.1875 8.296875 
L 53.609375 8.296875 
L 53.609375 0 
L 7.328125 0 
L 7.328125 8.296875 
Q 12.9375 14.109375 22.625 23.890625 
Q 32.328125 33.6875 34.8125 36.53125 
Q 39.546875 41.84375 41.421875 45.53125 
Q 43.3125 49.21875 43.3125 52.78125 
Q 43.3125 58.59375 39.234375 62.25 
Q 35.15625 65.921875 28.609375 65.921875 
Q 23.96875 65.921875 18.8125 64.3125 
Q 13.671875 62.703125 7.8125 59.421875 
L 7.8125 69.390625 
Q 13.765625 71.78125 18.9375 73 
Q 24.125 74.21875 28.421875 74.21875 
Q 39.75 74.21875 46.484375 68.546875 
Q 53.21875 62.890625 53.21875 53.421875 
Q 53.21875 48.921875 51.53125 44.890625 
Q 49.859375 40.875 45.40625 35.40625 
Q 44.1875 33.984375 37.640625 27.21875 
Q 31.109375 20.453125 19.1875 8.296875 
z
" id="DejaVuSans-50"/>
      </defs>
      <g transform="translate(40.6375 231.436194)scale(0.1 -0.1)">
       <use xlink:href="#DejaVuSans-50"/>
      </g>
     </g>
    </g>
    <g id="ytick_3">
     <g id="line2d_5">
      <g>
       <use style="stroke:#000000;stroke-width:0.8;" x="54" xlink:href="#ma425a49cf8" y="203.27395"/>
      </g>
     </g>
     <g id="text_6">
      <!-- 4 -->
      <defs>
       <path d="M 37.796875 64.3125 
L 12.890625 25.390625 
L 37.796875 25.390625 
z
M 35.203125 72.90625 
L 47.609375 72.90625 
L 47.609375 25.390625 
L 58.015625 25.390625 
L 58.015625 17.1875 
L 47.609375 17.1875 
L 47.609375 0 
L 37.796875 0 
L 37.796875 17.1875 
L 4.890625 17.1875 
L 4.890625 26.703125 
z
" id="DejaVuSans-52"/>
      </defs>
      <g transform="translate(40.6375 207.073168)scale(0.1 -0.1)">
       <use xlink:href="#DejaVuSans-52"/>
      </g>
     </g>
    </g>
    <g id="ytick_4">
     <g id="line2d_6">
      <g>
       <use style="stroke:#000000;stroke-width:0.8;" x="54" xlink:href="#ma425a49cf8" y="178.910924"/>
      </g>
     </g>
     <g id="text_7">
      <!-- 6 -->
      <defs>
       <path d="M 33.015625 40.375 
Q 26.375 40.375 22.484375 35.828125 
Q 18.609375 31.296875 18.609375 23.390625 
Q 18.609375 15.53125 22.484375 10.953125 
Q 26.375 6.390625 33.015625 6.390625 
Q 39.65625 6.390625 43.53125 10.953125 
Q 47.40625 15.53125 47.40625 23.390625 
Q 47.40625 31.296875 43.53125 35.828125 
Q 39.65625 40.375 33.015625 40.375 
z
M 52.59375 71.296875 
L 52.59375 62.3125 
Q 48.875 64.0625 45.09375 64.984375 
Q 41.3125 65.921875 37.59375 65.921875 
Q 27.828125 65.921875 22.671875 59.328125 
Q 17.53125 52.734375 16.796875 39.40625 
Q 19.671875 43.65625 24.015625 45.921875 
Q 28.375 48.1875 33.59375 48.1875 
Q 44.578125 48.1875 50.953125 41.515625 
Q 57.328125 34.859375 57.328125 23.390625 
Q 57.328125 12.15625 50.6875 5.359375 
Q 44.046875 -1.421875 33.015625 -1.421875 
Q 20.359375 -1.421875 13.671875 8.265625 
Q 6.984375 17.96875 6.984375 36.375 
Q 6.984375 53.65625 15.1875 63.9375 
Q 23.390625 74.21875 37.203125 74.21875 
Q 40.921875 74.21875 44.703125 73.484375 
Q 48.484375 72.75 52.59375 71.296875 
z
" id="DejaVuSans-54"/>
      </defs>
      <g transform="translate(40.6375 182.710143)scale(0.1 -0.1)">
       <use xlink:href="#DejaVuSans-54"/>
      </g>
     </g>
    </g>
    <g id="ytick_5">
     <g id="line2d_7">
      <g>
       <use style="stroke:#000000;stroke-width:0.8;" x="54" xlink:href="#ma425a49cf8" y="154.547899"/>
      </g>
     </g>
     <g id="text_8">
      <!-- 8 -->
      <defs>
       <path d="M 31.78125 34.625 
Q 24.75 34.625 20.71875 30.859375 
Q 16.703125 27.09375 16.703125 20.515625 
Q 16.703125 13.921875 20.71875 10.15625 
Q 24.75 6.390625 31.78125 6.390625 
Q 38.8125 6.390625 42.859375 10.171875 
Q 46.921875 13.96875 46.921875 20.515625 
Q 46.921875 27.09375 42.890625 30.859375 
Q 38.875 34.625 31.78125 34.625 
z
M 21.921875 38.8125 
Q 15.578125 40.375 12.03125 44.71875 
Q 8.5 49.078125 8.5 55.328125 
Q 8.5 64.0625 14.71875 69.140625 
Q 20.953125 74.21875 31.78125 74.21875 
Q 42.671875 74.21875 48.875 69.140625 
Q 55.078125 64.0625 55.078125 55.328125 
Q 55.078125 49.078125 51.53125 44.71875 
Q 48 40.375 41.703125 38.8125 
Q 48.828125 37.15625 52.796875 32.3125 
Q 56.78125 27.484375 56.78125 20.515625 
Q 56.78125 9.90625 50.3125 4.234375 
Q 43.84375 -1.421875 31.78125 -1.421875 
Q 19.734375 -1.421875 13.25 4.234375 
Q 6.78125 9.90625 6.78125 20.515625 
Q 6.78125 27.484375 10.78125 32.3125 
Q 14.796875 37.15625 21.921875 38.8125 
z
M 18.3125 54.390625 
Q 18.3125 48.734375 21.84375 45.5625 
Q 25.390625 42.390625 31.78125 42.390625 
Q 38.140625 42.390625 41.71875 45.5625 
Q 45.3125 48.734375 45.3125 54.390625 
Q 45.3125 60.0625 41.71875 63.234375 
Q 38.140625 66.40625 31.78125 66.40625 
Q 25.390625 66.40625 21.84375 63.234375 
Q 18.3125 60.0625 18.3125 54.390625 
z
" id="DejaVuSans-56"/>
      </defs>
      <g transform="translate(40.6375 158.347118)scale(0.1 -0.1)">
       <use xlink:href="#DejaVuSans-56"/>
      </g>
     </g>
    </g>
    <g id="ytick_6">
     <g id="line2d_8">
      <g>
       <use style="stroke:#000000;stroke-width:0.8;" x="54" xlink:href="#ma425a49cf8" y="130.184874"/>
      </g>
     </g>
     <g id="text_9">
      <!-- 10 -->
      <g transform="translate(34.275 133.984093)scale(0.1 -0.1)">
       <use xlink:href="#DejaVuSans-49"/>
       <use x="63.623047" xlink:href="#DejaVuSans-48"/>
      </g>
     </g>
    </g>
    <g id="ytick_7">
     <g id="line2d_9">
      <g>
       <use style="stroke:#000000;stroke-width:0.8;" x="54" xlink:href="#ma425a49cf8" y="105.821849"/>
      </g>
     </g>
     <g id="text_10">
      <!-- 12 -->
      <g transform="translate(34.275 109.621067)scale(0.1 -0.1)">
       <use xlink:href="#DejaVuSans-49"/>
       <use x="63.623047" xlink:href="#DejaVuSans-50"/>
      </g>
     </g>
    </g>
    <g id="ytick_8">
     <g id="line2d_10">
      <g>
       <use style="stroke:#000000;stroke-width:0.8;" x="54" xlink:href="#ma425a49cf8" y="81.458824"/>
      </g>
     </g>
     <g id="text_11">
      <!-- 14 -->
      <g transform="translate(34.275 85.258042)scale(0.1 -0.1)">
       <use xlink:href="#DejaVuSans-49"/>
       <use x="63.623047" xlink:href="#DejaVuSans-52"/>
      </g>
     </g>
    </g>
    <g id="ytick_9">
     <g id="line2d_11">
      <g>
       <use style="stroke:#000000;stroke-width:0.8;" x="54" xlink:href="#ma425a49cf8" y="57.095798"/>
      </g>
     </g>
     <g id="text_12">
      <!-- 16 -->
      <g transform="translate(34.275 60.895017)scale(0.1 -0.1)">
       <use xlink:href="#DejaVuSans-49"/>
       <use x="63.623047" xlink:href="#DejaVuSans-54"/>
      </g>
     </g>
    </g>
    <g id="text_13">
     <!-- count -->
     <defs>
      <path d="M 54.890625 33.015625 
L 54.890625 0 
L 45.90625 0 
L 45.90625 32.71875 
Q 45.90625 40.484375 42.875 44.328125 
Q 39.84375 48.1875 33.796875 48.1875 
Q 26.515625 48.1875 22.3125 43.546875 
Q 18.109375 38.921875 18.109375 30.90625 
L 18.109375 0 
L 9.078125 0 
L 9.078125 54.6875 
L 18.109375 54.6875 
L 18.109375 46.1875 
Q 21.34375 51.125 25.703125 53.5625 
Q 30.078125 56 35.796875 56 
Q 45.21875 56 50.046875 50.171875 
Q 54.890625 44.34375 54.890625 33.015625 
z
" id="DejaVuSans-110"/>
     </defs>
     <g transform="translate(28.195312 157.38625)rotate(-90)scale(0.1 -0.1)">
      <use xlink:href="#DejaVuSans-99"/>
      <use x="54.980469" xlink:href="#DejaVuSans-111"/>
      <use x="116.162109" xlink:href="#DejaVuSans-117"/>
      <use x="179.541016" xlink:href="#DejaVuSans-110"/>
      <use x="242.919922" xlink:href="#DejaVuSans-116"/>
     </g>
    </g>
   </g>
   <g id="patch_179">
    <path d="M 54 252 
L 54 34.56 
" style="fill:none;stroke:#000000;stroke-linecap:square;stroke-linejoin:miter;stroke-width:0.8;"/>
   </g>
   <g id="patch_180">
    <path d="M 388.8 252 
L 388.8 34.56 
" style="fill:none;stroke:#000000;stroke-linecap:square;stroke-linejoin:miter;stroke-width:0.8;"/>
   </g>
   <g id="patch_181">
    <path d="M 54 252 
L 388.8 252 
" style="fill:none;stroke:#000000;stroke-linecap:square;stroke-linejoin:miter;stroke-width:0.8;"/>
   </g>
   <g id="patch_182">
    <path d="M 54 34.56 
L 388.8 34.56 
" style="fill:none;stroke:#000000;stroke-linecap:square;stroke-linejoin:miter;stroke-width:0.8;"/>
   </g>
   <g id="legend_1">
    <g id="patch_183">
     <path d="M 199.0375 247 
L 243.7625 247 
Q 245.7625 247 245.7625 245 
L 245.7625 -1060.353125 
Q 245.7625 -1062.353125 243.7625 -1062.353125 
L 199.0375 -1062.353125 
Q 197.0375 -1062.353125 197.0375 -1060.353125 
L 197.0375 245 
Q 197.0375 247 199.0375 247 
z
" style="fill:#ffffff;opacity:0.8;stroke:#cccccc;stroke-linejoin:miter;"/>
    </g>
    <g id="text_14">
     <!-- Age -->
     <defs>
      <path d="M 34.1875 63.1875 
L 20.796875 26.90625 
L 47.609375 26.90625 
z
M 28.609375 72.90625 
L 39.796875 72.90625 
L 67.578125 0 
L 57.328125 0 
L 50.6875 18.703125 
L 17.828125 18.703125 
L 11.1875 0 
L 0.78125 0 
z
" id="DejaVuSans-65"/>
      <path d="M 45.40625 27.984375 
Q 45.40625 37.75 41.375 43.109375 
Q 37.359375 48.484375 30.078125 48.484375 
Q 22.859375 48.484375 18.828125 43.109375 
Q 14.796875 37.75 14.796875 27.984375 
Q 14.796875 18.265625 18.828125 12.890625 
Q 22.859375 7.515625 30.078125 7.515625 
Q 37.359375 7.515625 41.375 12.890625 
Q 45.40625 18.265625 45.40625 27.984375 
z
M 54.390625 6.78125 
Q 54.390625 -7.171875 48.1875 -13.984375 
Q 42 -20.796875 29.203125 -20.796875 
Q 24.46875 -20.796875 20.265625 -20.09375 
Q 16.0625 -19.390625 12.109375 -17.921875 
L 12.109375 -9.1875 
Q 16.0625 -11.328125 19.921875 -12.34375 
Q 23.78125 -13.375 27.78125 -13.375 
Q 36.625 -13.375 41.015625 -8.765625 
Q 45.40625 -4.15625 45.40625 5.171875 
L 45.40625 9.625 
Q 42.625 4.78125 38.28125 2.390625 
Q 33.9375 0 27.875 0 
Q 17.828125 0 11.671875 7.65625 
Q 5.515625 15.328125 5.515625 27.984375 
Q 5.515625 40.671875 11.671875 48.328125 
Q 17.828125 56 27.875 56 
Q 33.9375 56 38.28125 53.609375 
Q 42.625 51.21875 45.40625 46.390625 
L 45.40625 54.6875 
L 54.390625 54.6875 
z
" id="DejaVuSans-103"/>
     </defs>
     <g transform="translate(211.728906 -1050.754687)scale(0.1 -0.1)">
      <use xlink:href="#DejaVuSans-65"/>
      <use x="68.408203" xlink:href="#DejaVuSans-103"/>
      <use x="131.884766" xlink:href="#DejaVuSans-101"/>
     </g>
    </g>
    <g id="patch_184">
     <path d="M 201.0375 -1036.076562 
L 221.0375 -1036.076562 
L 221.0375 -1043.076562 
L 201.0375 -1043.076562 
z
" style="fill:#ea96a3;"/>
    </g>
    <g id="text_15">
     <!-- 10 -->
     <g transform="translate(229.0375 -1036.076562)scale(0.1 -0.1)">
      <use xlink:href="#DejaVuSans-49"/>
      <use x="63.623047" xlink:href="#DejaVuSans-48"/>
     </g>
    </g>
    <g id="patch_185">
     <path d="M 201.0375 -1021.398437 
L 221.0375 -1021.398437 
L 221.0375 -1028.398437 
L 201.0375 -1028.398437 
z
" style="fill:#ea969e;"/>
    </g>
    <g id="text_16">
     <!-- 12 -->
     <g transform="translate(229.0375 -1021.398437)scale(0.1 -0.1)">
      <use xlink:href="#DejaVuSans-49"/>
      <use x="63.623047" xlink:href="#DejaVuSans-50"/>
     </g>
    </g>
    <g id="patch_186">
     <path d="M 201.0375 -1006.720312 
L 221.0375 -1006.720312 
L 221.0375 -1013.720312 
L 201.0375 -1013.720312 
z
" style="fill:#ea9798;"/>
    </g>
    <g id="text_17">
     <!-- 13 -->
     <defs>
      <path d="M 40.578125 39.3125 
Q 47.65625 37.796875 51.625 33 
Q 55.609375 28.21875 55.609375 21.1875 
Q 55.609375 10.40625 48.1875 4.484375 
Q 40.765625 -1.421875 27.09375 -1.421875 
Q 22.515625 -1.421875 17.65625 -0.515625 
Q 12.796875 0.390625 7.625 2.203125 
L 7.625 11.71875 
Q 11.71875 9.328125 16.59375 8.109375 
Q 21.484375 6.890625 26.8125 6.890625 
Q 36.078125 6.890625 40.9375 10.546875 
Q 45.796875 14.203125 45.796875 21.1875 
Q 45.796875 27.640625 41.28125 31.265625 
Q 36.765625 34.90625 28.71875 34.90625 
L 20.21875 34.90625 
L 20.21875 43.015625 
L 29.109375 43.015625 
Q 36.375 43.015625 40.234375 45.921875 
Q 44.09375 48.828125 44.09375 54.296875 
Q 44.09375 59.90625 40.109375 62.90625 
Q 36.140625 65.921875 28.71875 65.921875 
Q 24.65625 65.921875 20.015625 65.03125 
Q 15.375 64.15625 9.8125 62.3125 
L 9.8125 71.09375 
Q 15.4375 72.65625 20.34375 73.4375 
Q 25.25 74.21875 29.59375 74.21875 
Q 40.828125 74.21875 47.359375 69.109375 
Q 53.90625 64.015625 53.90625 55.328125 
Q 53.90625 49.265625 50.4375 45.09375 
Q 46.96875 40.921875 40.578125 39.3125 
z
" id="DejaVuSans-51"/>
     </defs>
     <g transform="translate(229.0375 -1006.720312)scale(0.1 -0.1)">
      <use xlink:href="#DejaVuSans-49"/>
      <use x="63.623047" xlink:href="#DejaVuSans-51"/>
     </g>
    </g>
    <g id="patch_187">
     <path d="M 201.0375 -992.042187 
L 221.0375 -992.042187 
L 221.0375 -999.042187 
L 201.0375 -999.042187 
z
" style="fill:#e99790;"/>
    </g>
    <g id="text_18">
     <!-- 14 -->
     <g transform="translate(229.0375 -992.042187)scale(0.1 -0.1)">
      <use xlink:href="#DejaVuSans-49"/>
      <use x="63.623047" xlink:href="#DejaVuSans-52"/>
     </g>
    </g>
    <g id="patch_188">
     <path d="M 201.0375 -977.364062 
L 221.0375 -977.364062 
L 221.0375 -984.364062 
L 201.0375 -984.364062 
z
" style="fill:#e89687;"/>
    </g>
    <g id="text_19">
     <!-- 15 -->
     <defs>
      <path d="M 10.796875 72.90625 
L 49.515625 72.90625 
L 49.515625 64.59375 
L 19.828125 64.59375 
L 19.828125 46.734375 
Q 21.96875 47.46875 24.109375 47.828125 
Q 26.265625 48.1875 28.421875 48.1875 
Q 40.625 48.1875 47.75 41.5 
Q 54.890625 34.8125 54.890625 23.390625 
Q 54.890625 11.625 47.5625 5.09375 
Q 40.234375 -1.421875 26.90625 -1.421875 
Q 22.3125 -1.421875 17.546875 -0.640625 
Q 12.796875 0.140625 7.71875 1.703125 
L 7.71875 11.625 
Q 12.109375 9.234375 16.796875 8.0625 
Q 21.484375 6.890625 26.703125 6.890625 
Q 35.15625 6.890625 40.078125 11.328125 
Q 45.015625 15.765625 45.015625 23.390625 
Q 45.015625 31 40.078125 35.4375 
Q 35.15625 39.890625 26.703125 39.890625 
Q 22.75 39.890625 18.8125 39.015625 
Q 14.890625 38.140625 10.796875 36.28125 
z
" id="DejaVuSans-53"/>
     </defs>
     <g transform="translate(229.0375 -977.364062)scale(0.1 -0.1)">
      <use xlink:href="#DejaVuSans-49"/>
      <use x="63.623047" xlink:href="#DejaVuSans-53"/>
     </g>
    </g>
    <g id="patch_189">
     <path d="M 201.0375 -962.685937 
L 221.0375 -962.685937 
L 221.0375 -969.685937 
L 201.0375 -969.685937 
z
" style="fill:#e6957c;"/>
    </g>
    <g id="text_20">
     <!-- 16 -->
     <g transform="translate(229.0375 -962.685937)scale(0.1 -0.1)">
      <use xlink:href="#DejaVuSans-49"/>
      <use x="63.623047" xlink:href="#DejaVuSans-54"/>
     </g>
    </g>
    <g id="patch_190">
     <path d="M 201.0375 -948.007812 
L 221.0375 -948.007812 
L 221.0375 -955.007812 
L 201.0375 -955.007812 
z
" style="fill:#e5946f;"/>
    </g>
    <g id="text_21">
     <!-- 17 -->
     <defs>
      <path d="M 8.203125 72.90625 
L 55.078125 72.90625 
L 55.078125 68.703125 
L 28.609375 0 
L 18.3125 0 
L 43.21875 64.59375 
L 8.203125 64.59375 
z
" id="DejaVuSans-55"/>
     </defs>
     <g transform="translate(229.0375 -948.007812)scale(0.1 -0.1)">
      <use xlink:href="#DejaVuSans-49"/>
      <use x="63.623047" xlink:href="#DejaVuSans-55"/>
     </g>
    </g>
    <g id="patch_191">
     <path d="M 201.0375 -933.329687 
L 221.0375 -933.329687 
L 221.0375 -940.329687 
L 201.0375 -940.329687 
z
" style="fill:#e2925b;"/>
    </g>
    <g id="text_22">
     <!-- 18 -->
     <g transform="translate(229.0375 -933.329687)scale(0.1 -0.1)">
      <use xlink:href="#DejaVuSans-49"/>
      <use x="63.623047" xlink:href="#DejaVuSans-56"/>
     </g>
    </g>
    <g id="patch_192">
     <path d="M 201.0375 -918.651562 
L 221.0375 -918.651562 
L 221.0375 -925.651562 
L 201.0375 -925.651562 
z
" style="fill:#dc924e;"/>
    </g>
    <g id="text_23">
     <!-- 19 -->
     <defs>
      <path d="M 10.984375 1.515625 
L 10.984375 10.5 
Q 14.703125 8.734375 18.5 7.8125 
Q 22.3125 6.890625 25.984375 6.890625 
Q 35.75 6.890625 40.890625 13.453125 
Q 46.046875 20.015625 46.78125 33.40625 
Q 43.953125 29.203125 39.59375 26.953125 
Q 35.25 24.703125 29.984375 24.703125 
Q 19.046875 24.703125 12.671875 31.3125 
Q 6.296875 37.9375 6.296875 49.421875 
Q 6.296875 60.640625 12.9375 67.421875 
Q 19.578125 74.21875 30.609375 74.21875 
Q 43.265625 74.21875 49.921875 64.515625 
Q 56.59375 54.828125 56.59375 36.375 
Q 56.59375 19.140625 48.40625 8.859375 
Q 40.234375 -1.421875 26.421875 -1.421875 
Q 22.703125 -1.421875 18.890625 -0.6875 
Q 15.09375 0.046875 10.984375 1.515625 
z
M 30.609375 32.421875 
Q 37.25 32.421875 41.125 36.953125 
Q 45.015625 41.5 45.015625 49.421875 
Q 45.015625 57.28125 41.125 61.84375 
Q 37.25 66.40625 30.609375 66.40625 
Q 23.96875 66.40625 20.09375 61.84375 
Q 16.21875 57.28125 16.21875 49.421875 
Q 16.21875 41.5 20.09375 36.953125 
Q 23.96875 32.421875 30.609375 32.421875 
z
" id="DejaVuSans-57"/>
     </defs>
     <g transform="translate(229.0375 -918.651562)scale(0.1 -0.1)">
      <use xlink:href="#DejaVuSans-49"/>
      <use x="63.623047" xlink:href="#DejaVuSans-57"/>
     </g>
    </g>
    <g id="patch_193">
     <path d="M 201.0375 -903.973437 
L 221.0375 -903.973437 
L 221.0375 -910.973437 
L 201.0375 -910.973437 
z
" style="fill:#d6944d;"/>
    </g>
    <g id="text_24">
     <!-- 20 -->
     <g transform="translate(229.0375 -903.973437)scale(0.1 -0.1)">
      <use xlink:href="#DejaVuSans-50"/>
      <use x="63.623047" xlink:href="#DejaVuSans-48"/>
     </g>
    </g>
    <g id="patch_194">
     <path d="M 201.0375 -889.295312 
L 221.0375 -889.295312 
L 221.0375 -896.295312 
L 201.0375 -896.295312 
z
" style="fill:#d0964d;"/>
    </g>
    <g id="text_25">
     <!-- 21 -->
     <g transform="translate(229.0375 -889.295312)scale(0.1 -0.1)">
      <use xlink:href="#DejaVuSans-50"/>
      <use x="63.623047" xlink:href="#DejaVuSans-49"/>
     </g>
    </g>
    <g id="patch_195">
     <path d="M 201.0375 -874.617187 
L 221.0375 -874.617187 
L 221.0375 -881.617187 
L 201.0375 -881.617187 
z
" style="fill:#ca984c;"/>
    </g>
    <g id="text_26">
     <!-- 22 -->
     <g transform="translate(229.0375 -874.617187)scale(0.1 -0.1)">
      <use xlink:href="#DejaVuSans-50"/>
      <use x="63.623047" xlink:href="#DejaVuSans-50"/>
     </g>
    </g>
    <g id="patch_196">
     <path d="M 201.0375 -859.939062 
L 221.0375 -859.939062 
L 221.0375 -866.939062 
L 201.0375 -866.939062 
z
" style="fill:#c5994b;"/>
    </g>
    <g id="text_27">
     <!-- 23 -->
     <g transform="translate(229.0375 -859.939062)scale(0.1 -0.1)">
      <use xlink:href="#DejaVuSans-50"/>
      <use x="63.623047" xlink:href="#DejaVuSans-51"/>
     </g>
    </g>
    <g id="patch_197">
     <path d="M 201.0375 -845.260937 
L 221.0375 -845.260937 
L 221.0375 -852.260937 
L 201.0375 -852.260937 
z
" style="fill:#c09a4a;"/>
    </g>
    <g id="text_28">
     <!-- 24 -->
     <g transform="translate(229.0375 -845.260937)scale(0.1 -0.1)">
      <use xlink:href="#DejaVuSans-50"/>
      <use x="63.623047" xlink:href="#DejaVuSans-52"/>
     </g>
    </g>
    <g id="patch_198">
     <path d="M 201.0375 -830.582812 
L 221.0375 -830.582812 
L 221.0375 -837.582812 
L 201.0375 -837.582812 
z
" style="fill:#bc9b4a;"/>
    </g>
    <g id="text_29">
     <!-- 25 -->
     <g transform="translate(229.0375 -830.582812)scale(0.1 -0.1)">
      <use xlink:href="#DejaVuSans-50"/>
      <use x="63.623047" xlink:href="#DejaVuSans-53"/>
     </g>
    </g>
    <g id="patch_199">
     <path d="M 201.0375 -815.904687 
L 221.0375 -815.904687 
L 221.0375 -822.904687 
L 201.0375 -822.904687 
z
" style="fill:#b79c49;"/>
    </g>
    <g id="text_30">
     <!-- 26 -->
     <g transform="translate(229.0375 -815.904687)scale(0.1 -0.1)">
      <use xlink:href="#DejaVuSans-50"/>
      <use x="63.623047" xlink:href="#DejaVuSans-54"/>
     </g>
    </g>
    <g id="patch_200">
     <path d="M 201.0375 -801.226562 
L 221.0375 -801.226562 
L 221.0375 -808.226562 
L 201.0375 -808.226562 
z
" style="fill:#b39d48;"/>
    </g>
    <g id="text_31">
     <!-- 27 -->
     <g transform="translate(229.0375 -801.226562)scale(0.1 -0.1)">
      <use xlink:href="#DejaVuSans-50"/>
      <use x="63.623047" xlink:href="#DejaVuSans-55"/>
     </g>
    </g>
    <g id="patch_201">
     <path d="M 201.0375 -786.548437 
L 221.0375 -786.548437 
L 221.0375 -793.548437 
L 201.0375 -793.548437 
z
" style="fill:#ae9d48;"/>
    </g>
    <g id="text_32">
     <!-- 28 -->
     <g transform="translate(229.0375 -786.548437)scale(0.1 -0.1)">
      <use xlink:href="#DejaVuSans-50"/>
      <use x="63.623047" xlink:href="#DejaVuSans-56"/>
     </g>
    </g>
    <g id="patch_202">
     <path d="M 201.0375 -771.870312 
L 221.0375 -771.870312 
L 221.0375 -778.870312 
L 201.0375 -778.870312 
z
" style="fill:#aa9e47;"/>
    </g>
    <g id="text_33">
     <!-- 29 -->
     <g transform="translate(229.0375 -771.870312)scale(0.1 -0.1)">
      <use xlink:href="#DejaVuSans-50"/>
      <use x="63.623047" xlink:href="#DejaVuSans-57"/>
     </g>
    </g>
    <g id="patch_203">
     <path d="M 201.0375 -757.192187 
L 221.0375 -757.192187 
L 221.0375 -764.192187 
L 201.0375 -764.192187 
z
" style="fill:#a59f46;"/>
    </g>
    <g id="text_34">
     <!-- 30 -->
     <g transform="translate(229.0375 -757.192187)scale(0.1 -0.1)">
      <use xlink:href="#DejaVuSans-51"/>
      <use x="63.623047" xlink:href="#DejaVuSans-48"/>
     </g>
    </g>
    <g id="patch_204">
     <path d="M 201.0375 -742.514062 
L 221.0375 -742.514062 
L 221.0375 -749.514062 
L 201.0375 -749.514062 
z
" style="fill:#a09f45;"/>
    </g>
    <g id="text_35">
     <!-- 31 -->
     <g transform="translate(229.0375 -742.514062)scale(0.1 -0.1)">
      <use xlink:href="#DejaVuSans-51"/>
      <use x="63.623047" xlink:href="#DejaVuSans-49"/>
     </g>
    </g>
    <g id="patch_205">
     <path d="M 201.0375 -727.835937 
L 221.0375 -727.835937 
L 221.0375 -734.835937 
L 201.0375 -734.835937 
z
" style="fill:#9ca145;"/>
    </g>
    <g id="text_36">
     <!-- 32 -->
     <g transform="translate(229.0375 -727.835937)scale(0.1 -0.1)">
      <use xlink:href="#DejaVuSans-51"/>
      <use x="63.623047" xlink:href="#DejaVuSans-50"/>
     </g>
    </g>
    <g id="patch_206">
     <path d="M 201.0375 -713.157812 
L 221.0375 -713.157812 
L 221.0375 -720.157812 
L 201.0375 -720.157812 
z
" style="fill:#98a246;"/>
    </g>
    <g id="text_37">
     <!-- 33 -->
     <g transform="translate(229.0375 -713.157812)scale(0.1 -0.1)">
      <use xlink:href="#DejaVuSans-51"/>
      <use x="63.623047" xlink:href="#DejaVuSans-51"/>
     </g>
    </g>
    <g id="patch_207">
     <path d="M 201.0375 -698.479687 
L 221.0375 -698.479687 
L 221.0375 -705.479687 
L 201.0375 -705.479687 
z
" style="fill:#93a446;"/>
    </g>
    <g id="text_38">
     <!-- 34 -->
     <g transform="translate(229.0375 -698.479687)scale(0.1 -0.1)">
      <use xlink:href="#DejaVuSans-51"/>
      <use x="63.623047" xlink:href="#DejaVuSans-52"/>
     </g>
    </g>
    <g id="patch_208">
     <path d="M 201.0375 -683.801562 
L 221.0375 -683.801562 
L 221.0375 -690.801562 
L 201.0375 -690.801562 
z
" style="fill:#8ea546;"/>
    </g>
    <g id="text_39">
     <!-- 35 -->
     <g transform="translate(229.0375 -683.801562)scale(0.1 -0.1)">
      <use xlink:href="#DejaVuSans-51"/>
      <use x="63.623047" xlink:href="#DejaVuSans-53"/>
     </g>
    </g>
    <g id="patch_209">
     <path d="M 201.0375 -669.123437 
L 221.0375 -669.123437 
L 221.0375 -676.123437 
L 201.0375 -676.123437 
z
" style="fill:#89a746;"/>
    </g>
    <g id="text_40">
     <!-- 36 -->
     <g transform="translate(229.0375 -669.123437)scale(0.1 -0.1)">
      <use xlink:href="#DejaVuSans-51"/>
      <use x="63.623047" xlink:href="#DejaVuSans-54"/>
     </g>
    </g>
    <g id="patch_210">
     <path d="M 201.0375 -654.445312 
L 221.0375 -654.445312 
L 221.0375 -661.445312 
L 201.0375 -661.445312 
z
" style="fill:#82a846;"/>
    </g>
    <g id="text_41">
     <!-- 37 -->
     <g transform="translate(229.0375 -654.445312)scale(0.1 -0.1)">
      <use xlink:href="#DejaVuSans-51"/>
      <use x="63.623047" xlink:href="#DejaVuSans-55"/>
     </g>
    </g>
    <g id="patch_211">
     <path d="M 201.0375 -639.767187 
L 221.0375 -639.767187 
L 221.0375 -646.767187 
L 201.0375 -646.767187 
z
" style="fill:#7aaa47;"/>
    </g>
    <g id="text_42">
     <!-- 38 -->
     <g transform="translate(229.0375 -639.767187)scale(0.1 -0.1)">
      <use xlink:href="#DejaVuSans-51"/>
      <use x="63.623047" xlink:href="#DejaVuSans-56"/>
     </g>
    </g>
    <g id="patch_212">
     <path d="M 201.0375 -625.089062 
L 221.0375 -625.089062 
L 221.0375 -632.089062 
L 201.0375 -632.089062 
z
" style="fill:#71ac47;"/>
    </g>
    <g id="text_43">
     <!-- 39 -->
     <g transform="translate(229.0375 -625.089062)scale(0.1 -0.1)">
      <use xlink:href="#DejaVuSans-51"/>
      <use x="63.623047" xlink:href="#DejaVuSans-57"/>
     </g>
    </g>
    <g id="patch_213">
     <path d="M 201.0375 -610.410937 
L 221.0375 -610.410937 
L 221.0375 -617.410937 
L 201.0375 -617.410937 
z
" style="fill:#65ae47;"/>
    </g>
    <g id="text_44">
     <!-- 40 -->
     <g transform="translate(229.0375 -610.410937)scale(0.1 -0.1)">
      <use xlink:href="#DejaVuSans-52"/>
      <use x="63.623047" xlink:href="#DejaVuSans-48"/>
     </g>
    </g>
    <g id="patch_214">
     <path d="M 201.0375 -595.732812 
L 221.0375 -595.732812 
L 221.0375 -602.732812 
L 201.0375 -602.732812 
z
" style="fill:#53b047;"/>
    </g>
    <g id="text_45">
     <!-- 41 -->
     <g transform="translate(229.0375 -595.732812)scale(0.1 -0.1)">
      <use xlink:href="#DejaVuSans-52"/>
      <use x="63.623047" xlink:href="#DejaVuSans-49"/>
     </g>
    </g>
    <g id="patch_215">
     <path d="M 201.0375 -581.054687 
L 221.0375 -581.054687 
L 221.0375 -588.054687 
L 201.0375 -588.054687 
z
" style="fill:#48b056;"/>
    </g>
    <g id="text_46">
     <!-- 42 -->
     <g transform="translate(229.0375 -581.054687)scale(0.1 -0.1)">
      <use xlink:href="#DejaVuSans-52"/>
      <use x="63.623047" xlink:href="#DejaVuSans-50"/>
     </g>
    </g>
    <g id="patch_216">
     <path d="M 201.0375 -566.376562 
L 221.0375 -566.376562 
L 221.0375 -573.376562 
L 201.0375 -573.376562 
z
" style="fill:#48b067;"/>
    </g>
    <g id="text_47">
     <!-- 43 -->
     <g transform="translate(229.0375 -566.376562)scale(0.1 -0.1)">
      <use xlink:href="#DejaVuSans-52"/>
      <use x="63.623047" xlink:href="#DejaVuSans-51"/>
     </g>
    </g>
    <g id="patch_217">
     <path d="M 201.0375 -551.698437 
L 221.0375 -551.698437 
L 221.0375 -558.698437 
L 201.0375 -558.698437 
z
" style="fill:#49af72;"/>
    </g>
    <g id="text_48">
     <!-- 44 -->
     <g transform="translate(229.0375 -551.698437)scale(0.1 -0.1)">
      <use xlink:href="#DejaVuSans-52"/>
      <use x="63.623047" xlink:href="#DejaVuSans-52"/>
     </g>
    </g>
    <g id="patch_218">
     <path d="M 201.0375 -537.020312 
L 221.0375 -537.020312 
L 221.0375 -544.020312 
L 201.0375 -544.020312 
z
" style="fill:#49af7b;"/>
    </g>
    <g id="text_49">
     <!-- 45 -->
     <g transform="translate(229.0375 -537.020312)scale(0.1 -0.1)">
      <use xlink:href="#DejaVuSans-52"/>
      <use x="63.623047" xlink:href="#DejaVuSans-53"/>
     </g>
    </g>
    <g id="patch_219">
     <path d="M 201.0375 -522.342187 
L 221.0375 -522.342187 
L 221.0375 -529.342187 
L 201.0375 -529.342187 
z
" style="fill:#49ae81;"/>
    </g>
    <g id="text_50">
     <!-- 46 -->
     <g transform="translate(229.0375 -522.342187)scale(0.1 -0.1)">
      <use xlink:href="#DejaVuSans-52"/>
      <use x="63.623047" xlink:href="#DejaVuSans-54"/>
     </g>
    </g>
    <g id="patch_220">
     <path d="M 201.0375 -507.664062 
L 221.0375 -507.664062 
L 221.0375 -514.664062 
L 201.0375 -514.664062 
z
" style="fill:#49ae87;"/>
    </g>
    <g id="text_51">
     <!-- 47 -->
     <g transform="translate(229.0375 -507.664062)scale(0.1 -0.1)">
      <use xlink:href="#DejaVuSans-52"/>
      <use x="63.623047" xlink:href="#DejaVuSans-55"/>
     </g>
    </g>
    <g id="patch_221">
     <path d="M 201.0375 -492.985937 
L 221.0375 -492.985937 
L 221.0375 -499.985937 
L 201.0375 -499.985937 
z
" style="fill:#4aad8c;"/>
    </g>
    <g id="text_52">
     <!-- 48 -->
     <g transform="translate(229.0375 -492.985937)scale(0.1 -0.1)">
      <use xlink:href="#DejaVuSans-52"/>
      <use x="63.623047" xlink:href="#DejaVuSans-56"/>
     </g>
    </g>
    <g id="patch_222">
     <path d="M 201.0375 -478.307812 
L 221.0375 -478.307812 
L 221.0375 -485.307812 
L 201.0375 -485.307812 
z
" style="fill:#4aad90;"/>
    </g>
    <g id="text_53">
     <!-- 49 -->
     <g transform="translate(229.0375 -478.307812)scale(0.1 -0.1)">
      <use xlink:href="#DejaVuSans-52"/>
      <use x="63.623047" xlink:href="#DejaVuSans-57"/>
     </g>
    </g>
    <g id="patch_223">
     <path d="M 201.0375 -463.629687 
L 221.0375 -463.629687 
L 221.0375 -470.629687 
L 201.0375 -470.629687 
z
" style="fill:#4aad94;"/>
    </g>
    <g id="text_54">
     <!-- 50 -->
     <g transform="translate(229.0375 -463.629687)scale(0.1 -0.1)">
      <use xlink:href="#DejaVuSans-53"/>
      <use x="63.623047" xlink:href="#DejaVuSans-48"/>
     </g>
    </g>
    <g id="patch_224">
     <path d="M 201.0375 -448.951562 
L 221.0375 -448.951562 
L 221.0375 -455.951562 
L 201.0375 -455.951562 
z
" style="fill:#4aac98;"/>
    </g>
    <g id="text_55">
     <!-- 51 -->
     <g transform="translate(229.0375 -448.951562)scale(0.1 -0.1)">
      <use xlink:href="#DejaVuSans-53"/>
      <use x="63.623047" xlink:href="#DejaVuSans-49"/>
     </g>
    </g>
    <g id="patch_225">
     <path d="M 201.0375 -434.273437 
L 221.0375 -434.273437 
L 221.0375 -441.273437 
L 201.0375 -441.273437 
z
" style="fill:#4aac9b;"/>
    </g>
    <g id="text_56">
     <!-- 52 -->
     <g transform="translate(229.0375 -434.273437)scale(0.1 -0.1)">
      <use xlink:href="#DejaVuSans-53"/>
      <use x="63.623047" xlink:href="#DejaVuSans-50"/>
     </g>
    </g>
    <g id="patch_226">
     <path d="M 201.0375 -419.595312 
L 221.0375 -419.595312 
L 221.0375 -426.595312 
L 201.0375 -426.595312 
z
" style="fill:#4bac9e;"/>
    </g>
    <g id="text_57">
     <!-- 53 -->
     <g transform="translate(229.0375 -419.595312)scale(0.1 -0.1)">
      <use xlink:href="#DejaVuSans-53"/>
      <use x="63.623047" xlink:href="#DejaVuSans-51"/>
     </g>
    </g>
    <g id="patch_227">
     <path d="M 201.0375 -404.917187 
L 221.0375 -404.917187 
L 221.0375 -411.917187 
L 201.0375 -411.917187 
z
" style="fill:#4baba1;"/>
    </g>
    <g id="text_58">
     <!-- 54 -->
     <g transform="translate(229.0375 -404.917187)scale(0.1 -0.1)">
      <use xlink:href="#DejaVuSans-53"/>
      <use x="63.623047" xlink:href="#DejaVuSans-52"/>
     </g>
    </g>
    <g id="patch_228">
     <path d="M 201.0375 -390.239062 
L 221.0375 -390.239062 
L 221.0375 -397.239062 
L 201.0375 -397.239062 
z
" style="fill:#4baba4;"/>
    </g>
    <g id="text_59">
     <!-- 55 -->
     <g transform="translate(229.0375 -390.239062)scale(0.1 -0.1)">
      <use xlink:href="#DejaVuSans-53"/>
      <use x="63.623047" xlink:href="#DejaVuSans-53"/>
     </g>
    </g>
    <g id="patch_229">
     <path d="M 201.0375 -375.560937 
L 221.0375 -375.560937 
L 221.0375 -382.560937 
L 201.0375 -382.560937 
z
" style="fill:#4baba7;"/>
    </g>
    <g id="text_60">
     <!-- 56 -->
     <g transform="translate(229.0375 -375.560937)scale(0.1 -0.1)">
      <use xlink:href="#DejaVuSans-53"/>
      <use x="63.623047" xlink:href="#DejaVuSans-54"/>
     </g>
    </g>
    <g id="patch_230">
     <path d="M 201.0375 -360.882812 
L 221.0375 -360.882812 
L 221.0375 -367.882812 
L 201.0375 -367.882812 
z
" style="fill:#4babaa;"/>
    </g>
    <g id="text_61">
     <!-- 57 -->
     <g transform="translate(229.0375 -360.882812)scale(0.1 -0.1)">
      <use xlink:href="#DejaVuSans-53"/>
      <use x="63.623047" xlink:href="#DejaVuSans-55"/>
     </g>
    </g>
    <g id="patch_231">
     <path d="M 201.0375 -346.204687 
L 221.0375 -346.204687 
L 221.0375 -353.204687 
L 201.0375 -353.204687 
z
" style="fill:#4cabad;"/>
    </g>
    <g id="text_62">
     <!-- 58 -->
     <g transform="translate(229.0375 -346.204687)scale(0.1 -0.1)">
      <use xlink:href="#DejaVuSans-53"/>
      <use x="63.623047" xlink:href="#DejaVuSans-56"/>
     </g>
    </g>
    <g id="patch_232">
     <path d="M 201.0375 -331.526562 
L 221.0375 -331.526562 
L 221.0375 -338.526562 
L 201.0375 -338.526562 
z
" style="fill:#4dabb0;"/>
    </g>
    <g id="text_63">
     <!-- 59 -->
     <g transform="translate(229.0375 -331.526562)scale(0.1 -0.1)">
      <use xlink:href="#DejaVuSans-53"/>
      <use x="63.623047" xlink:href="#DejaVuSans-57"/>
     </g>
    </g>
    <g id="patch_233">
     <path d="M 201.0375 -316.848437 
L 221.0375 -316.848437 
L 221.0375 -323.848437 
L 201.0375 -323.848437 
z
" style="fill:#4dabb4;"/>
    </g>
    <g id="text_64">
     <!-- 60 -->
     <g transform="translate(229.0375 -316.848437)scale(0.1 -0.1)">
      <use xlink:href="#DejaVuSans-54"/>
      <use x="63.623047" xlink:href="#DejaVuSans-48"/>
     </g>
    </g>
    <g id="patch_234">
     <path d="M 201.0375 -302.170312 
L 221.0375 -302.170312 
L 221.0375 -309.170312 
L 201.0375 -309.170312 
z
" style="fill:#4eabb7;"/>
    </g>
    <g id="text_65">
     <!-- 61 -->
     <g transform="translate(229.0375 -302.170312)scale(0.1 -0.1)">
      <use xlink:href="#DejaVuSans-54"/>
      <use x="63.623047" xlink:href="#DejaVuSans-49"/>
     </g>
    </g>
    <g id="patch_235">
     <path d="M 201.0375 -287.492187 
L 221.0375 -287.492187 
L 221.0375 -294.492187 
L 201.0375 -294.492187 
z
" style="fill:#4fabbb;"/>
    </g>
    <g id="text_66">
     <!-- 62 -->
     <g transform="translate(229.0375 -287.492187)scale(0.1 -0.1)">
      <use xlink:href="#DejaVuSans-54"/>
      <use x="63.623047" xlink:href="#DejaVuSans-50"/>
     </g>
    </g>
    <g id="patch_236">
     <path d="M 201.0375 -272.814062 
L 221.0375 -272.814062 
L 221.0375 -279.814062 
L 201.0375 -279.814062 
z
" style="fill:#50acbf;"/>
    </g>
    <g id="text_67">
     <!-- 63 -->
     <g transform="translate(229.0375 -272.814062)scale(0.1 -0.1)">
      <use xlink:href="#DejaVuSans-54"/>
      <use x="63.623047" xlink:href="#DejaVuSans-51"/>
     </g>
    </g>
    <g id="patch_237">
     <path d="M 201.0375 -258.135937 
L 221.0375 -258.135937 
L 221.0375 -265.135937 
L 201.0375 -265.135937 
z
" style="fill:#51acc3;"/>
    </g>
    <g id="text_68">
     <!-- 64 -->
     <g transform="translate(229.0375 -258.135937)scale(0.1 -0.1)">
      <use xlink:href="#DejaVuSans-54"/>
      <use x="63.623047" xlink:href="#DejaVuSans-52"/>
     </g>
    </g>
    <g id="patch_238">
     <path d="M 201.0375 -243.457812 
L 221.0375 -243.457812 
L 221.0375 -250.457812 
L 201.0375 -250.457812 
z
" style="fill:#52acc8;"/>
    </g>
    <g id="text_69">
     <!-- 65 -->
     <g transform="translate(229.0375 -243.457812)scale(0.1 -0.1)">
      <use xlink:href="#DejaVuSans-54"/>
      <use x="63.623047" xlink:href="#DejaVuSans-53"/>
     </g>
    </g>
    <g id="patch_239">
     <path d="M 201.0375 -228.779687 
L 221.0375 -228.779687 
L 221.0375 -235.779687 
L 201.0375 -235.779687 
z
" style="fill:#53accd;"/>
    </g>
    <g id="text_70">
     <!-- 66 -->
     <g transform="translate(229.0375 -228.779687)scale(0.1 -0.1)">
      <use xlink:href="#DejaVuSans-54"/>
      <use x="63.623047" xlink:href="#DejaVuSans-54"/>
     </g>
    </g>
    <g id="patch_240">
     <path d="M 201.0375 -214.101562 
L 221.0375 -214.101562 
L 221.0375 -221.101562 
L 201.0375 -221.101562 
z
" style="fill:#54acd3;"/>
    </g>
    <g id="text_71">
     <!-- 67 -->
     <g transform="translate(229.0375 -214.101562)scale(0.1 -0.1)">
      <use xlink:href="#DejaVuSans-54"/>
      <use x="63.623047" xlink:href="#DejaVuSans-55"/>
     </g>
    </g>
    <g id="patch_241">
     <path d="M 201.0375 -199.423437 
L 221.0375 -199.423437 
L 221.0375 -206.423437 
L 201.0375 -206.423437 
z
" style="fill:#56acda;"/>
    </g>
    <g id="text_72">
     <!-- 68 -->
     <g transform="translate(229.0375 -199.423437)scale(0.1 -0.1)">
      <use xlink:href="#DejaVuSans-54"/>
      <use x="63.623047" xlink:href="#DejaVuSans-56"/>
     </g>
    </g>
    <g id="patch_242">
     <path d="M 201.0375 -184.745312 
L 221.0375 -184.745312 
L 221.0375 -191.745312 
L 201.0375 -191.745312 
z
" style="fill:#5eade0;"/>
    </g>
    <g id="text_73">
     <!-- 69 -->
     <g transform="translate(229.0375 -184.745312)scale(0.1 -0.1)">
      <use xlink:href="#DejaVuSans-54"/>
      <use x="63.623047" xlink:href="#DejaVuSans-57"/>
     </g>
    </g>
    <g id="patch_243">
     <path d="M 201.0375 -170.067187 
L 221.0375 -170.067187 
L 221.0375 -177.067187 
L 201.0375 -177.067187 
z
" style="fill:#73aee3;"/>
    </g>
    <g id="text_74">
     <!-- 70 -->
     <g transform="translate(229.0375 -170.067187)scale(0.1 -0.1)">
      <use xlink:href="#DejaVuSans-55"/>
      <use x="63.623047" xlink:href="#DejaVuSans-48"/>
     </g>
    </g>
    <g id="patch_244">
     <path d="M 201.0375 -155.389062 
L 221.0375 -155.389062 
L 221.0375 -162.389062 
L 201.0375 -162.389062 
z
" style="fill:#82aee5;"/>
    </g>
    <g id="text_75">
     <!-- 71 -->
     <g transform="translate(229.0375 -155.389062)scale(0.1 -0.1)">
      <use xlink:href="#DejaVuSans-55"/>
      <use x="63.623047" xlink:href="#DejaVuSans-49"/>
     </g>
    </g>
    <g id="patch_245">
     <path d="M 201.0375 -140.710937 
L 221.0375 -140.710937 
L 221.0375 -147.710937 
L 201.0375 -147.710937 
z
" style="fill:#8eaee7;"/>
    </g>
    <g id="text_76">
     <!-- 72 -->
     <g transform="translate(229.0375 -140.710937)scale(0.1 -0.1)">
      <use xlink:href="#DejaVuSans-55"/>
      <use x="63.623047" xlink:href="#DejaVuSans-50"/>
     </g>
    </g>
    <g id="patch_246">
     <path d="M 201.0375 -126.032812 
L 221.0375 -126.032812 
L 221.0375 -133.032812 
L 201.0375 -133.032812 
z
" style="fill:#98ade9;"/>
    </g>
    <g id="text_77">
     <!-- 73 -->
     <g transform="translate(229.0375 -126.032812)scale(0.1 -0.1)">
      <use xlink:href="#DejaVuSans-55"/>
      <use x="63.623047" xlink:href="#DejaVuSans-51"/>
     </g>
    </g>
    <g id="patch_247">
     <path d="M 201.0375 -111.354687 
L 221.0375 -111.354687 
L 221.0375 -118.354687 
L 201.0375 -118.354687 
z
" style="fill:#a1adea;"/>
    </g>
    <g id="text_78">
     <!-- 74 -->
     <g transform="translate(229.0375 -111.354687)scale(0.1 -0.1)">
      <use xlink:href="#DejaVuSans-55"/>
      <use x="63.623047" xlink:href="#DejaVuSans-52"/>
     </g>
    </g>
    <g id="patch_248">
     <path d="M 201.0375 -96.676562 
L 221.0375 -96.676562 
L 221.0375 -103.676562 
L 201.0375 -103.676562 
z
" style="fill:#a9aceb;"/>
    </g>
    <g id="text_79">
     <!-- 75 -->
     <g transform="translate(229.0375 -96.676562)scale(0.1 -0.1)">
      <use xlink:href="#DejaVuSans-55"/>
      <use x="63.623047" xlink:href="#DejaVuSans-53"/>
     </g>
    </g>
    <g id="patch_249">
     <path d="M 201.0375 -81.998437 
L 221.0375 -81.998437 
L 221.0375 -88.998437 
L 201.0375 -88.998437 
z
" style="fill:#b0aaeb;"/>
    </g>
    <g id="text_80">
     <!-- 76 -->
     <g transform="translate(229.0375 -81.998437)scale(0.1 -0.1)">
      <use xlink:href="#DejaVuSans-55"/>
      <use x="63.623047" xlink:href="#DejaVuSans-54"/>
     </g>
    </g>
    <g id="patch_250">
     <path d="M 201.0375 -67.320312 
L 221.0375 -67.320312 
L 221.0375 -74.320312 
L 201.0375 -74.320312 
z
" style="fill:#b6a8eb;"/>
    </g>
    <g id="text_81">
     <!-- 77 -->
     <g transform="translate(229.0375 -67.320312)scale(0.1 -0.1)">
      <use xlink:href="#DejaVuSans-55"/>
      <use x="63.623047" xlink:href="#DejaVuSans-55"/>
     </g>
    </g>
    <g id="patch_251">
     <path d="M 201.0375 -52.642187 
L 221.0375 -52.642187 
L 221.0375 -59.642187 
L 201.0375 -59.642187 
z
" style="fill:#bca5ea;"/>
    </g>
    <g id="text_82">
     <!-- 78 -->
     <g transform="translate(229.0375 -52.642187)scale(0.1 -0.1)">
      <use xlink:href="#DejaVuSans-55"/>
      <use x="63.623047" xlink:href="#DejaVuSans-56"/>
     </g>
    </g>
    <g id="patch_252">
     <path d="M 201.0375 -37.964062 
L 221.0375 -37.964062 
L 221.0375 -44.964062 
L 201.0375 -44.964062 
z
" style="fill:#c1a2ea;"/>
    </g>
    <g id="text_83">
     <!-- 79 -->
     <g transform="translate(229.0375 -37.964062)scale(0.1 -0.1)">
      <use xlink:href="#DejaVuSans-55"/>
      <use x="63.623047" xlink:href="#DejaVuSans-57"/>
     </g>
    </g>
    <g id="patch_253">
     <path d="M 201.0375 -23.285937 
L 221.0375 -23.285937 
L 221.0375 -30.285937 
L 201.0375 -30.285937 
z
" style="fill:#c7a0ea;"/>
    </g>
    <g id="text_84">
     <!-- 80 -->
     <g transform="translate(229.0375 -23.285937)scale(0.1 -0.1)">
      <use xlink:href="#DejaVuSans-56"/>
      <use x="63.623047" xlink:href="#DejaVuSans-48"/>
     </g>
    </g>
    <g id="patch_254">
     <path d="M 201.0375 -8.607812 
L 221.0375 -8.607812 
L 221.0375 -15.607812 
L 201.0375 -15.607812 
z
" style="fill:#cc9ce9;"/>
    </g>
    <g id="text_85">
     <!-- 81 -->
     <g transform="translate(229.0375 -8.607812)scale(0.1 -0.1)">
      <use xlink:href="#DejaVuSans-56"/>
      <use x="63.623047" xlink:href="#DejaVuSans-49"/>
     </g>
    </g>
    <g id="patch_255">
     <path d="M 201.0375 6.070313 
L 221.0375 6.070313 
L 221.0375 -0.929687 
L 201.0375 -0.929687 
z
" style="fill:#d199e9;"/>
    </g>
    <g id="text_86">
     <!-- 82 -->
     <g transform="translate(229.0375 6.070313)scale(0.1 -0.1)">
      <use xlink:href="#DejaVuSans-56"/>
      <use x="63.623047" xlink:href="#DejaVuSans-50"/>
     </g>
    </g>
    <g id="patch_256">
     <path d="M 201.0375 20.748438 
L 221.0375 20.748438 
L 221.0375 13.748438 
L 201.0375 13.748438 
z
" style="fill:#d795e8;"/>
    </g>
    <g id="text_87">
     <!-- 83 -->
     <g transform="translate(229.0375 20.748438)scale(0.1 -0.1)">
      <use xlink:href="#DejaVuSans-56"/>
      <use x="63.623047" xlink:href="#DejaVuSans-51"/>
     </g>
    </g>
    <g id="patch_257">
     <path d="M 201.0375 35.426563 
L 221.0375 35.426563 
L 221.0375 28.426563 
L 201.0375 28.426563 
z
" style="fill:#dd91e7;"/>
    </g>
    <g id="text_88">
     <!-- 84 -->
     <g transform="translate(229.0375 35.426563)scale(0.1 -0.1)">
      <use xlink:href="#DejaVuSans-56"/>
      <use x="63.623047" xlink:href="#DejaVuSans-52"/>
     </g>
    </g>
    <g id="patch_258">
     <path d="M 201.0375 50.104688 
L 221.0375 50.104688 
L 221.0375 43.104688 
L 201.0375 43.104688 
z
" style="fill:#e38ce7;"/>
    </g>
    <g id="text_89">
     <!-- 85 -->
     <g transform="translate(229.0375 50.104688)scale(0.1 -0.1)">
      <use xlink:href="#DejaVuSans-56"/>
      <use x="63.623047" xlink:href="#DejaVuSans-53"/>
     </g>
    </g>
    <g id="patch_259">
     <path d="M 201.0375 64.782813 
L 221.0375 64.782813 
L 221.0375 57.782813 
L 201.0375 57.782813 
z
" style="fill:#e689e3;"/>
    </g>
    <g id="text_90">
     <!-- 86 -->
     <g transform="translate(229.0375 64.782813)scale(0.1 -0.1)">
      <use xlink:href="#DejaVuSans-56"/>
      <use x="63.623047" xlink:href="#DejaVuSans-54"/>
     </g>
    </g>
    <g id="patch_260">
     <path d="M 201.0375 79.460938 
L 221.0375 79.460938 
L 221.0375 72.460938 
L 201.0375 72.460938 
z
" style="fill:#e78bdd;"/>
    </g>
    <g id="text_91">
     <!-- 87 -->
     <g transform="translate(229.0375 79.460938)scale(0.1 -0.1)">
      <use xlink:href="#DejaVuSans-56"/>
      <use x="63.623047" xlink:href="#DejaVuSans-55"/>
     </g>
    </g>
    <g id="patch_261">
     <path d="M 201.0375 94.139063 
L 221.0375 94.139063 
L 221.0375 87.139063 
L 201.0375 87.139063 
z
" style="fill:#e78cd7;"/>
    </g>
    <g id="text_92">
     <!-- 88 -->
     <g transform="translate(229.0375 94.139063)scale(0.1 -0.1)">
      <use xlink:href="#DejaVuSans-56"/>
      <use x="63.623047" xlink:href="#DejaVuSans-56"/>
     </g>
    </g>
    <g id="patch_262">
     <path d="M 201.0375 108.817188 
L 221.0375 108.817188 
L 221.0375 101.817188 
L 201.0375 101.817188 
z
" style="fill:#e78dd2;"/>
    </g>
    <g id="text_93">
     <!-- 89 -->
     <g transform="translate(229.0375 108.817188)scale(0.1 -0.1)">
      <use xlink:href="#DejaVuSans-56"/>
      <use x="63.623047" xlink:href="#DejaVuSans-57"/>
     </g>
    </g>
    <g id="patch_263">
     <path d="M 201.0375 123.495313 
L 221.0375 123.495313 
L 221.0375 116.495313 
L 201.0375 116.495313 
z
" style="fill:#e88fcd;"/>
    </g>
    <g id="text_94">
     <!-- 90 -->
     <g transform="translate(229.0375 123.495313)scale(0.1 -0.1)">
      <use xlink:href="#DejaVuSans-57"/>
      <use x="63.623047" xlink:href="#DejaVuSans-48"/>
     </g>
    </g>
    <g id="patch_264">
     <path d="M 201.0375 138.173438 
L 221.0375 138.173438 
L 221.0375 131.173438 
L 201.0375 131.173438 
z
" style="fill:#e88fc9;"/>
    </g>
    <g id="text_95">
     <!-- 91 -->
     <g transform="translate(229.0375 138.173438)scale(0.1 -0.1)">
      <use xlink:href="#DejaVuSans-57"/>
      <use x="63.623047" xlink:href="#DejaVuSans-49"/>
     </g>
    </g>
    <g id="patch_265">
     <path d="M 201.0375 152.851563 
L 221.0375 152.851563 
L 221.0375 145.851563 
L 201.0375 145.851563 
z
" style="fill:#e890c4;"/>
    </g>
    <g id="text_96">
     <!-- 92 -->
     <g transform="translate(229.0375 152.851563)scale(0.1 -0.1)">
      <use xlink:href="#DejaVuSans-57"/>
      <use x="63.623047" xlink:href="#DejaVuSans-50"/>
     </g>
    </g>
    <g id="patch_266">
     <path d="M 201.0375 167.529688 
L 221.0375 167.529688 
L 221.0375 160.529688 
L 201.0375 160.529688 
z
" style="fill:#e891c0;"/>
    </g>
    <g id="text_97">
     <!-- 93 -->
     <g transform="translate(229.0375 167.529688)scale(0.1 -0.1)">
      <use xlink:href="#DejaVuSans-57"/>
      <use x="63.623047" xlink:href="#DejaVuSans-51"/>
     </g>
    </g>
    <g id="patch_267">
     <path d="M 201.0375 182.207813 
L 221.0375 182.207813 
L 221.0375 175.207813 
L 201.0375 175.207813 
z
" style="fill:#e992bb;"/>
    </g>
    <g id="text_98">
     <!-- 94 -->
     <g transform="translate(229.0375 182.207813)scale(0.1 -0.1)">
      <use xlink:href="#DejaVuSans-57"/>
      <use x="63.623047" xlink:href="#DejaVuSans-52"/>
     </g>
    </g>
    <g id="patch_268">
     <path d="M 201.0375 196.885938 
L 221.0375 196.885938 
L 221.0375 189.885938 
L 201.0375 189.885938 
z
" style="fill:#e993b7;"/>
    </g>
    <g id="text_99">
     <!-- 95 -->
     <g transform="translate(229.0375 196.885938)scale(0.1 -0.1)">
      <use xlink:href="#DejaVuSans-57"/>
      <use x="63.623047" xlink:href="#DejaVuSans-53"/>
     </g>
    </g>
    <g id="patch_269">
     <path d="M 201.0375 211.564063 
L 221.0375 211.564063 
L 221.0375 204.564063 
L 201.0375 204.564063 
z
" style="fill:#e994b3;"/>
    </g>
    <g id="text_100">
     <!-- 96 -->
     <g transform="translate(229.0375 211.564063)scale(0.1 -0.1)">
      <use xlink:href="#DejaVuSans-57"/>
      <use x="63.623047" xlink:href="#DejaVuSans-54"/>
     </g>
    </g>
    <g id="patch_270">
     <path d="M 201.0375 226.242188 
L 221.0375 226.242188 
L 221.0375 219.242188 
L 201.0375 219.242188 
z
" style="fill:#e994ae;"/>
    </g>
    <g id="text_101">
     <!-- 97 -->
     <g transform="translate(229.0375 226.242188)scale(0.1 -0.1)">
      <use xlink:href="#DejaVuSans-57"/>
      <use x="63.623047" xlink:href="#DejaVuSans-55"/>
     </g>
    </g>
    <g id="patch_271">
     <path d="M 201.0375 240.920313 
L 221.0375 240.920313 
L 221.0375 233.920313 
L 201.0375 233.920313 
z
" style="fill:#e995a9;"/>
    </g>
    <g id="text_102">
     <!-- 98 -->
     <g transform="translate(229.0375 240.920313)scale(0.1 -0.1)">
      <use xlink:href="#DejaVuSans-57"/>
      <use x="63.623047" xlink:href="#DejaVuSans-56"/>
     </g>
    </g>
   </g>
  </g>
 </g>
 <defs>
  <clipPath id="pb514f12831">
   <rect height="217.44" width="334.8" x="54" y="34.56"/>
  </clipPath>
 </defs>
</svg>
