<?xml version="1.0" encoding="utf-8" standalone="no"?>
<!DOCTYPE svg PUBLIC "-//W3C//DTD SVG 1.1//EN"
  "http://www.w3.org/Graphics/SVG/1.1/DTD/svg11.dtd">
<!-- Created with matplotlib (https://matplotlib.org/) -->
<svg height="720pt" version="1.1" viewBox="0 0 1080 720" width="1080pt" xmlns="http://www.w3.org/2000/svg" xmlns:xlink="http://www.w3.org/1999/xlink">
 <defs>
  <style type="text/css">
*{stroke-linecap:butt;stroke-linejoin:round;}
  </style>
 </defs>
 <g id="figure_1">
  <g id="patch_1">
   <path d="M 0 720 
L 1080 720 
L 1080 0 
L 0 0 
z
" style="fill:#ffffff;"/>
  </g>
  <g id="axes_1">
   <g id="patch_2">
    <path d="M 135 630 
L 972 630 
L 972 86.4 
L 135 86.4 
z
" style="fill:#ffffff;"/>
   </g>
   <g id="patch_3">
    <path clip-path="url(#p00d43bb95b)" d="M 176.85 630 
L 200.764286 630 
L 200.764286 481.709978 
L 176.85 481.709978 
z
" style="fill:#ea96a3;"/>
   </g>
   <g id="patch_4">
    <path clip-path="url(#p00d43bb95b)" d="M 595.35 630 
L 619.264286 630 
L 619.264286 601.382627 
L 595.35 601.382627 
z
" style="fill:#ea96a3;"/>
   </g>
   <g id="patch_5">
    <path clip-path="url(#p00d43bb95b)" d="M 200.764286 630 
L 224.678571 630 
L 224.678571 544.147882 
L 200.764286 544.147882 
z
" style="fill:#e4946a;"/>
   </g>
   <g id="patch_6">
    <path clip-path="url(#p00d43bb95b)" d="M 619.264286 630 
L 643.178571 630 
L 643.178571 588.374731 
L 619.264286 588.374731 
z
" style="fill:#e4946a;"/>
   </g>
   <g id="patch_7">
    <path clip-path="url(#p00d43bb95b)" d="M 224.678571 630 
L 248.592857 630 
L 248.592857 492.116296 
L 224.678571 492.116296 
z
" style="fill:#c29a4b;"/>
   </g>
   <g id="patch_8">
    <path clip-path="url(#p00d43bb95b)" d="M 643.178571 630 
L 667.092857 630 
L 667.092857 616.992103 
L 643.178571 616.992103 
z
" style="fill:#c29a4b;"/>
   </g>
   <g id="patch_9">
    <path clip-path="url(#p00d43bb95b)" d="M 248.592857 630 
L 272.507143 630 
L 272.507143 564.960517 
L 248.592857 564.960517 
z
" style="fill:#a69f46;"/>
   </g>
   <g id="patch_10">
    <path clip-path="url(#p00d43bb95b)" d="M 667.092857 630 
L 691.007143 630 
L 691.007143 112.285714 
L 667.092857 112.285714 
z
" style="fill:#a69f46;"/>
   </g>
   <g id="patch_11">
    <path clip-path="url(#p00d43bb95b)" d="M 272.507143 630 
L 296.421429 630 
L 296.421429 458.295765 
L 272.507143 458.295765 
z
" style="fill:#88a746;"/>
   </g>
   <g id="patch_12">
    <path clip-path="url(#p00d43bb95b)" d="M 691.007143 630 
L 714.921429 630 
L 714.921429 583.171572 
L 691.007143 583.171572 
z
" style="fill:#88a746;"/>
   </g>
   <g id="patch_13">
    <path clip-path="url(#p00d43bb95b)" d="M 296.421429 630 
L 320.335714 630 
L 320.335714 588.374731 
L 296.421429 588.374731 
z
" style="fill:#48b05e;"/>
   </g>
   <g id="patch_14">
    <path clip-path="url(#p00d43bb95b)" d="M 714.921429 630 
L 738.835714 630 
L 738.835714 390.654702 
L 714.921429 390.654702 
z
" style="fill:#48b05e;"/>
   </g>
   <g id="patch_15">
    <path clip-path="url(#p00d43bb95b)" d="M 320.335714 630 
L 344.25 630 
L 344.25 538.944724 
L 320.335714 538.944724 
z
" style="fill:#4aad8f;"/>
   </g>
   <g id="patch_16">
    <path clip-path="url(#p00d43bb95b)" d="M 738.835714 630 
L 762.75 630 
L 762.75 601.382627 
L 738.835714 601.382627 
z
" style="fill:#4aad8f;"/>
   </g>
   <g id="patch_17">
    <path clip-path="url(#p00d43bb95b)" d="M 344.25 630 
L 368.164286 630 
L 368.164286 494.717875 
L 344.25 494.717875 
z
" style="fill:#4baba4;"/>
   </g>
   <g id="patch_18">
    <path clip-path="url(#p00d43bb95b)" d="M 762.75 630 
L 786.664286 630 
L 786.664286 611.788945 
L 762.75 611.788945 
z
" style="fill:#4baba4;"/>
   </g>
   <g id="patch_19">
    <path clip-path="url(#p00d43bb95b)" d="M 368.164286 630 
L 392.078571 630 
L 392.078571 593.577889 
L 368.164286 593.577889 
z
" style="fill:#4eabb8;"/>
   </g>
   <g id="patch_20">
    <path clip-path="url(#p00d43bb95b)" d="M 786.664286 630 
L 810.578571 630 
L 810.578571 536.343144 
L 786.664286 536.343144 
z
" style="fill:#4eabb8;"/>
   </g>
   <g id="patch_21">
    <path clip-path="url(#p00d43bb95b)" d="M 392.078571 630 
L 415.992857 630 
L 415.992857 486.913137 
L 392.078571 486.913137 
z
" style="fill:#55acd7;"/>
   </g>
   <g id="patch_22">
    <path clip-path="url(#p00d43bb95b)" d="M 810.578571 630 
L 834.492857 630 
L 834.492857 559.757358 
L 810.578571 559.757358 
z
" style="fill:#55acd7;"/>
   </g>
   <g id="patch_23">
    <path clip-path="url(#p00d43bb95b)" d="M 415.992857 630 
L 439.907143 630 
L 439.907143 515.53051 
L 415.992857 515.53051 
z
" style="fill:#a0adea;"/>
   </g>
   <g id="patch_24">
    <path clip-path="url(#p00d43bb95b)" d="M 834.492857 630 
L 858.407143 630 
L 858.407143 627.398421 
L 834.492857 627.398421 
z
" style="fill:#a0adea;"/>
   </g>
   <g id="patch_25">
    <path clip-path="url(#p00d43bb95b)" d="M 439.907143 630 
L 463.821429 630 
L 463.821429 564.960517 
L 439.907143 564.960517 
z
" style="fill:#c79fe9;"/>
   </g>
   <g id="patch_26">
    <path clip-path="url(#p00d43bb95b)" d="M 858.407143 630 
L 882.321429 630 
L 882.321429 536.343144 
L 858.407143 536.343144 
z
" style="fill:#c79fe9;"/>
   </g>
   <g id="patch_27">
    <path clip-path="url(#p00d43bb95b)" d="M 463.821429 630 
L 487.735714 630 
L 487.735714 596.179469 
L 463.821429 596.179469 
z
" style="fill:#e78ae0;"/>
   </g>
   <g id="patch_28">
    <path clip-path="url(#p00d43bb95b)" d="M 882.321429 630 
L 906.235714 630 
L 906.235714 562.358938 
L 882.321429 562.358938 
z
" style="fill:#e78ae0;"/>
   </g>
   <g id="patch_29">
    <path clip-path="url(#p00d43bb95b)" d="M 487.735714 630 
L 511.65 630 
L 511.65 598.781048 
L 487.735714 598.781048 
z
" style="fill:#e891c1;"/>
   </g>
   <g id="patch_30">
    <path clip-path="url(#p00d43bb95b)" d="M 906.235714 630 
L 930.15 630 
L 930.15 590.97631 
L 906.235714 590.97631 
z
" style="fill:#e891c1;"/>
   </g>
   <g id="matplotlib.axis_1">
    <g id="xtick_1">
     <g id="line2d_1">
      <defs>
       <path d="M 0 0 
L 0 3.5 
" id="mc0f4230381" style="stroke:#000000;stroke-width:0.8;"/>
      </defs>
      <g>
       <use style="stroke:#000000;stroke-width:0.8;" x="344.25" xlink:href="#mc0f4230381" y="630"/>
      </g>
     </g>
     <g id="text_1">
      <!-- 0 -->
      <defs>
       <path d="M 31.78125 66.40625 
Q 24.171875 66.40625 20.328125 58.90625 
Q 16.5 51.421875 16.5 36.375 
Q 16.5 21.390625 20.328125 13.890625 
Q 24.171875 6.390625 31.78125 6.390625 
Q 39.453125 6.390625 43.28125 13.890625 
Q 47.125 21.390625 47.125 36.375 
Q 47.125 51.421875 43.28125 58.90625 
Q 39.453125 66.40625 31.78125 66.40625 
z
M 31.78125 74.21875 
Q 44.046875 74.21875 50.515625 64.515625 
Q 56.984375 54.828125 56.984375 36.375 
Q 56.984375 17.96875 50.515625 8.265625 
Q 44.046875 -1.421875 31.78125 -1.421875 
Q 19.53125 -1.421875 13.0625 8.265625 
Q 6.59375 17.96875 6.59375 36.375 
Q 6.59375 54.828125 13.0625 64.515625 
Q 19.53125 74.21875 31.78125 74.21875 
z
" id="DejaVuSans-48"/>
      </defs>
      <g transform="translate(341.06875 644.598438)scale(0.1 -0.1)">
       <use xlink:href="#DejaVuSans-48"/>
      </g>
     </g>
    </g>
    <g id="xtick_2">
     <g id="line2d_2">
      <g>
       <use style="stroke:#000000;stroke-width:0.8;" x="762.75" xlink:href="#mc0f4230381" y="630"/>
      </g>
     </g>
     <g id="text_2">
      <!-- 1 -->
      <defs>
       <path d="M 12.40625 8.296875 
L 28.515625 8.296875 
L 28.515625 63.921875 
L 10.984375 60.40625 
L 10.984375 69.390625 
L 28.421875 72.90625 
L 38.28125 72.90625 
L 38.28125 8.296875 
L 54.390625 8.296875 
L 54.390625 0 
L 12.40625 0 
z
" id="DejaVuSans-49"/>
      </defs>
      <g transform="translate(759.56875 644.598438)scale(0.1 -0.1)">
       <use xlink:href="#DejaVuSans-49"/>
      </g>
     </g>
    </g>
    <g id="text_3">
     <!-- Not Suicide(0)/Suicide(1) -->
     <defs>
      <path d="M 9.8125 72.90625 
L 23.09375 72.90625 
L 55.421875 11.921875 
L 55.421875 72.90625 
L 64.984375 72.90625 
L 64.984375 0 
L 51.703125 0 
L 19.390625 60.984375 
L 19.390625 0 
L 9.8125 0 
z
" id="DejaVuSans-78"/>
      <path d="M 30.609375 48.390625 
Q 23.390625 48.390625 19.1875 42.75 
Q 14.984375 37.109375 14.984375 27.296875 
Q 14.984375 17.484375 19.15625 11.84375 
Q 23.34375 6.203125 30.609375 6.203125 
Q 37.796875 6.203125 41.984375 11.859375 
Q 46.1875 17.53125 46.1875 27.296875 
Q 46.1875 37.015625 41.984375 42.703125 
Q 37.796875 48.390625 30.609375 48.390625 
z
M 30.609375 56 
Q 42.328125 56 49.015625 48.375 
Q 55.71875 40.765625 55.71875 27.296875 
Q 55.71875 13.875 49.015625 6.21875 
Q 42.328125 -1.421875 30.609375 -1.421875 
Q 18.84375 -1.421875 12.171875 6.21875 
Q 5.515625 13.875 5.515625 27.296875 
Q 5.515625 40.765625 12.171875 48.375 
Q 18.84375 56 30.609375 56 
z
" id="DejaVuSans-111"/>
      <path d="M 18.3125 70.21875 
L 18.3125 54.6875 
L 36.8125 54.6875 
L 36.8125 47.703125 
L 18.3125 47.703125 
L 18.3125 18.015625 
Q 18.3125 11.328125 20.140625 9.421875 
Q 21.96875 7.515625 27.59375 7.515625 
L 36.8125 7.515625 
L 36.8125 0 
L 27.59375 0 
Q 17.1875 0 13.234375 3.875 
Q 9.28125 7.765625 9.28125 18.015625 
L 9.28125 47.703125 
L 2.6875 47.703125 
L 2.6875 54.6875 
L 9.28125 54.6875 
L 9.28125 70.21875 
z
" id="DejaVuSans-116"/>
      <path id="DejaVuSans-32"/>
      <path d="M 53.515625 70.515625 
L 53.515625 60.890625 
Q 47.90625 63.578125 42.921875 64.890625 
Q 37.9375 66.21875 33.296875 66.21875 
Q 25.25 66.21875 20.875 63.09375 
Q 16.5 59.96875 16.5 54.203125 
Q 16.5 49.359375 19.40625 46.890625 
Q 22.3125 44.4375 30.421875 42.921875 
L 36.375 41.703125 
Q 47.40625 39.59375 52.65625 34.296875 
Q 57.90625 29 57.90625 20.125 
Q 57.90625 9.515625 50.796875 4.046875 
Q 43.703125 -1.421875 29.984375 -1.421875 
Q 24.8125 -1.421875 18.96875 -0.25 
Q 13.140625 0.921875 6.890625 3.21875 
L 6.890625 13.375 
Q 12.890625 10.015625 18.65625 8.296875 
Q 24.421875 6.59375 29.984375 6.59375 
Q 38.421875 6.59375 43.015625 9.90625 
Q 47.609375 13.234375 47.609375 19.390625 
Q 47.609375 24.75 44.3125 27.78125 
Q 41.015625 30.8125 33.5 32.328125 
L 27.484375 33.5 
Q 16.453125 35.6875 11.515625 40.375 
Q 6.59375 45.0625 6.59375 53.421875 
Q 6.59375 63.09375 13.40625 68.65625 
Q 20.21875 74.21875 32.171875 74.21875 
Q 37.3125 74.21875 42.625 73.28125 
Q 47.953125 72.359375 53.515625 70.515625 
z
" id="DejaVuSans-83"/>
      <path d="M 8.5 21.578125 
L 8.5 54.6875 
L 17.484375 54.6875 
L 17.484375 21.921875 
Q 17.484375 14.15625 20.5 10.265625 
Q 23.53125 6.390625 29.59375 6.390625 
Q 36.859375 6.390625 41.078125 11.03125 
Q 45.3125 15.671875 45.3125 23.6875 
L 45.3125 54.6875 
L 54.296875 54.6875 
L 54.296875 0 
L 45.3125 0 
L 45.3125 8.40625 
Q 42.046875 3.421875 37.71875 1 
Q 33.40625 -1.421875 27.6875 -1.421875 
Q 18.265625 -1.421875 13.375 4.4375 
Q 8.5 10.296875 8.5 21.578125 
z
M 31.109375 56 
z
" id="DejaVuSans-117"/>
      <path d="M 9.421875 54.6875 
L 18.40625 54.6875 
L 18.40625 0 
L 9.421875 0 
z
M 9.421875 75.984375 
L 18.40625 75.984375 
L 18.40625 64.59375 
L 9.421875 64.59375 
z
" id="DejaVuSans-105"/>
      <path d="M 48.78125 52.59375 
L 48.78125 44.1875 
Q 44.96875 46.296875 41.140625 47.34375 
Q 37.3125 48.390625 33.40625 48.390625 
Q 24.65625 48.390625 19.8125 42.84375 
Q 14.984375 37.3125 14.984375 27.296875 
Q 14.984375 17.28125 19.8125 11.734375 
Q 24.65625 6.203125 33.40625 6.203125 
Q 37.3125 6.203125 41.140625 7.25 
Q 44.96875 8.296875 48.78125 10.40625 
L 48.78125 2.09375 
Q 45.015625 0.34375 40.984375 -0.53125 
Q 36.96875 -1.421875 32.421875 -1.421875 
Q 20.0625 -1.421875 12.78125 6.34375 
Q 5.515625 14.109375 5.515625 27.296875 
Q 5.515625 40.671875 12.859375 48.328125 
Q 20.21875 56 33.015625 56 
Q 37.15625 56 41.109375 55.140625 
Q 45.0625 54.296875 48.78125 52.59375 
z
" id="DejaVuSans-99"/>
      <path d="M 45.40625 46.390625 
L 45.40625 75.984375 
L 54.390625 75.984375 
L 54.390625 0 
L 45.40625 0 
L 45.40625 8.203125 
Q 42.578125 3.328125 38.25 0.953125 
Q 33.9375 -1.421875 27.875 -1.421875 
Q 17.96875 -1.421875 11.734375 6.484375 
Q 5.515625 14.40625 5.515625 27.296875 
Q 5.515625 40.1875 11.734375 48.09375 
Q 17.96875 56 27.875 56 
Q 33.9375 56 38.25 53.625 
Q 42.578125 51.265625 45.40625 46.390625 
z
M 14.796875 27.296875 
Q 14.796875 17.390625 18.875 11.75 
Q 22.953125 6.109375 30.078125 6.109375 
Q 37.203125 6.109375 41.296875 11.75 
Q 45.40625 17.390625 45.40625 27.296875 
Q 45.40625 37.203125 41.296875 42.84375 
Q 37.203125 48.484375 30.078125 48.484375 
Q 22.953125 48.484375 18.875 42.84375 
Q 14.796875 37.203125 14.796875 27.296875 
z
" id="DejaVuSans-100"/>
      <path d="M 56.203125 29.59375 
L 56.203125 25.203125 
L 14.890625 25.203125 
Q 15.484375 15.921875 20.484375 11.0625 
Q 25.484375 6.203125 34.421875 6.203125 
Q 39.59375 6.203125 44.453125 7.46875 
Q 49.3125 8.734375 54.109375 11.28125 
L 54.109375 2.78125 
Q 49.265625 0.734375 44.1875 -0.34375 
Q 39.109375 -1.421875 33.890625 -1.421875 
Q 20.796875 -1.421875 13.15625 6.1875 
Q 5.515625 13.8125 5.515625 26.8125 
Q 5.515625 40.234375 12.765625 48.109375 
Q 20.015625 56 32.328125 56 
Q 43.359375 56 49.78125 48.890625 
Q 56.203125 41.796875 56.203125 29.59375 
z
M 47.21875 32.234375 
Q 47.125 39.59375 43.09375 43.984375 
Q 39.0625 48.390625 32.421875 48.390625 
Q 24.90625 48.390625 20.390625 44.140625 
Q 15.875 39.890625 15.1875 32.171875 
z
" id="DejaVuSans-101"/>
      <path d="M 31 75.875 
Q 24.46875 64.65625 21.28125 53.65625 
Q 18.109375 42.671875 18.109375 31.390625 
Q 18.109375 20.125 21.3125 9.0625 
Q 24.515625 -2 31 -13.1875 
L 23.1875 -13.1875 
Q 15.875 -1.703125 12.234375 9.375 
Q 8.59375 20.453125 8.59375 31.390625 
Q 8.59375 42.28125 12.203125 53.3125 
Q 15.828125 64.359375 23.1875 75.875 
z
" id="DejaVuSans-40"/>
      <path d="M 8.015625 75.875 
L 15.828125 75.875 
Q 23.140625 64.359375 26.78125 53.3125 
Q 30.421875 42.28125 30.421875 31.390625 
Q 30.421875 20.453125 26.78125 9.375 
Q 23.140625 -1.703125 15.828125 -13.1875 
L 8.015625 -13.1875 
Q 14.5 -2 17.703125 9.0625 
Q 20.90625 20.125 20.90625 31.390625 
Q 20.90625 42.671875 17.703125 53.65625 
Q 14.5 64.65625 8.015625 75.875 
z
" id="DejaVuSans-41"/>
      <path d="M 25.390625 72.90625 
L 33.6875 72.90625 
L 8.296875 -9.28125 
L 0 -9.28125 
z
" id="DejaVuSans-47"/>
     </defs>
     <g transform="translate(491.058594 658.276562)scale(0.1 -0.1)">
      <use xlink:href="#DejaVuSans-78"/>
      <use x="74.804688" xlink:href="#DejaVuSans-111"/>
      <use x="135.986328" xlink:href="#DejaVuSans-116"/>
      <use x="175.195312" xlink:href="#DejaVuSans-32"/>
      <use x="206.982422" xlink:href="#DejaVuSans-83"/>
      <use x="270.458984" xlink:href="#DejaVuSans-117"/>
      <use x="333.837891" xlink:href="#DejaVuSans-105"/>
      <use x="361.621094" xlink:href="#DejaVuSans-99"/>
      <use x="416.601562" xlink:href="#DejaVuSans-105"/>
      <use x="444.384766" xlink:href="#DejaVuSans-100"/>
      <use x="507.861328" xlink:href="#DejaVuSans-101"/>
      <use x="569.384766" xlink:href="#DejaVuSans-40"/>
      <use x="608.398438" xlink:href="#DejaVuSans-48"/>
      <use x="672.021484" xlink:href="#DejaVuSans-41"/>
      <use x="711.035156" xlink:href="#DejaVuSans-47"/>
      <use x="744.726562" xlink:href="#DejaVuSans-83"/>
      <use x="808.203125" xlink:href="#DejaVuSans-117"/>
      <use x="871.582031" xlink:href="#DejaVuSans-105"/>
      <use x="899.365234" xlink:href="#DejaVuSans-99"/>
      <use x="954.345703" xlink:href="#DejaVuSans-105"/>
      <use x="982.128906" xlink:href="#DejaVuSans-100"/>
      <use x="1045.605469" xlink:href="#DejaVuSans-101"/>
      <use x="1107.128906" xlink:href="#DejaVuSans-40"/>
      <use x="1146.142578" xlink:href="#DejaVuSans-49"/>
      <use x="1209.765625" xlink:href="#DejaVuSans-41"/>
     </g>
    </g>
   </g>
   <g id="matplotlib.axis_2">
    <g id="ytick_1">
     <g id="line2d_3">
      <defs>
       <path d="M 0 0 
L -3.5 0 
" id="mdcb24ae5fa" style="stroke:#000000;stroke-width:0.8;"/>
      </defs>
      <g>
       <use style="stroke:#000000;stroke-width:0.8;" x="135" xlink:href="#mdcb24ae5fa" y="630"/>
      </g>
     </g>
     <g id="text_4">
      <!-- 0 -->
      <g transform="translate(121.6375 633.799219)scale(0.1 -0.1)">
       <use xlink:href="#DejaVuSans-48"/>
      </g>
     </g>
    </g>
    <g id="ytick_2">
     <g id="line2d_4">
      <g>
       <use style="stroke:#000000;stroke-width:0.8;" x="135" xlink:href="#mdcb24ae5fa" y="564.960517"/>
      </g>
     </g>
     <g id="text_5">
      <!-- 25 -->
      <defs>
       <path d="M 19.1875 8.296875 
L 53.609375 8.296875 
L 53.609375 0 
L 7.328125 0 
L 7.328125 8.296875 
Q 12.9375 14.109375 22.625 23.890625 
Q 32.328125 33.6875 34.8125 36.53125 
Q 39.546875 41.84375 41.421875 45.53125 
Q 43.3125 49.21875 43.3125 52.78125 
Q 43.3125 58.59375 39.234375 62.25 
Q 35.15625 65.921875 28.609375 65.921875 
Q 23.96875 65.921875 18.8125 64.3125 
Q 13.671875 62.703125 7.8125 59.421875 
L 7.8125 69.390625 
Q 13.765625 71.78125 18.9375 73 
Q 24.125 74.21875 28.421875 74.21875 
Q 39.75 74.21875 46.484375 68.546875 
Q 53.21875 62.890625 53.21875 53.421875 
Q 53.21875 48.921875 51.53125 44.890625 
Q 49.859375 40.875 45.40625 35.40625 
Q 44.1875 33.984375 37.640625 27.21875 
Q 31.109375 20.453125 19.1875 8.296875 
z
" id="DejaVuSans-50"/>
       <path d="M 10.796875 72.90625 
L 49.515625 72.90625 
L 49.515625 64.59375 
L 19.828125 64.59375 
L 19.828125 46.734375 
Q 21.96875 47.46875 24.109375 47.828125 
Q 26.265625 48.1875 28.421875 48.1875 
Q 40.625 48.1875 47.75 41.5 
Q 54.890625 34.8125 54.890625 23.390625 
Q 54.890625 11.625 47.5625 5.09375 
Q 40.234375 -1.421875 26.90625 -1.421875 
Q 22.3125 -1.421875 17.546875 -0.640625 
Q 12.796875 0.140625 7.71875 1.703125 
L 7.71875 11.625 
Q 12.109375 9.234375 16.796875 8.0625 
Q 21.484375 6.890625 26.703125 6.890625 
Q 35.15625 6.890625 40.078125 11.328125 
Q 45.015625 15.765625 45.015625 23.390625 
Q 45.015625 31 40.078125 35.4375 
Q 35.15625 39.890625 26.703125 39.890625 
Q 22.75 39.890625 18.8125 39.015625 
Q 14.890625 38.140625 10.796875 36.28125 
z
" id="DejaVuSans-53"/>
      </defs>
      <g transform="translate(115.275 568.759736)scale(0.1 -0.1)">
       <use xlink:href="#DejaVuSans-50"/>
       <use x="63.623047" xlink:href="#DejaVuSans-53"/>
      </g>
     </g>
    </g>
    <g id="ytick_3">
     <g id="line2d_5">
      <g>
       <use style="stroke:#000000;stroke-width:0.8;" x="135" xlink:href="#mdcb24ae5fa" y="499.921034"/>
      </g>
     </g>
     <g id="text_6">
      <!-- 50 -->
      <g transform="translate(115.275 503.720252)scale(0.1 -0.1)">
       <use xlink:href="#DejaVuSans-53"/>
       <use x="63.623047" xlink:href="#DejaVuSans-48"/>
      </g>
     </g>
    </g>
    <g id="ytick_4">
     <g id="line2d_6">
      <g>
       <use style="stroke:#000000;stroke-width:0.8;" x="135" xlink:href="#mdcb24ae5fa" y="434.881551"/>
      </g>
     </g>
     <g id="text_7">
      <!-- 75 -->
      <defs>
       <path d="M 8.203125 72.90625 
L 55.078125 72.90625 
L 55.078125 68.703125 
L 28.609375 0 
L 18.3125 0 
L 43.21875 64.59375 
L 8.203125 64.59375 
z
" id="DejaVuSans-55"/>
      </defs>
      <g transform="translate(115.275 438.680769)scale(0.1 -0.1)">
       <use xlink:href="#DejaVuSans-55"/>
       <use x="63.623047" xlink:href="#DejaVuSans-53"/>
      </g>
     </g>
    </g>
    <g id="ytick_5">
     <g id="line2d_7">
      <g>
       <use style="stroke:#000000;stroke-width:0.8;" x="135" xlink:href="#mdcb24ae5fa" y="369.842067"/>
      </g>
     </g>
     <g id="text_8">
      <!-- 100 -->
      <g transform="translate(108.9125 373.641286)scale(0.1 -0.1)">
       <use xlink:href="#DejaVuSans-49"/>
       <use x="63.623047" xlink:href="#DejaVuSans-48"/>
       <use x="127.246094" xlink:href="#DejaVuSans-48"/>
      </g>
     </g>
    </g>
    <g id="ytick_6">
     <g id="line2d_8">
      <g>
       <use style="stroke:#000000;stroke-width:0.8;" x="135" xlink:href="#mdcb24ae5fa" y="304.802584"/>
      </g>
     </g>
     <g id="text_9">
      <!-- 125 -->
      <g transform="translate(108.9125 308.601803)scale(0.1 -0.1)">
       <use xlink:href="#DejaVuSans-49"/>
       <use x="63.623047" xlink:href="#DejaVuSans-50"/>
       <use x="127.246094" xlink:href="#DejaVuSans-53"/>
      </g>
     </g>
    </g>
    <g id="ytick_7">
     <g id="line2d_9">
      <g>
       <use style="stroke:#000000;stroke-width:0.8;" x="135" xlink:href="#mdcb24ae5fa" y="239.763101"/>
      </g>
     </g>
     <g id="text_10">
      <!-- 150 -->
      <g transform="translate(108.9125 243.56232)scale(0.1 -0.1)">
       <use xlink:href="#DejaVuSans-49"/>
       <use x="63.623047" xlink:href="#DejaVuSans-53"/>
       <use x="127.246094" xlink:href="#DejaVuSans-48"/>
      </g>
     </g>
    </g>
    <g id="ytick_8">
     <g id="line2d_10">
      <g>
       <use style="stroke:#000000;stroke-width:0.8;" x="135" xlink:href="#mdcb24ae5fa" y="174.723618"/>
      </g>
     </g>
     <g id="text_11">
      <!-- 175 -->
      <g transform="translate(108.9125 178.522837)scale(0.1 -0.1)">
       <use xlink:href="#DejaVuSans-49"/>
       <use x="63.623047" xlink:href="#DejaVuSans-55"/>
       <use x="127.246094" xlink:href="#DejaVuSans-53"/>
      </g>
     </g>
    </g>
    <g id="ytick_9">
     <g id="line2d_11">
      <g>
       <use style="stroke:#000000;stroke-width:0.8;" x="135" xlink:href="#mdcb24ae5fa" y="109.684135"/>
      </g>
     </g>
     <g id="text_12">
      <!-- 200 -->
      <g transform="translate(108.9125 113.483354)scale(0.1 -0.1)">
       <use xlink:href="#DejaVuSans-50"/>
       <use x="63.623047" xlink:href="#DejaVuSans-48"/>
       <use x="127.246094" xlink:href="#DejaVuSans-48"/>
      </g>
     </g>
    </g>
    <g id="text_13">
     <!-- count -->
     <defs>
      <path d="M 54.890625 33.015625 
L 54.890625 0 
L 45.90625 0 
L 45.90625 32.71875 
Q 45.90625 40.484375 42.875 44.328125 
Q 39.84375 48.1875 33.796875 48.1875 
Q 26.515625 48.1875 22.3125 43.546875 
Q 18.109375 38.921875 18.109375 30.90625 
L 18.109375 0 
L 9.078125 0 
L 9.078125 54.6875 
L 18.109375 54.6875 
L 18.109375 46.1875 
Q 21.34375 51.125 25.703125 53.5625 
Q 30.078125 56 35.796875 56 
Q 45.21875 56 50.046875 50.171875 
Q 54.890625 44.34375 54.890625 33.015625 
z
" id="DejaVuSans-110"/>
     </defs>
     <g transform="translate(102.832812 372.30625)rotate(-90)scale(0.1 -0.1)">
      <use xlink:href="#DejaVuSans-99"/>
      <use x="54.980469" xlink:href="#DejaVuSans-111"/>
      <use x="116.162109" xlink:href="#DejaVuSans-117"/>
      <use x="179.541016" xlink:href="#DejaVuSans-110"/>
      <use x="242.919922" xlink:href="#DejaVuSans-116"/>
     </g>
    </g>
   </g>
   <g id="patch_31">
    <path d="M 135 630 
L 135 86.4 
" style="fill:none;stroke:#000000;stroke-linecap:square;stroke-linejoin:miter;stroke-width:0.8;"/>
   </g>
   <g id="patch_32">
    <path d="M 972 630 
L 972 86.4 
" style="fill:none;stroke:#000000;stroke-linecap:square;stroke-linejoin:miter;stroke-width:0.8;"/>
   </g>
   <g id="patch_33">
    <path d="M 135 630 
L 972 630 
" style="fill:none;stroke:#000000;stroke-linecap:square;stroke-linejoin:miter;stroke-width:0.8;"/>
   </g>
   <g id="patch_34">
    <path d="M 135 86.4 
L 972 86.4 
" style="fill:none;stroke:#000000;stroke-linecap:square;stroke-linejoin:miter;stroke-width:0.8;"/>
   </g>
   <g id="legend_1">
    <g id="patch_35">
     <path d="M 386.585938 314.571875 
L 965 314.571875 
Q 967 314.571875 967 312.571875 
L 967 93.4 
Q 967 91.4 965 91.4 
L 386.585938 91.4 
Q 384.585938 91.4 384.585938 93.4 
L 384.585938 312.571875 
Q 384.585938 314.571875 386.585938 314.571875 
z
" style="fill:#ffffff;opacity:0.8;stroke:#cccccc;stroke-linejoin:miter;"/>
    </g>
    <g id="text_14">
     <!-- Nature Of Occupation -->
     <defs>
      <path d="M 34.28125 27.484375 
Q 23.390625 27.484375 19.1875 25 
Q 14.984375 22.515625 14.984375 16.5 
Q 14.984375 11.71875 18.140625 8.90625 
Q 21.296875 6.109375 26.703125 6.109375 
Q 34.1875 6.109375 38.703125 11.40625 
Q 43.21875 16.703125 43.21875 25.484375 
L 43.21875 27.484375 
z
M 52.203125 31.203125 
L 52.203125 0 
L 43.21875 0 
L 43.21875 8.296875 
Q 40.140625 3.328125 35.546875 0.953125 
Q 30.953125 -1.421875 24.3125 -1.421875 
Q 15.921875 -1.421875 10.953125 3.296875 
Q 6 8.015625 6 15.921875 
Q 6 25.140625 12.171875 29.828125 
Q 18.359375 34.515625 30.609375 34.515625 
L 43.21875 34.515625 
L 43.21875 35.40625 
Q 43.21875 41.609375 39.140625 45 
Q 35.0625 48.390625 27.6875 48.390625 
Q 23 48.390625 18.546875 47.265625 
Q 14.109375 46.140625 10.015625 43.890625 
L 10.015625 52.203125 
Q 14.9375 54.109375 19.578125 55.046875 
Q 24.21875 56 28.609375 56 
Q 40.484375 56 46.34375 49.84375 
Q 52.203125 43.703125 52.203125 31.203125 
z
" id="DejaVuSans-97"/>
      <path d="M 41.109375 46.296875 
Q 39.59375 47.171875 37.8125 47.578125 
Q 36.03125 48 33.890625 48 
Q 26.265625 48 22.1875 43.046875 
Q 18.109375 38.09375 18.109375 28.8125 
L 18.109375 0 
L 9.078125 0 
L 9.078125 54.6875 
L 18.109375 54.6875 
L 18.109375 46.1875 
Q 20.953125 51.171875 25.484375 53.578125 
Q 30.03125 56 36.53125 56 
Q 37.453125 56 38.578125 55.875 
Q 39.703125 55.765625 41.0625 55.515625 
z
" id="DejaVuSans-114"/>
      <path d="M 39.40625 66.21875 
Q 28.65625 66.21875 22.328125 58.203125 
Q 16.015625 50.203125 16.015625 36.375 
Q 16.015625 22.609375 22.328125 14.59375 
Q 28.65625 6.59375 39.40625 6.59375 
Q 50.140625 6.59375 56.421875 14.59375 
Q 62.703125 22.609375 62.703125 36.375 
Q 62.703125 50.203125 56.421875 58.203125 
Q 50.140625 66.21875 39.40625 66.21875 
z
M 39.40625 74.21875 
Q 54.734375 74.21875 63.90625 63.9375 
Q 73.09375 53.65625 73.09375 36.375 
Q 73.09375 19.140625 63.90625 8.859375 
Q 54.734375 -1.421875 39.40625 -1.421875 
Q 24.03125 -1.421875 14.8125 8.828125 
Q 5.609375 19.09375 5.609375 36.375 
Q 5.609375 53.65625 14.8125 63.9375 
Q 24.03125 74.21875 39.40625 74.21875 
z
" id="DejaVuSans-79"/>
      <path d="M 37.109375 75.984375 
L 37.109375 68.5 
L 28.515625 68.5 
Q 23.6875 68.5 21.796875 66.546875 
Q 19.921875 64.59375 19.921875 59.515625 
L 19.921875 54.6875 
L 34.71875 54.6875 
L 34.71875 47.703125 
L 19.921875 47.703125 
L 19.921875 0 
L 10.890625 0 
L 10.890625 47.703125 
L 2.296875 47.703125 
L 2.296875 54.6875 
L 10.890625 54.6875 
L 10.890625 58.5 
Q 10.890625 67.625 15.140625 71.796875 
Q 19.390625 75.984375 28.609375 75.984375 
z
" id="DejaVuSans-102"/>
      <path d="M 18.109375 8.203125 
L 18.109375 -20.796875 
L 9.078125 -20.796875 
L 9.078125 54.6875 
L 18.109375 54.6875 
L 18.109375 46.390625 
Q 20.953125 51.265625 25.265625 53.625 
Q 29.59375 56 35.59375 56 
Q 45.5625 56 51.78125 48.09375 
Q 58.015625 40.1875 58.015625 27.296875 
Q 58.015625 14.40625 51.78125 6.484375 
Q 45.5625 -1.421875 35.59375 -1.421875 
Q 29.59375 -1.421875 25.265625 0.953125 
Q 20.953125 3.328125 18.109375 8.203125 
z
M 48.6875 27.296875 
Q 48.6875 37.203125 44.609375 42.84375 
Q 40.53125 48.484375 33.40625 48.484375 
Q 26.265625 48.484375 22.1875 42.84375 
Q 18.109375 37.203125 18.109375 27.296875 
Q 18.109375 17.390625 22.1875 11.75 
Q 26.265625 6.109375 33.40625 6.109375 
Q 40.53125 6.109375 44.609375 11.75 
Q 48.6875 17.390625 48.6875 27.296875 
z
" id="DejaVuSans-112"/>
     </defs>
     <g transform="translate(621.435938 102.998437)scale(0.1 -0.1)">
      <use xlink:href="#DejaVuSans-78"/>
      <use x="74.804688" xlink:href="#DejaVuSans-97"/>
      <use x="136.083984" xlink:href="#DejaVuSans-116"/>
      <use x="175.292969" xlink:href="#DejaVuSans-117"/>
      <use x="238.671875" xlink:href="#DejaVuSans-114"/>
      <use x="279.753906" xlink:href="#DejaVuSans-101"/>
      <use x="341.277344" xlink:href="#DejaVuSans-32"/>
      <use x="373.064453" xlink:href="#DejaVuSans-79"/>
      <use x="451.775391" xlink:href="#DejaVuSans-102"/>
      <use x="486.980469" xlink:href="#DejaVuSans-32"/>
      <use x="518.767578" xlink:href="#DejaVuSans-79"/>
      <use x="597.478516" xlink:href="#DejaVuSans-99"/>
      <use x="652.458984" xlink:href="#DejaVuSans-99"/>
      <use x="707.439453" xlink:href="#DejaVuSans-117"/>
      <use x="770.818359" xlink:href="#DejaVuSans-112"/>
      <use x="834.294922" xlink:href="#DejaVuSans-97"/>
      <use x="895.574219" xlink:href="#DejaVuSans-116"/>
      <use x="934.783203" xlink:href="#DejaVuSans-105"/>
      <use x="962.566406" xlink:href="#DejaVuSans-111"/>
      <use x="1023.748047" xlink:href="#DejaVuSans-110"/>
     </g>
    </g>
    <g id="patch_36">
     <path d="M 388.585938 117.676562 
L 408.585938 117.676562 
L 408.585938 110.676562 
L 388.585938 110.676562 
z
" style="fill:#ea96a3;"/>
    </g>
    <g id="text_15">
     <!-- Administrative Executive Managerial &amp; related workers -->
     <defs>
      <path d="M 34.1875 63.1875 
L 20.796875 26.90625 
L 47.609375 26.90625 
z
M 28.609375 72.90625 
L 39.796875 72.90625 
L 67.578125 0 
L 57.328125 0 
L 50.6875 18.703125 
L 17.828125 18.703125 
L 11.1875 0 
L 0.78125 0 
z
" id="DejaVuSans-65"/>
      <path d="M 52 44.1875 
Q 55.375 50.25 60.0625 53.125 
Q 64.75 56 71.09375 56 
Q 79.640625 56 84.28125 50.015625 
Q 88.921875 44.046875 88.921875 33.015625 
L 88.921875 0 
L 79.890625 0 
L 79.890625 32.71875 
Q 79.890625 40.578125 77.09375 44.375 
Q 74.3125 48.1875 68.609375 48.1875 
Q 61.625 48.1875 57.5625 43.546875 
Q 53.515625 38.921875 53.515625 30.90625 
L 53.515625 0 
L 44.484375 0 
L 44.484375 32.71875 
Q 44.484375 40.625 41.703125 44.40625 
Q 38.921875 48.1875 33.109375 48.1875 
Q 26.21875 48.1875 22.15625 43.53125 
Q 18.109375 38.875 18.109375 30.90625 
L 18.109375 0 
L 9.078125 0 
L 9.078125 54.6875 
L 18.109375 54.6875 
L 18.109375 46.1875 
Q 21.1875 51.21875 25.484375 53.609375 
Q 29.78125 56 35.6875 56 
Q 41.65625 56 45.828125 52.96875 
Q 50 49.953125 52 44.1875 
z
" id="DejaVuSans-109"/>
      <path d="M 44.28125 53.078125 
L 44.28125 44.578125 
Q 40.484375 46.53125 36.375 47.5 
Q 32.28125 48.484375 27.875 48.484375 
Q 21.1875 48.484375 17.84375 46.4375 
Q 14.5 44.390625 14.5 40.28125 
Q 14.5 37.15625 16.890625 35.375 
Q 19.28125 33.59375 26.515625 31.984375 
L 29.59375 31.296875 
Q 39.15625 29.25 43.1875 25.515625 
Q 47.21875 21.78125 47.21875 15.09375 
Q 47.21875 7.46875 41.1875 3.015625 
Q 35.15625 -1.421875 24.609375 -1.421875 
Q 20.21875 -1.421875 15.453125 -0.5625 
Q 10.6875 0.296875 5.421875 2 
L 5.421875 11.28125 
Q 10.40625 8.6875 15.234375 7.390625 
Q 20.0625 6.109375 24.8125 6.109375 
Q 31.15625 6.109375 34.5625 8.28125 
Q 37.984375 10.453125 37.984375 14.40625 
Q 37.984375 18.0625 35.515625 20.015625 
Q 33.0625 21.96875 24.703125 23.78125 
L 21.578125 24.515625 
Q 13.234375 26.265625 9.515625 29.90625 
Q 5.8125 33.546875 5.8125 39.890625 
Q 5.8125 47.609375 11.28125 51.796875 
Q 16.75 56 26.8125 56 
Q 31.78125 56 36.171875 55.265625 
Q 40.578125 54.546875 44.28125 53.078125 
z
" id="DejaVuSans-115"/>
      <path d="M 2.984375 54.6875 
L 12.5 54.6875 
L 29.59375 8.796875 
L 46.6875 54.6875 
L 56.203125 54.6875 
L 35.6875 0 
L 23.484375 0 
z
" id="DejaVuSans-118"/>
      <path d="M 9.8125 72.90625 
L 55.90625 72.90625 
L 55.90625 64.59375 
L 19.671875 64.59375 
L 19.671875 43.015625 
L 54.390625 43.015625 
L 54.390625 34.71875 
L 19.671875 34.71875 
L 19.671875 8.296875 
L 56.78125 8.296875 
L 56.78125 0 
L 9.8125 0 
z
" id="DejaVuSans-69"/>
      <path d="M 54.890625 54.6875 
L 35.109375 28.078125 
L 55.90625 0 
L 45.3125 0 
L 29.390625 21.484375 
L 13.484375 0 
L 2.875 0 
L 24.125 28.609375 
L 4.6875 54.6875 
L 15.28125 54.6875 
L 29.78125 35.203125 
L 44.28125 54.6875 
z
" id="DejaVuSans-120"/>
      <path d="M 9.8125 72.90625 
L 24.515625 72.90625 
L 43.109375 23.296875 
L 61.8125 72.90625 
L 76.515625 72.90625 
L 76.515625 0 
L 66.890625 0 
L 66.890625 64.015625 
L 48.09375 14.015625 
L 38.1875 14.015625 
L 19.390625 64.015625 
L 19.390625 0 
L 9.8125 0 
z
" id="DejaVuSans-77"/>
      <path d="M 45.40625 27.984375 
Q 45.40625 37.75 41.375 43.109375 
Q 37.359375 48.484375 30.078125 48.484375 
Q 22.859375 48.484375 18.828125 43.109375 
Q 14.796875 37.75 14.796875 27.984375 
Q 14.796875 18.265625 18.828125 12.890625 
Q 22.859375 7.515625 30.078125 7.515625 
Q 37.359375 7.515625 41.375 12.890625 
Q 45.40625 18.265625 45.40625 27.984375 
z
M 54.390625 6.78125 
Q 54.390625 -7.171875 48.1875 -13.984375 
Q 42 -20.796875 29.203125 -20.796875 
Q 24.46875 -20.796875 20.265625 -20.09375 
Q 16.0625 -19.390625 12.109375 -17.921875 
L 12.109375 -9.1875 
Q 16.0625 -11.328125 19.921875 -12.34375 
Q 23.78125 -13.375 27.78125 -13.375 
Q 36.625 -13.375 41.015625 -8.765625 
Q 45.40625 -4.15625 45.40625 5.171875 
L 45.40625 9.625 
Q 42.625 4.78125 38.28125 2.390625 
Q 33.9375 0 27.875 0 
Q 17.828125 0 11.671875 7.65625 
Q 5.515625 15.328125 5.515625 27.984375 
Q 5.515625 40.671875 11.671875 48.328125 
Q 17.828125 56 27.875 56 
Q 33.9375 56 38.28125 53.609375 
Q 42.625 51.21875 45.40625 46.390625 
L 45.40625 54.6875 
L 54.390625 54.6875 
z
" id="DejaVuSans-103"/>
      <path d="M 9.421875 75.984375 
L 18.40625 75.984375 
L 18.40625 0 
L 9.421875 0 
z
" id="DejaVuSans-108"/>
      <path d="M 24.3125 39.203125 
Q 19.875 35.25 17.796875 31.3125 
Q 15.71875 27.390625 15.71875 23.09375 
Q 15.71875 15.96875 20.890625 11.234375 
Q 26.078125 6.5 33.890625 6.5 
Q 38.53125 6.5 42.578125 8.03125 
Q 46.625 9.578125 50.203125 12.703125 
z
M 31.203125 44.671875 
L 56 19.28125 
Q 58.890625 23.640625 60.5 28.59375 
Q 62.109375 33.546875 62.40625 39.109375 
L 71.484375 39.109375 
Q 70.90625 32.671875 68.359375 26.359375 
Q 65.828125 20.0625 61.28125 13.921875 
L 74.90625 0 
L 62.59375 0 
L 55.609375 7.171875 
Q 50.53125 2.828125 44.96875 0.703125 
Q 39.40625 -1.421875 33.015625 -1.421875 
Q 21.234375 -1.421875 13.765625 5.296875 
Q 6.296875 12.015625 6.296875 22.515625 
Q 6.296875 28.765625 9.5625 34.25 
Q 12.84375 39.75 19.390625 44.578125 
Q 17.046875 47.65625 15.8125 50.703125 
Q 14.59375 53.765625 14.59375 56.6875 
Q 14.59375 64.59375 20.015625 69.40625 
Q 25.4375 74.21875 34.421875 74.21875 
Q 38.484375 74.21875 42.5 73.34375 
Q 46.53125 72.46875 50.6875 70.703125 
L 50.6875 61.8125 
Q 46.4375 64.109375 42.578125 65.296875 
Q 38.71875 66.5 35.40625 66.5 
Q 30.28125 66.5 27.078125 63.78125 
Q 23.875 61.078125 23.875 56.78125 
Q 23.875 54.296875 25.3125 51.78125 
Q 26.765625 49.265625 31.203125 44.671875 
z
" id="DejaVuSans-38"/>
      <path d="M 4.203125 54.6875 
L 13.1875 54.6875 
L 24.421875 12.015625 
L 35.59375 54.6875 
L 46.1875 54.6875 
L 57.421875 12.015625 
L 68.609375 54.6875 
L 77.59375 54.6875 
L 63.28125 0 
L 52.6875 0 
L 40.921875 44.828125 
L 29.109375 0 
L 18.5 0 
z
" id="DejaVuSans-119"/>
      <path d="M 9.078125 75.984375 
L 18.109375 75.984375 
L 18.109375 31.109375 
L 44.921875 54.6875 
L 56.390625 54.6875 
L 27.390625 29.109375 
L 57.625 0 
L 45.90625 0 
L 18.109375 26.703125 
L 18.109375 0 
L 9.078125 0 
z
" id="DejaVuSans-107"/>
     </defs>
     <g transform="translate(416.585938 117.676562)scale(0.1 -0.1)">
      <use xlink:href="#DejaVuSans-65"/>
      <use x="68.392578" xlink:href="#DejaVuSans-100"/>
      <use x="131.869141" xlink:href="#DejaVuSans-109"/>
      <use x="229.28125" xlink:href="#DejaVuSans-105"/>
      <use x="257.064453" xlink:href="#DejaVuSans-110"/>
      <use x="320.443359" xlink:href="#DejaVuSans-105"/>
      <use x="348.226562" xlink:href="#DejaVuSans-115"/>
      <use x="400.326172" xlink:href="#DejaVuSans-116"/>
      <use x="439.535156" xlink:href="#DejaVuSans-114"/>
      <use x="480.648438" xlink:href="#DejaVuSans-97"/>
      <use x="541.927734" xlink:href="#DejaVuSans-116"/>
      <use x="581.136719" xlink:href="#DejaVuSans-105"/>
      <use x="608.919922" xlink:href="#DejaVuSans-118"/>
      <use x="668.099609" xlink:href="#DejaVuSans-101"/>
      <use x="729.623047" xlink:href="#DejaVuSans-32"/>
      <use x="761.410156" xlink:href="#DejaVuSans-69"/>
      <use x="824.59375" xlink:href="#DejaVuSans-120"/>
      <use x="883.726562" xlink:href="#DejaVuSans-101"/>
      <use x="945.25" xlink:href="#DejaVuSans-99"/>
      <use x="1000.230469" xlink:href="#DejaVuSans-117"/>
      <use x="1063.609375" xlink:href="#DejaVuSans-116"/>
      <use x="1102.818359" xlink:href="#DejaVuSans-105"/>
      <use x="1130.601562" xlink:href="#DejaVuSans-118"/>
      <use x="1189.78125" xlink:href="#DejaVuSans-101"/>
      <use x="1251.304688" xlink:href="#DejaVuSans-32"/>
      <use x="1283.091797" xlink:href="#DejaVuSans-77"/>
      <use x="1369.371094" xlink:href="#DejaVuSans-97"/>
      <use x="1430.650391" xlink:href="#DejaVuSans-110"/>
      <use x="1494.029297" xlink:href="#DejaVuSans-97"/>
      <use x="1555.308594" xlink:href="#DejaVuSans-103"/>
      <use x="1618.785156" xlink:href="#DejaVuSans-101"/>
      <use x="1680.308594" xlink:href="#DejaVuSans-114"/>
      <use x="1721.421875" xlink:href="#DejaVuSans-105"/>
      <use x="1749.205078" xlink:href="#DejaVuSans-97"/>
      <use x="1810.484375" xlink:href="#DejaVuSans-108"/>
      <use x="1838.267578" xlink:href="#DejaVuSans-32"/>
      <use x="1870.054688" xlink:href="#DejaVuSans-38"/>
      <use x="1948.033203" xlink:href="#DejaVuSans-32"/>
      <use x="1979.820312" xlink:href="#DejaVuSans-114"/>
      <use x="2020.902344" xlink:href="#DejaVuSans-101"/>
      <use x="2082.425781" xlink:href="#DejaVuSans-108"/>
      <use x="2110.208984" xlink:href="#DejaVuSans-97"/>
      <use x="2171.488281" xlink:href="#DejaVuSans-116"/>
      <use x="2210.697266" xlink:href="#DejaVuSans-101"/>
      <use x="2272.220703" xlink:href="#DejaVuSans-100"/>
      <use x="2335.697266" xlink:href="#DejaVuSans-32"/>
      <use x="2367.484375" xlink:href="#DejaVuSans-119"/>
      <use x="2449.271484" xlink:href="#DejaVuSans-111"/>
      <use x="2510.453125" xlink:href="#DejaVuSans-114"/>
      <use x="2551.566406" xlink:href="#DejaVuSans-107"/>
      <use x="2609.429688" xlink:href="#DejaVuSans-101"/>
      <use x="2670.953125" xlink:href="#DejaVuSans-114"/>
      <use x="2712.066406" xlink:href="#DejaVuSans-115"/>
     </g>
    </g>
    <g id="patch_37">
     <path d="M 388.585938 132.354687 
L 408.585938 132.354687 
L 408.585938 125.354687 
L 388.585938 125.354687 
z
" style="fill:#e4946a;"/>
    </g>
    <g id="text_16">
     <!-- Sales worker -->
     <g transform="translate(416.585938 132.354687)scale(0.1 -0.1)">
      <use xlink:href="#DejaVuSans-83"/>
      <use x="63.476562" xlink:href="#DejaVuSans-97"/>
      <use x="124.755859" xlink:href="#DejaVuSans-108"/>
      <use x="152.539062" xlink:href="#DejaVuSans-101"/>
      <use x="214.0625" xlink:href="#DejaVuSans-115"/>
      <use x="266.162109" xlink:href="#DejaVuSans-32"/>
      <use x="297.949219" xlink:href="#DejaVuSans-119"/>
      <use x="379.736328" xlink:href="#DejaVuSans-111"/>
      <use x="440.917969" xlink:href="#DejaVuSans-114"/>
      <use x="482.03125" xlink:href="#DejaVuSans-107"/>
      <use x="539.894531" xlink:href="#DejaVuSans-101"/>
      <use x="601.417969" xlink:href="#DejaVuSans-114"/>
     </g>
    </g>
    <g id="patch_38">
     <path d="M 388.585938 147.032812 
L 408.585938 147.032812 
L 408.585938 140.032812 
L 388.585938 140.032812 
z
" style="fill:#c29a4b;"/>
    </g>
    <g id="text_17">
     <!-- Security Personnel -->
     <defs>
      <path d="M 32.171875 -5.078125 
Q 28.375 -14.84375 24.75 -17.8125 
Q 21.140625 -20.796875 15.09375 -20.796875 
L 7.90625 -20.796875 
L 7.90625 -13.28125 
L 13.1875 -13.28125 
Q 16.890625 -13.28125 18.9375 -11.515625 
Q 21 -9.765625 23.484375 -3.21875 
L 25.09375 0.875 
L 2.984375 54.6875 
L 12.5 54.6875 
L 29.59375 11.921875 
L 46.6875 54.6875 
L 56.203125 54.6875 
z
" id="DejaVuSans-121"/>
      <path d="M 19.671875 64.796875 
L 19.671875 37.40625 
L 32.078125 37.40625 
Q 38.96875 37.40625 42.71875 40.96875 
Q 46.484375 44.53125 46.484375 51.125 
Q 46.484375 57.671875 42.71875 61.234375 
Q 38.96875 64.796875 32.078125 64.796875 
z
M 9.8125 72.90625 
L 32.078125 72.90625 
Q 44.34375 72.90625 50.609375 67.359375 
Q 56.890625 61.8125 56.890625 51.125 
Q 56.890625 40.328125 50.609375 34.8125 
Q 44.34375 29.296875 32.078125 29.296875 
L 19.671875 29.296875 
L 19.671875 0 
L 9.8125 0 
z
" id="DejaVuSans-80"/>
     </defs>
     <g transform="translate(416.585938 147.032812)scale(0.1 -0.1)">
      <use xlink:href="#DejaVuSans-83"/>
      <use x="63.476562" xlink:href="#DejaVuSans-101"/>
      <use x="125" xlink:href="#DejaVuSans-99"/>
      <use x="179.980469" xlink:href="#DejaVuSans-117"/>
      <use x="243.359375" xlink:href="#DejaVuSans-114"/>
      <use x="284.472656" xlink:href="#DejaVuSans-105"/>
      <use x="312.255859" xlink:href="#DejaVuSans-116"/>
      <use x="351.464844" xlink:href="#DejaVuSans-121"/>
      <use x="410.644531" xlink:href="#DejaVuSans-32"/>
      <use x="442.431641" xlink:href="#DejaVuSans-80"/>
      <use x="502.6875" xlink:href="#DejaVuSans-101"/>
      <use x="564.210938" xlink:href="#DejaVuSans-114"/>
      <use x="605.324219" xlink:href="#DejaVuSans-115"/>
      <use x="657.423828" xlink:href="#DejaVuSans-111"/>
      <use x="718.605469" xlink:href="#DejaVuSans-110"/>
      <use x="781.984375" xlink:href="#DejaVuSans-110"/>
      <use x="845.363281" xlink:href="#DejaVuSans-101"/>
      <use x="906.886719" xlink:href="#DejaVuSans-108"/>
     </g>
    </g>
    <g id="patch_39">
     <path d="M 388.585938 161.710938 
L 408.585938 161.710938 
L 408.585938 154.710938 
L 388.585938 154.710938 
z
" style="fill:#a69f46;"/>
    </g>
    <g id="text_18">
     <!-- Unemployed persons -->
     <defs>
      <path d="M 8.6875 72.90625 
L 18.609375 72.90625 
L 18.609375 28.609375 
Q 18.609375 16.890625 22.84375 11.734375 
Q 27.09375 6.59375 36.625 6.59375 
Q 46.09375 6.59375 50.34375 11.734375 
Q 54.59375 16.890625 54.59375 28.609375 
L 54.59375 72.90625 
L 64.5 72.90625 
L 64.5 27.390625 
Q 64.5 13.140625 57.4375 5.859375 
Q 50.390625 -1.421875 36.625 -1.421875 
Q 22.796875 -1.421875 15.734375 5.859375 
Q 8.6875 13.140625 8.6875 27.390625 
z
" id="DejaVuSans-85"/>
     </defs>
     <g transform="translate(416.585938 161.710938)scale(0.1 -0.1)">
      <use xlink:href="#DejaVuSans-85"/>
      <use x="73.193359" xlink:href="#DejaVuSans-110"/>
      <use x="136.572266" xlink:href="#DejaVuSans-101"/>
      <use x="198.095703" xlink:href="#DejaVuSans-109"/>
      <use x="295.507812" xlink:href="#DejaVuSans-112"/>
      <use x="358.984375" xlink:href="#DejaVuSans-108"/>
      <use x="386.767578" xlink:href="#DejaVuSans-111"/>
      <use x="447.949219" xlink:href="#DejaVuSans-121"/>
      <use x="507.128906" xlink:href="#DejaVuSans-101"/>
      <use x="568.652344" xlink:href="#DejaVuSans-100"/>
      <use x="632.128906" xlink:href="#DejaVuSans-32"/>
      <use x="663.916016" xlink:href="#DejaVuSans-112"/>
      <use x="727.392578" xlink:href="#DejaVuSans-101"/>
      <use x="788.916016" xlink:href="#DejaVuSans-114"/>
      <use x="830.029297" xlink:href="#DejaVuSans-115"/>
      <use x="882.128906" xlink:href="#DejaVuSans-111"/>
      <use x="943.310547" xlink:href="#DejaVuSans-110"/>
      <use x="1006.689453" xlink:href="#DejaVuSans-115"/>
     </g>
    </g>
    <g id="patch_40">
     <path d="M 388.585938 176.389062 
L 408.585938 176.389062 
L 408.585938 169.389062 
L 388.585938 169.389062 
z
" style="fill:#88a746;"/>
    </g>
    <g id="text_19">
     <!-- Pensioners -->
     <g transform="translate(416.585938 176.389062)scale(0.1 -0.1)">
      <use xlink:href="#DejaVuSans-80"/>
      <use x="60.255859" xlink:href="#DejaVuSans-101"/>
      <use x="121.779297" xlink:href="#DejaVuSans-110"/>
      <use x="185.158203" xlink:href="#DejaVuSans-115"/>
      <use x="237.257812" xlink:href="#DejaVuSans-105"/>
      <use x="265.041016" xlink:href="#DejaVuSans-111"/>
      <use x="326.222656" xlink:href="#DejaVuSans-110"/>
      <use x="389.601562" xlink:href="#DejaVuSans-101"/>
      <use x="451.125" xlink:href="#DejaVuSans-114"/>
      <use x="492.238281" xlink:href="#DejaVuSans-115"/>
     </g>
    </g>
    <g id="patch_41">
     <path d="M 388.585938 191.067187 
L 408.585938 191.067187 
L 408.585938 184.067187 
L 388.585938 184.067187 
z
" style="fill:#48b05e;"/>
    </g>
    <g id="text_20">
     <!-- Agricultural Animal Husbandry Fisherman &amp; related Forestry workers -->
     <defs>
      <path d="M 9.8125 72.90625 
L 19.671875 72.90625 
L 19.671875 43.015625 
L 55.515625 43.015625 
L 55.515625 72.90625 
L 65.375 72.90625 
L 65.375 0 
L 55.515625 0 
L 55.515625 34.71875 
L 19.671875 34.71875 
L 19.671875 0 
L 9.8125 0 
z
" id="DejaVuSans-72"/>
      <path d="M 48.6875 27.296875 
Q 48.6875 37.203125 44.609375 42.84375 
Q 40.53125 48.484375 33.40625 48.484375 
Q 26.265625 48.484375 22.1875 42.84375 
Q 18.109375 37.203125 18.109375 27.296875 
Q 18.109375 17.390625 22.1875 11.75 
Q 26.265625 6.109375 33.40625 6.109375 
Q 40.53125 6.109375 44.609375 11.75 
Q 48.6875 17.390625 48.6875 27.296875 
z
M 18.109375 46.390625 
Q 20.953125 51.265625 25.265625 53.625 
Q 29.59375 56 35.59375 56 
Q 45.5625 56 51.78125 48.09375 
Q 58.015625 40.1875 58.015625 27.296875 
Q 58.015625 14.40625 51.78125 6.484375 
Q 45.5625 -1.421875 35.59375 -1.421875 
Q 29.59375 -1.421875 25.265625 0.953125 
Q 20.953125 3.328125 18.109375 8.203125 
L 18.109375 0 
L 9.078125 0 
L 9.078125 75.984375 
L 18.109375 75.984375 
z
" id="DejaVuSans-98"/>
      <path d="M 9.8125 72.90625 
L 51.703125 72.90625 
L 51.703125 64.59375 
L 19.671875 64.59375 
L 19.671875 43.109375 
L 48.578125 43.109375 
L 48.578125 34.8125 
L 19.671875 34.8125 
L 19.671875 0 
L 9.8125 0 
z
" id="DejaVuSans-70"/>
      <path d="M 54.890625 33.015625 
L 54.890625 0 
L 45.90625 0 
L 45.90625 32.71875 
Q 45.90625 40.484375 42.875 44.328125 
Q 39.84375 48.1875 33.796875 48.1875 
Q 26.515625 48.1875 22.3125 43.546875 
Q 18.109375 38.921875 18.109375 30.90625 
L 18.109375 0 
L 9.078125 0 
L 9.078125 75.984375 
L 18.109375 75.984375 
L 18.109375 46.1875 
Q 21.34375 51.125 25.703125 53.5625 
Q 30.078125 56 35.796875 56 
Q 45.21875 56 50.046875 50.171875 
Q 54.890625 44.34375 54.890625 33.015625 
z
" id="DejaVuSans-104"/>
     </defs>
     <g transform="translate(416.585938 191.067187)scale(0.1 -0.1)">
      <use xlink:href="#DejaVuSans-65"/>
      <use x="68.408203" xlink:href="#DejaVuSans-103"/>
      <use x="131.884766" xlink:href="#DejaVuSans-114"/>
      <use x="172.998047" xlink:href="#DejaVuSans-105"/>
      <use x="200.78125" xlink:href="#DejaVuSans-99"/>
      <use x="255.761719" xlink:href="#DejaVuSans-117"/>
      <use x="319.140625" xlink:href="#DejaVuSans-108"/>
      <use x="346.923828" xlink:href="#DejaVuSans-116"/>
      <use x="386.132812" xlink:href="#DejaVuSans-117"/>
      <use x="449.511719" xlink:href="#DejaVuSans-114"/>
      <use x="490.625" xlink:href="#DejaVuSans-97"/>
      <use x="551.904297" xlink:href="#DejaVuSans-108"/>
      <use x="579.6875" xlink:href="#DejaVuSans-32"/>
      <use x="611.474609" xlink:href="#DejaVuSans-65"/>
      <use x="679.882812" xlink:href="#DejaVuSans-110"/>
      <use x="743.261719" xlink:href="#DejaVuSans-105"/>
      <use x="771.044922" xlink:href="#DejaVuSans-109"/>
      <use x="868.457031" xlink:href="#DejaVuSans-97"/>
      <use x="929.736328" xlink:href="#DejaVuSans-108"/>
      <use x="957.519531" xlink:href="#DejaVuSans-32"/>
      <use x="989.306641" xlink:href="#DejaVuSans-72"/>
      <use x="1064.501953" xlink:href="#DejaVuSans-117"/>
      <use x="1127.880859" xlink:href="#DejaVuSans-115"/>
      <use x="1179.980469" xlink:href="#DejaVuSans-98"/>
      <use x="1243.457031" xlink:href="#DejaVuSans-97"/>
      <use x="1304.736328" xlink:href="#DejaVuSans-110"/>
      <use x="1368.115234" xlink:href="#DejaVuSans-100"/>
      <use x="1431.591797" xlink:href="#DejaVuSans-114"/>
      <use x="1472.705078" xlink:href="#DejaVuSans-121"/>
      <use x="1531.884766" xlink:href="#DejaVuSans-32"/>
      <use x="1563.671875" xlink:href="#DejaVuSans-70"/>
      <use x="1621.082031" xlink:href="#DejaVuSans-105"/>
      <use x="1648.865234" xlink:href="#DejaVuSans-115"/>
      <use x="1700.964844" xlink:href="#DejaVuSans-104"/>
      <use x="1764.34375" xlink:href="#DejaVuSans-101"/>
      <use x="1825.867188" xlink:href="#DejaVuSans-114"/>
      <use x="1866.964844" xlink:href="#DejaVuSans-109"/>
      <use x="1964.376953" xlink:href="#DejaVuSans-97"/>
      <use x="2025.65625" xlink:href="#DejaVuSans-110"/>
      <use x="2089.035156" xlink:href="#DejaVuSans-32"/>
      <use x="2120.822266" xlink:href="#DejaVuSans-38"/>
      <use x="2198.800781" xlink:href="#DejaVuSans-32"/>
      <use x="2230.587891" xlink:href="#DejaVuSans-114"/>
      <use x="2271.669922" xlink:href="#DejaVuSans-101"/>
      <use x="2333.193359" xlink:href="#DejaVuSans-108"/>
      <use x="2360.976562" xlink:href="#DejaVuSans-97"/>
      <use x="2422.255859" xlink:href="#DejaVuSans-116"/>
      <use x="2461.464844" xlink:href="#DejaVuSans-101"/>
      <use x="2522.988281" xlink:href="#DejaVuSans-100"/>
      <use x="2586.464844" xlink:href="#DejaVuSans-32"/>
      <use x="2618.251953" xlink:href="#DejaVuSans-70"/>
      <use x="2675.724609" xlink:href="#DejaVuSans-111"/>
      <use x="2736.90625" xlink:href="#DejaVuSans-114"/>
      <use x="2777.988281" xlink:href="#DejaVuSans-101"/>
      <use x="2839.511719" xlink:href="#DejaVuSans-115"/>
      <use x="2891.611328" xlink:href="#DejaVuSans-116"/>
      <use x="2930.820312" xlink:href="#DejaVuSans-114"/>
      <use x="2971.933594" xlink:href="#DejaVuSans-121"/>
      <use x="3031.113281" xlink:href="#DejaVuSans-32"/>
      <use x="3062.900391" xlink:href="#DejaVuSans-119"/>
      <use x="3144.6875" xlink:href="#DejaVuSans-111"/>
      <use x="3205.869141" xlink:href="#DejaVuSans-114"/>
      <use x="3246.982422" xlink:href="#DejaVuSans-107"/>
      <use x="3304.845703" xlink:href="#DejaVuSans-101"/>
      <use x="3366.369141" xlink:href="#DejaVuSans-114"/>
      <use x="3407.482422" xlink:href="#DejaVuSans-115"/>
     </g>
    </g>
    <g id="patch_42">
     <path d="M 388.585938 205.745312 
L 408.585938 205.745312 
L 408.585938 198.745312 
L 388.585938 198.745312 
z
" style="fill:#4aad8f;"/>
    </g>
    <g id="text_21">
     <!-- Armed Services -->
     <g transform="translate(416.585938 205.745312)scale(0.1 -0.1)">
      <use xlink:href="#DejaVuSans-65"/>
      <use x="68.408203" xlink:href="#DejaVuSans-114"/>
      <use x="109.505859" xlink:href="#DejaVuSans-109"/>
      <use x="206.917969" xlink:href="#DejaVuSans-101"/>
      <use x="268.441406" xlink:href="#DejaVuSans-100"/>
      <use x="331.917969" xlink:href="#DejaVuSans-32"/>
      <use x="363.705078" xlink:href="#DejaVuSans-83"/>
      <use x="427.181641" xlink:href="#DejaVuSans-101"/>
      <use x="488.705078" xlink:href="#DejaVuSans-114"/>
      <use x="529.818359" xlink:href="#DejaVuSans-118"/>
      <use x="588.998047" xlink:href="#DejaVuSans-105"/>
      <use x="616.78125" xlink:href="#DejaVuSans-99"/>
      <use x="671.761719" xlink:href="#DejaVuSans-101"/>
      <use x="733.285156" xlink:href="#DejaVuSans-115"/>
     </g>
    </g>
    <g id="patch_43">
     <path d="M 388.585938 220.423437 
L 408.585938 220.423437 
L 408.585938 213.423437 
L 388.585938 213.423437 
z
" style="fill:#4baba4;"/>
    </g>
    <g id="text_22">
     <!-- Clerical &amp; related workers (Stenographers/ Typists etc) -->
     <defs>
      <path d="M 64.40625 67.28125 
L 64.40625 56.890625 
Q 59.421875 61.53125 53.78125 63.8125 
Q 48.140625 66.109375 41.796875 66.109375 
Q 29.296875 66.109375 22.65625 58.46875 
Q 16.015625 50.828125 16.015625 36.375 
Q 16.015625 21.96875 22.65625 14.328125 
Q 29.296875 6.6875 41.796875 6.6875 
Q 48.140625 6.6875 53.78125 8.984375 
Q 59.421875 11.28125 64.40625 15.921875 
L 64.40625 5.609375 
Q 59.234375 2.09375 53.4375 0.328125 
Q 47.65625 -1.421875 41.21875 -1.421875 
Q 24.65625 -1.421875 15.125 8.703125 
Q 5.609375 18.84375 5.609375 36.375 
Q 5.609375 53.953125 15.125 64.078125 
Q 24.65625 74.21875 41.21875 74.21875 
Q 47.75 74.21875 53.53125 72.484375 
Q 59.328125 70.75 64.40625 67.28125 
z
" id="DejaVuSans-67"/>
      <path d="M -0.296875 72.90625 
L 61.375 72.90625 
L 61.375 64.59375 
L 35.5 64.59375 
L 35.5 0 
L 25.59375 0 
L 25.59375 64.59375 
L -0.296875 64.59375 
z
" id="DejaVuSans-84"/>
     </defs>
     <g transform="translate(416.585938 220.423437)scale(0.1 -0.1)">
      <use xlink:href="#DejaVuSans-67"/>
      <use x="69.824219" xlink:href="#DejaVuSans-108"/>
      <use x="97.607422" xlink:href="#DejaVuSans-101"/>
      <use x="159.130859" xlink:href="#DejaVuSans-114"/>
      <use x="200.244141" xlink:href="#DejaVuSans-105"/>
      <use x="228.027344" xlink:href="#DejaVuSans-99"/>
      <use x="283.007812" xlink:href="#DejaVuSans-97"/>
      <use x="344.287109" xlink:href="#DejaVuSans-108"/>
      <use x="372.070312" xlink:href="#DejaVuSans-32"/>
      <use x="403.857422" xlink:href="#DejaVuSans-38"/>
      <use x="481.835938" xlink:href="#DejaVuSans-32"/>
      <use x="513.623047" xlink:href="#DejaVuSans-114"/>
      <use x="554.705078" xlink:href="#DejaVuSans-101"/>
      <use x="616.228516" xlink:href="#DejaVuSans-108"/>
      <use x="644.011719" xlink:href="#DejaVuSans-97"/>
      <use x="705.291016" xlink:href="#DejaVuSans-116"/>
      <use x="744.5" xlink:href="#DejaVuSans-101"/>
      <use x="806.023438" xlink:href="#DejaVuSans-100"/>
      <use x="869.5" xlink:href="#DejaVuSans-32"/>
      <use x="901.287109" xlink:href="#DejaVuSans-119"/>
      <use x="983.074219" xlink:href="#DejaVuSans-111"/>
      <use x="1044.255859" xlink:href="#DejaVuSans-114"/>
      <use x="1085.369141" xlink:href="#DejaVuSans-107"/>
      <use x="1143.232422" xlink:href="#DejaVuSans-101"/>
      <use x="1204.755859" xlink:href="#DejaVuSans-114"/>
      <use x="1245.869141" xlink:href="#DejaVuSans-115"/>
      <use x="1297.96875" xlink:href="#DejaVuSans-32"/>
      <use x="1329.755859" xlink:href="#DejaVuSans-40"/>
      <use x="1368.769531" xlink:href="#DejaVuSans-83"/>
      <use x="1432.246094" xlink:href="#DejaVuSans-116"/>
      <use x="1471.455078" xlink:href="#DejaVuSans-101"/>
      <use x="1532.978516" xlink:href="#DejaVuSans-110"/>
      <use x="1596.357422" xlink:href="#DejaVuSans-111"/>
      <use x="1657.539062" xlink:href="#DejaVuSans-103"/>
      <use x="1721.015625" xlink:href="#DejaVuSans-114"/>
      <use x="1762.128906" xlink:href="#DejaVuSans-97"/>
      <use x="1823.408203" xlink:href="#DejaVuSans-112"/>
      <use x="1886.884766" xlink:href="#DejaVuSans-104"/>
      <use x="1950.263672" xlink:href="#DejaVuSans-101"/>
      <use x="2011.787109" xlink:href="#DejaVuSans-114"/>
      <use x="2052.900391" xlink:href="#DejaVuSans-115"/>
      <use x="2105" xlink:href="#DejaVuSans-47"/>
      <use x="2138.691406" xlink:href="#DejaVuSans-32"/>
      <use x="2170.478516" xlink:href="#DejaVuSans-84"/>
      <use x="2231.328125" xlink:href="#DejaVuSans-121"/>
      <use x="2290.507812" xlink:href="#DejaVuSans-112"/>
      <use x="2353.984375" xlink:href="#DejaVuSans-105"/>
      <use x="2381.767578" xlink:href="#DejaVuSans-115"/>
      <use x="2433.867188" xlink:href="#DejaVuSans-116"/>
      <use x="2473.076172" xlink:href="#DejaVuSans-115"/>
      <use x="2525.175781" xlink:href="#DejaVuSans-32"/>
      <use x="2556.962891" xlink:href="#DejaVuSans-101"/>
      <use x="2618.486328" xlink:href="#DejaVuSans-116"/>
      <use x="2657.695312" xlink:href="#DejaVuSans-99"/>
      <use x="2712.675781" xlink:href="#DejaVuSans-41"/>
     </g>
    </g>
    <g id="patch_44">
     <path d="M 388.585938 235.101562 
L 408.585938 235.101562 
L 408.585938 228.101562 
L 388.585938 228.101562 
z
" style="fill:#4eabb8;"/>
    </g>
    <g id="text_23">
     <!-- Service workers (Cooks/Tailors/Barbers/ etc) -->
     <defs>
      <path d="M 19.671875 34.8125 
L 19.671875 8.109375 
L 35.5 8.109375 
Q 43.453125 8.109375 47.28125 11.40625 
Q 51.125 14.703125 51.125 21.484375 
Q 51.125 28.328125 47.28125 31.5625 
Q 43.453125 34.8125 35.5 34.8125 
z
M 19.671875 64.796875 
L 19.671875 42.828125 
L 34.28125 42.828125 
Q 41.5 42.828125 45.03125 45.53125 
Q 48.578125 48.25 48.578125 53.8125 
Q 48.578125 59.328125 45.03125 62.0625 
Q 41.5 64.796875 34.28125 64.796875 
z
M 9.8125 72.90625 
L 35.015625 72.90625 
Q 46.296875 72.90625 52.390625 68.21875 
Q 58.5 63.53125 58.5 54.890625 
Q 58.5 48.1875 55.375 44.234375 
Q 52.25 40.28125 46.1875 39.3125 
Q 53.46875 37.75 57.5 32.78125 
Q 61.53125 27.828125 61.53125 20.40625 
Q 61.53125 10.640625 54.890625 5.3125 
Q 48.25 0 35.984375 0 
L 9.8125 0 
z
" id="DejaVuSans-66"/>
     </defs>
     <g transform="translate(416.585938 235.101562)scale(0.1 -0.1)">
      <use xlink:href="#DejaVuSans-83"/>
      <use x="63.476562" xlink:href="#DejaVuSans-101"/>
      <use x="125" xlink:href="#DejaVuSans-114"/>
      <use x="166.113281" xlink:href="#DejaVuSans-118"/>
      <use x="225.292969" xlink:href="#DejaVuSans-105"/>
      <use x="253.076172" xlink:href="#DejaVuSans-99"/>
      <use x="308.056641" xlink:href="#DejaVuSans-101"/>
      <use x="369.580078" xlink:href="#DejaVuSans-32"/>
      <use x="401.367188" xlink:href="#DejaVuSans-119"/>
      <use x="483.154297" xlink:href="#DejaVuSans-111"/>
      <use x="544.335938" xlink:href="#DejaVuSans-114"/>
      <use x="585.449219" xlink:href="#DejaVuSans-107"/>
      <use x="643.3125" xlink:href="#DejaVuSans-101"/>
      <use x="704.835938" xlink:href="#DejaVuSans-114"/>
      <use x="745.949219" xlink:href="#DejaVuSans-115"/>
      <use x="798.048828" xlink:href="#DejaVuSans-32"/>
      <use x="829.835938" xlink:href="#DejaVuSans-40"/>
      <use x="868.849609" xlink:href="#DejaVuSans-67"/>
      <use x="938.673828" xlink:href="#DejaVuSans-111"/>
      <use x="999.855469" xlink:href="#DejaVuSans-111"/>
      <use x="1061.037109" xlink:href="#DejaVuSans-107"/>
      <use x="1118.947266" xlink:href="#DejaVuSans-115"/>
      <use x="1171.046875" xlink:href="#DejaVuSans-47"/>
      <use x="1204.738281" xlink:href="#DejaVuSans-84"/>
      <use x="1265.572266" xlink:href="#DejaVuSans-97"/>
      <use x="1326.851562" xlink:href="#DejaVuSans-105"/>
      <use x="1354.634766" xlink:href="#DejaVuSans-108"/>
      <use x="1382.417969" xlink:href="#DejaVuSans-111"/>
      <use x="1443.599609" xlink:href="#DejaVuSans-114"/>
      <use x="1484.712891" xlink:href="#DejaVuSans-115"/>
      <use x="1536.8125" xlink:href="#DejaVuSans-47"/>
      <use x="1570.503906" xlink:href="#DejaVuSans-66"/>
      <use x="1639.107422" xlink:href="#DejaVuSans-97"/>
      <use x="1700.386719" xlink:href="#DejaVuSans-114"/>
      <use x="1741.5" xlink:href="#DejaVuSans-98"/>
      <use x="1804.976562" xlink:href="#DejaVuSans-101"/>
      <use x="1866.5" xlink:href="#DejaVuSans-114"/>
      <use x="1907.613281" xlink:href="#DejaVuSans-115"/>
      <use x="1959.712891" xlink:href="#DejaVuSans-47"/>
      <use x="1993.404297" xlink:href="#DejaVuSans-32"/>
      <use x="2025.191406" xlink:href="#DejaVuSans-101"/>
      <use x="2086.714844" xlink:href="#DejaVuSans-116"/>
      <use x="2125.923828" xlink:href="#DejaVuSans-99"/>
      <use x="2180.904297" xlink:href="#DejaVuSans-41"/>
     </g>
    </g>
    <g id="patch_45">
     <path d="M 388.585938 249.779687 
L 408.585938 249.779687 
L 408.585938 242.779687 
L 388.585938 242.779687 
z
" style="fill:#55acd7;"/>
    </g>
    <g id="text_24">
     <!-- Student -->
     <g transform="translate(416.585938 249.779687)scale(0.1 -0.1)">
      <use xlink:href="#DejaVuSans-83"/>
      <use x="63.476562" xlink:href="#DejaVuSans-116"/>
      <use x="102.685547" xlink:href="#DejaVuSans-117"/>
      <use x="166.064453" xlink:href="#DejaVuSans-100"/>
      <use x="229.541016" xlink:href="#DejaVuSans-101"/>
      <use x="291.064453" xlink:href="#DejaVuSans-110"/>
      <use x="354.443359" xlink:href="#DejaVuSans-116"/>
     </g>
    </g>
    <g id="patch_46">
     <path d="M 388.585938 264.457812 
L 408.585938 264.457812 
L 408.585938 257.457812 
L 388.585938 257.457812 
z
" style="fill:#a0adea;"/>
    </g>
    <g id="text_25">
     <!-- Police -->
     <g transform="translate(416.585938 264.457812)scale(0.1 -0.1)">
      <use xlink:href="#DejaVuSans-80"/>
      <use x="60.255859" xlink:href="#DejaVuSans-111"/>
      <use x="121.4375" xlink:href="#DejaVuSans-108"/>
      <use x="149.220703" xlink:href="#DejaVuSans-105"/>
      <use x="177.003906" xlink:href="#DejaVuSans-99"/>
      <use x="231.984375" xlink:href="#DejaVuSans-101"/>
     </g>
    </g>
    <g id="patch_47">
     <path d="M 388.585938 279.135937 
L 408.585938 279.135937 
L 408.585938 272.135937 
L 388.585938 272.135937 
z
" style="fill:#c79fe9;"/>
    </g>
    <g id="text_26">
     <!-- Production process workers Craftsman &amp; related workers transport equipment operators &amp; labourers -->
     <defs>
      <path d="M 14.796875 27.296875 
Q 14.796875 17.390625 18.875 11.75 
Q 22.953125 6.109375 30.078125 6.109375 
Q 37.203125 6.109375 41.296875 11.75 
Q 45.40625 17.390625 45.40625 27.296875 
Q 45.40625 37.203125 41.296875 42.84375 
Q 37.203125 48.484375 30.078125 48.484375 
Q 22.953125 48.484375 18.875 42.84375 
Q 14.796875 37.203125 14.796875 27.296875 
z
M 45.40625 8.203125 
Q 42.578125 3.328125 38.25 0.953125 
Q 33.9375 -1.421875 27.875 -1.421875 
Q 17.96875 -1.421875 11.734375 6.484375 
Q 5.515625 14.40625 5.515625 27.296875 
Q 5.515625 40.1875 11.734375 48.09375 
Q 17.96875 56 27.875 56 
Q 33.9375 56 38.25 53.625 
Q 42.578125 51.265625 45.40625 46.390625 
L 45.40625 54.6875 
L 54.390625 54.6875 
L 54.390625 -20.796875 
L 45.40625 -20.796875 
z
" id="DejaVuSans-113"/>
     </defs>
     <g transform="translate(416.585938 279.135937)scale(0.1 -0.1)">
      <use xlink:href="#DejaVuSans-80"/>
      <use x="60.287109" xlink:href="#DejaVuSans-114"/>
      <use x="101.369141" xlink:href="#DejaVuSans-111"/>
      <use x="162.550781" xlink:href="#DejaVuSans-100"/>
      <use x="226.027344" xlink:href="#DejaVuSans-117"/>
      <use x="289.40625" xlink:href="#DejaVuSans-99"/>
      <use x="344.386719" xlink:href="#DejaVuSans-116"/>
      <use x="383.595703" xlink:href="#DejaVuSans-105"/>
      <use x="411.378906" xlink:href="#DejaVuSans-111"/>
      <use x="472.560547" xlink:href="#DejaVuSans-110"/>
      <use x="535.939453" xlink:href="#DejaVuSans-32"/>
      <use x="567.726562" xlink:href="#DejaVuSans-112"/>
      <use x="631.203125" xlink:href="#DejaVuSans-114"/>
      <use x="672.285156" xlink:href="#DejaVuSans-111"/>
      <use x="733.466797" xlink:href="#DejaVuSans-99"/>
      <use x="788.447266" xlink:href="#DejaVuSans-101"/>
      <use x="849.970703" xlink:href="#DejaVuSans-115"/>
      <use x="902.070312" xlink:href="#DejaVuSans-115"/>
      <use x="954.169922" xlink:href="#DejaVuSans-32"/>
      <use x="985.957031" xlink:href="#DejaVuSans-119"/>
      <use x="1067.744141" xlink:href="#DejaVuSans-111"/>
      <use x="1128.925781" xlink:href="#DejaVuSans-114"/>
      <use x="1170.039062" xlink:href="#DejaVuSans-107"/>
      <use x="1227.902344" xlink:href="#DejaVuSans-101"/>
      <use x="1289.425781" xlink:href="#DejaVuSans-114"/>
      <use x="1330.539062" xlink:href="#DejaVuSans-115"/>
      <use x="1382.638672" xlink:href="#DejaVuSans-32"/>
      <use x="1414.425781" xlink:href="#DejaVuSans-67"/>
      <use x="1484.25" xlink:href="#DejaVuSans-114"/>
      <use x="1525.363281" xlink:href="#DejaVuSans-97"/>
      <use x="1586.642578" xlink:href="#DejaVuSans-102"/>
      <use x="1621.832031" xlink:href="#DejaVuSans-116"/>
      <use x="1661.041016" xlink:href="#DejaVuSans-115"/>
      <use x="1713.140625" xlink:href="#DejaVuSans-109"/>
      <use x="1810.552734" xlink:href="#DejaVuSans-97"/>
      <use x="1871.832031" xlink:href="#DejaVuSans-110"/>
      <use x="1935.210938" xlink:href="#DejaVuSans-32"/>
      <use x="1966.998047" xlink:href="#DejaVuSans-38"/>
      <use x="2044.976562" xlink:href="#DejaVuSans-32"/>
      <use x="2076.763672" xlink:href="#DejaVuSans-114"/>
      <use x="2117.845703" xlink:href="#DejaVuSans-101"/>
      <use x="2179.369141" xlink:href="#DejaVuSans-108"/>
      <use x="2207.152344" xlink:href="#DejaVuSans-97"/>
      <use x="2268.431641" xlink:href="#DejaVuSans-116"/>
      <use x="2307.640625" xlink:href="#DejaVuSans-101"/>
      <use x="2369.164062" xlink:href="#DejaVuSans-100"/>
      <use x="2432.640625" xlink:href="#DejaVuSans-32"/>
      <use x="2464.427734" xlink:href="#DejaVuSans-119"/>
      <use x="2546.214844" xlink:href="#DejaVuSans-111"/>
      <use x="2607.396484" xlink:href="#DejaVuSans-114"/>
      <use x="2648.509766" xlink:href="#DejaVuSans-107"/>
      <use x="2706.373047" xlink:href="#DejaVuSans-101"/>
      <use x="2767.896484" xlink:href="#DejaVuSans-114"/>
      <use x="2809.009766" xlink:href="#DejaVuSans-115"/>
      <use x="2861.109375" xlink:href="#DejaVuSans-32"/>
      <use x="2892.896484" xlink:href="#DejaVuSans-116"/>
      <use x="2932.105469" xlink:href="#DejaVuSans-114"/>
      <use x="2973.21875" xlink:href="#DejaVuSans-97"/>
      <use x="3034.498047" xlink:href="#DejaVuSans-110"/>
      <use x="3097.876953" xlink:href="#DejaVuSans-115"/>
      <use x="3149.976562" xlink:href="#DejaVuSans-112"/>
      <use x="3213.453125" xlink:href="#DejaVuSans-111"/>
      <use x="3274.634766" xlink:href="#DejaVuSans-114"/>
      <use x="3315.748047" xlink:href="#DejaVuSans-116"/>
      <use x="3354.957031" xlink:href="#DejaVuSans-32"/>
      <use x="3386.744141" xlink:href="#DejaVuSans-101"/>
      <use x="3448.267578" xlink:href="#DejaVuSans-113"/>
      <use x="3511.744141" xlink:href="#DejaVuSans-117"/>
      <use x="3575.123047" xlink:href="#DejaVuSans-105"/>
      <use x="3602.90625" xlink:href="#DejaVuSans-112"/>
      <use x="3666.382812" xlink:href="#DejaVuSans-109"/>
      <use x="3763.794922" xlink:href="#DejaVuSans-101"/>
      <use x="3825.318359" xlink:href="#DejaVuSans-110"/>
      <use x="3888.697266" xlink:href="#DejaVuSans-116"/>
      <use x="3927.90625" xlink:href="#DejaVuSans-32"/>
      <use x="3959.693359" xlink:href="#DejaVuSans-111"/>
      <use x="4020.875" xlink:href="#DejaVuSans-112"/>
      <use x="4084.351562" xlink:href="#DejaVuSans-101"/>
      <use x="4145.875" xlink:href="#DejaVuSans-114"/>
      <use x="4186.988281" xlink:href="#DejaVuSans-97"/>
      <use x="4248.267578" xlink:href="#DejaVuSans-116"/>
      <use x="4287.476562" xlink:href="#DejaVuSans-111"/>
      <use x="4348.658203" xlink:href="#DejaVuSans-114"/>
      <use x="4389.771484" xlink:href="#DejaVuSans-115"/>
      <use x="4441.871094" xlink:href="#DejaVuSans-32"/>
      <use x="4473.658203" xlink:href="#DejaVuSans-38"/>
      <use x="4551.636719" xlink:href="#DejaVuSans-32"/>
      <use x="4583.423828" xlink:href="#DejaVuSans-108"/>
      <use x="4611.207031" xlink:href="#DejaVuSans-97"/>
      <use x="4672.486328" xlink:href="#DejaVuSans-98"/>
      <use x="4735.962891" xlink:href="#DejaVuSans-111"/>
      <use x="4797.144531" xlink:href="#DejaVuSans-117"/>
      <use x="4860.523438" xlink:href="#DejaVuSans-114"/>
      <use x="4901.605469" xlink:href="#DejaVuSans-101"/>
      <use x="4963.128906" xlink:href="#DejaVuSans-114"/>
      <use x="5004.242188" xlink:href="#DejaVuSans-115"/>
     </g>
    </g>
    <g id="patch_48">
     <path d="M 388.585938 293.814062 
L 408.585938 293.814062 
L 408.585938 286.814062 
L 388.585938 286.814062 
z
" style="fill:#e78ae0;"/>
    </g>
    <g id="text_27">
     <!-- Workers not classfied by occupation  -->
     <defs>
      <path d="M 3.328125 72.90625 
L 13.28125 72.90625 
L 28.609375 11.28125 
L 43.890625 72.90625 
L 54.984375 72.90625 
L 70.3125 11.28125 
L 85.59375 72.90625 
L 95.609375 72.90625 
L 77.296875 0 
L 64.890625 0 
L 49.515625 63.28125 
L 33.984375 0 
L 21.578125 0 
z
" id="DejaVuSans-87"/>
     </defs>
     <g transform="translate(416.585938 293.814062)scale(0.1 -0.1)">
      <use xlink:href="#DejaVuSans-87"/>
      <use x="98.798828" xlink:href="#DejaVuSans-111"/>
      <use x="159.980469" xlink:href="#DejaVuSans-114"/>
      <use x="201.09375" xlink:href="#DejaVuSans-107"/>
      <use x="258.957031" xlink:href="#DejaVuSans-101"/>
      <use x="320.480469" xlink:href="#DejaVuSans-114"/>
      <use x="361.59375" xlink:href="#DejaVuSans-115"/>
      <use x="413.693359" xlink:href="#DejaVuSans-32"/>
      <use x="445.480469" xlink:href="#DejaVuSans-110"/>
      <use x="508.859375" xlink:href="#DejaVuSans-111"/>
      <use x="570.041016" xlink:href="#DejaVuSans-116"/>
      <use x="609.25" xlink:href="#DejaVuSans-32"/>
      <use x="641.037109" xlink:href="#DejaVuSans-99"/>
      <use x="696.017578" xlink:href="#DejaVuSans-108"/>
      <use x="723.800781" xlink:href="#DejaVuSans-97"/>
      <use x="785.080078" xlink:href="#DejaVuSans-115"/>
      <use x="837.179688" xlink:href="#DejaVuSans-115"/>
      <use x="889.279297" xlink:href="#DejaVuSans-102"/>
      <use x="924.484375" xlink:href="#DejaVuSans-105"/>
      <use x="952.267578" xlink:href="#DejaVuSans-101"/>
      <use x="1013.791016" xlink:href="#DejaVuSans-100"/>
      <use x="1077.267578" xlink:href="#DejaVuSans-32"/>
      <use x="1109.054688" xlink:href="#DejaVuSans-98"/>
      <use x="1172.53125" xlink:href="#DejaVuSans-121"/>
      <use x="1231.710938" xlink:href="#DejaVuSans-32"/>
      <use x="1263.498047" xlink:href="#DejaVuSans-111"/>
      <use x="1324.679688" xlink:href="#DejaVuSans-99"/>
      <use x="1379.660156" xlink:href="#DejaVuSans-99"/>
      <use x="1434.640625" xlink:href="#DejaVuSans-117"/>
      <use x="1498.019531" xlink:href="#DejaVuSans-112"/>
      <use x="1561.496094" xlink:href="#DejaVuSans-97"/>
      <use x="1622.775391" xlink:href="#DejaVuSans-116"/>
      <use x="1661.984375" xlink:href="#DejaVuSans-105"/>
      <use x="1689.767578" xlink:href="#DejaVuSans-111"/>
      <use x="1750.949219" xlink:href="#DejaVuSans-110"/>
      <use x="1814.328125" xlink:href="#DejaVuSans-32"/>
     </g>
    </g>
    <g id="patch_49">
     <path d="M 388.585938 308.492187 
L 408.585938 308.492187 
L 408.585938 301.492187 
L 388.585938 301.492187 
z
" style="fill:#e891c1;"/>
    </g>
    <g id="text_28">
     <!-- Professional Technical &amp; related workers (Doctors/Engineers/Accountants/ Teachers/Authors/ Photographers) -->
     <defs>
      <path d="M 19.671875 64.796875 
L 19.671875 8.109375 
L 31.59375 8.109375 
Q 46.6875 8.109375 53.6875 14.9375 
Q 60.6875 21.78125 60.6875 36.53125 
Q 60.6875 51.171875 53.6875 57.984375 
Q 46.6875 64.796875 31.59375 64.796875 
z
M 9.8125 72.90625 
L 30.078125 72.90625 
Q 51.265625 72.90625 61.171875 64.09375 
Q 71.09375 55.28125 71.09375 36.53125 
Q 71.09375 17.671875 61.125 8.828125 
Q 51.171875 0 30.078125 0 
L 9.8125 0 
z
" id="DejaVuSans-68"/>
     </defs>
     <g transform="translate(416.585938 308.492187)scale(0.1 -0.1)">
      <use xlink:href="#DejaVuSans-80"/>
      <use x="60.287109" xlink:href="#DejaVuSans-114"/>
      <use x="101.369141" xlink:href="#DejaVuSans-111"/>
      <use x="162.550781" xlink:href="#DejaVuSans-102"/>
      <use x="197.755859" xlink:href="#DejaVuSans-101"/>
      <use x="259.279297" xlink:href="#DejaVuSans-115"/>
      <use x="311.378906" xlink:href="#DejaVuSans-115"/>
      <use x="363.478516" xlink:href="#DejaVuSans-105"/>
      <use x="391.261719" xlink:href="#DejaVuSans-111"/>
      <use x="452.443359" xlink:href="#DejaVuSans-110"/>
      <use x="515.822266" xlink:href="#DejaVuSans-97"/>
      <use x="577.101562" xlink:href="#DejaVuSans-108"/>
      <use x="604.884766" xlink:href="#DejaVuSans-32"/>
      <use x="636.671875" xlink:href="#DejaVuSans-84"/>
      <use x="697.490234" xlink:href="#DejaVuSans-101"/>
      <use x="759.013672" xlink:href="#DejaVuSans-99"/>
      <use x="813.994141" xlink:href="#DejaVuSans-104"/>
      <use x="877.373047" xlink:href="#DejaVuSans-110"/>
      <use x="940.751953" xlink:href="#DejaVuSans-105"/>
      <use x="968.535156" xlink:href="#DejaVuSans-99"/>
      <use x="1023.515625" xlink:href="#DejaVuSans-97"/>
      <use x="1084.794922" xlink:href="#DejaVuSans-108"/>
      <use x="1112.578125" xlink:href="#DejaVuSans-32"/>
      <use x="1144.365234" xlink:href="#DejaVuSans-38"/>
      <use x="1222.34375" xlink:href="#DejaVuSans-32"/>
      <use x="1254.130859" xlink:href="#DejaVuSans-114"/>
      <use x="1295.212891" xlink:href="#DejaVuSans-101"/>
      <use x="1356.736328" xlink:href="#DejaVuSans-108"/>
      <use x="1384.519531" xlink:href="#DejaVuSans-97"/>
      <use x="1445.798828" xlink:href="#DejaVuSans-116"/>
      <use x="1485.007812" xlink:href="#DejaVuSans-101"/>
      <use x="1546.53125" xlink:href="#DejaVuSans-100"/>
      <use x="1610.007812" xlink:href="#DejaVuSans-32"/>
      <use x="1641.794922" xlink:href="#DejaVuSans-119"/>
      <use x="1723.582031" xlink:href="#DejaVuSans-111"/>
      <use x="1784.763672" xlink:href="#DejaVuSans-114"/>
      <use x="1825.876953" xlink:href="#DejaVuSans-107"/>
      <use x="1883.740234" xlink:href="#DejaVuSans-101"/>
      <use x="1945.263672" xlink:href="#DejaVuSans-114"/>
      <use x="1986.376953" xlink:href="#DejaVuSans-115"/>
      <use x="2038.476562" xlink:href="#DejaVuSans-32"/>
      <use x="2070.263672" xlink:href="#DejaVuSans-40"/>
      <use x="2109.277344" xlink:href="#DejaVuSans-68"/>
      <use x="2186.279297" xlink:href="#DejaVuSans-111"/>
      <use x="2247.460938" xlink:href="#DejaVuSans-99"/>
      <use x="2302.441406" xlink:href="#DejaVuSans-116"/>
      <use x="2341.650391" xlink:href="#DejaVuSans-111"/>
      <use x="2402.832031" xlink:href="#DejaVuSans-114"/>
      <use x="2443.945312" xlink:href="#DejaVuSans-115"/>
      <use x="2496.044922" xlink:href="#DejaVuSans-47"/>
      <use x="2529.736328" xlink:href="#DejaVuSans-69"/>
      <use x="2592.919922" xlink:href="#DejaVuSans-110"/>
      <use x="2656.298828" xlink:href="#DejaVuSans-103"/>
      <use x="2719.775391" xlink:href="#DejaVuSans-105"/>
      <use x="2747.558594" xlink:href="#DejaVuSans-110"/>
      <use x="2810.9375" xlink:href="#DejaVuSans-101"/>
      <use x="2872.460938" xlink:href="#DejaVuSans-101"/>
      <use x="2933.984375" xlink:href="#DejaVuSans-114"/>
      <use x="2975.097656" xlink:href="#DejaVuSans-115"/>
      <use x="3027.197266" xlink:href="#DejaVuSans-47"/>
      <use x="3060.888672" xlink:href="#DejaVuSans-65"/>
      <use x="3129.28125" xlink:href="#DejaVuSans-99"/>
      <use x="3184.261719" xlink:href="#DejaVuSans-99"/>
      <use x="3239.242188" xlink:href="#DejaVuSans-111"/>
      <use x="3300.423828" xlink:href="#DejaVuSans-117"/>
      <use x="3363.802734" xlink:href="#DejaVuSans-110"/>
      <use x="3427.181641" xlink:href="#DejaVuSans-116"/>
      <use x="3466.390625" xlink:href="#DejaVuSans-97"/>
      <use x="3527.669922" xlink:href="#DejaVuSans-110"/>
      <use x="3591.048828" xlink:href="#DejaVuSans-116"/>
      <use x="3630.257812" xlink:href="#DejaVuSans-115"/>
      <use x="3682.357422" xlink:href="#DejaVuSans-47"/>
      <use x="3716.048828" xlink:href="#DejaVuSans-32"/>
      <use x="3747.835938" xlink:href="#DejaVuSans-84"/>
      <use x="3808.654297" xlink:href="#DejaVuSans-101"/>
      <use x="3870.177734" xlink:href="#DejaVuSans-97"/>
      <use x="3931.457031" xlink:href="#DejaVuSans-99"/>
      <use x="3986.4375" xlink:href="#DejaVuSans-104"/>
      <use x="4049.816406" xlink:href="#DejaVuSans-101"/>
      <use x="4111.339844" xlink:href="#DejaVuSans-114"/>
      <use x="4152.453125" xlink:href="#DejaVuSans-115"/>
      <use x="4204.552734" xlink:href="#DejaVuSans-47"/>
      <use x="4238.244141" xlink:href="#DejaVuSans-65"/>
      <use x="4306.652344" xlink:href="#DejaVuSans-117"/>
      <use x="4370.03125" xlink:href="#DejaVuSans-116"/>
      <use x="4409.240234" xlink:href="#DejaVuSans-104"/>
      <use x="4472.619141" xlink:href="#DejaVuSans-111"/>
      <use x="4533.800781" xlink:href="#DejaVuSans-114"/>
      <use x="4574.914062" xlink:href="#DejaVuSans-115"/>
      <use x="4627.013672" xlink:href="#DejaVuSans-47"/>
      <use x="4660.705078" xlink:href="#DejaVuSans-32"/>
      <use x="4692.492188" xlink:href="#DejaVuSans-80"/>
      <use x="4752.794922" xlink:href="#DejaVuSans-104"/>
      <use x="4816.173828" xlink:href="#DejaVuSans-111"/>
      <use x="4877.355469" xlink:href="#DejaVuSans-116"/>
      <use x="4916.564453" xlink:href="#DejaVuSans-111"/>
      <use x="4977.746094" xlink:href="#DejaVuSans-103"/>
      <use x="5041.222656" xlink:href="#DejaVuSans-114"/>
      <use x="5082.335938" xlink:href="#DejaVuSans-97"/>
      <use x="5143.615234" xlink:href="#DejaVuSans-112"/>
      <use x="5207.091797" xlink:href="#DejaVuSans-104"/>
      <use x="5270.470703" xlink:href="#DejaVuSans-101"/>
      <use x="5331.994141" xlink:href="#DejaVuSans-114"/>
      <use x="5373.107422" xlink:href="#DejaVuSans-115"/>
      <use x="5425.207031" xlink:href="#DejaVuSans-41"/>
     </g>
    </g>
   </g>
  </g>
 </g>
 <defs>
  <clipPath id="p00d43bb95b">
   <rect height="543.6" width="837" x="135" y="86.4"/>
  </clipPath>
 </defs>
</svg>
